<svg width="0" height="0" style="position:absolute"><symbol viewBox="0 0 80 58" fill="none" id="bottom-right-card-shape" xmlns="http://www.w3.org/2000/svg"><path d="M23.5 57.5.5 58H65c8.284 0 15-6.716 15-15V0c-1.2 10.8-7 17.5-14.5 17.5H50.042c-2.962 0-5.973.76-8.11 2.81C35.74 26.254 37.864 32.26 37 43.5c-.767 9.97-8.5 13.833-13.5 14Z" fill="currentColor"/></symbol><symbol fill="none" viewBox="0 0 33 12" id="burger-icon" xmlns="http://www.w3.org/2000/svg"><rect width="33" height="2" rx="1" transform="matrix(-1 0 0 1 33 0)" fill="#1F245A"/><rect width="33" height="2" rx="1" transform="matrix(-1 0 0 1 33 5)" fill="#1F245A"/><rect width="33" height="2" rx="1" transform="matrix(-1 0 0 1 33 10)" fill="#1F245A"/></symbol><symbol fill="none" viewBox="0 0 20 20" id="button-arrow-icon" xmlns="http://www.w3.org/2000/svg"><path d="M12.579 15.138 1.9 4.46l-.255-.255-.353-.353.353-.354.255-.254L3.244 1.9l.254-.255.354-.353.354.353.254.255 10.678 10.678V4.184H18.758V18.758H4.184V15.138h8.395Z" fill="currentColor" stroke="currentColor"/></symbol><symbol fill="none" viewBox="0 0 40 40" id="calendar" xmlns="http://www.w3.org/2000/svg"><path d="M30.375 5.5v-.375c0-.625-.563-1.25-1.25-1.25-.688 0-1.25.563-1.25 1.25V5.5H21.25v-.438c0-.625-.563-1.25-1.25-1.25-.688 0-1.25.563-1.25 1.25v.5h-6.375v-.437c0-.625-.563-1.25-1.25-1.25-.688 0-1.25.563-1.25 1.25v.5C7 5.625 4.625 8 4.625 10.875v20.25c0 2.875 2.375 5.25 5.25 5.25h20.25c2.875 0 5.25-2.375 5.25-5.25V10.75c0-2.813-2.25-5.125-5-5.25ZM9.875 8v.25c0 .625.563 1.25 1.25 1.25.688 0 1.25-.563 1.25-1.25V8h6.375v.25c0 .625.563 1.25 1.25 1.25.688 0 1.25-.563 1.25-1.25V8h6.563v.375c0 .625.562 1.25 1.25 1.25.687 0 1.25-.563 1.25-1.25V8c1.437.125 2.562 1.313 2.562 2.75v3.5H7.125v-3.5c0-1.563 1.25-2.75 2.75-2.75Zm20.25 25.75H9.875c-1.5 0-2.75-1.25-2.75-2.75V16.75h25.813V31c-.063 1.5-1.313 2.75-2.813 2.75Z" fill="#F16C22"/><path d="M20 18.188a7.122 7.122 0 0 0-7.125 7.125c0 3.937 3.188 7.187 7.125 7.187a7.122 7.122 0 0 0 7.125-7.125c0-3.938-3.188-7.188-7.125-7.188ZM20 30a4.615 4.615 0 0 1-4.625-4.625A4.615 4.615 0 0 1 20 20.75a4.615 4.615 0 0 1 4.625 4.625A4.615 4.615 0 0 1 20 30Z" fill="#F16C22"/><path d="M21.25 25.125v-2.25c0-.625-.563-1.25-1.25-1.25-.688 0-1.25.563-1.25 1.25V25c0 .438-.063.938.187 1.313.187.312.562.562.812.875.25.25.563.5.813.75.5.437 1.312.5 1.75 0 .437-.5.5-1.313 0-1.75-.375-.375-.688-.75-1.063-1.063Z" fill="#F16C22"/></symbol><symbol fill="none" viewBox="0 0 22 22" id="check-icon" xmlns="http://www.w3.org/2000/svg"><path d="M11.003 20.166c-5.042 0-9.167-4.125-9.167-9.166 0-5.042 4.125-9.167 9.167-9.167 5.041 0 9.166 4.125 9.166 9.167 0 5.041-4.125 9.166-9.166 9.166Zm0-16.5c-4.034 0-7.334 3.3-7.334 7.334 0 4.033 3.3 7.333 7.334 7.333 4.033 0 7.333-3.3 7.333-7.333 0-4.034-3.3-7.334-7.333-7.334Z" fill="#fff"/><path d="M10.266 14.667a.832.832 0 0 1-.642-.275l-3.208-3.117a.886.886 0 0 1 0-1.283.886.886 0 0 1 1.283 0l2.567 2.383 4.033-4.767c.367-.366.917-.458 1.283-.091.367.366.459.916.092 1.283l-4.583 5.5c-.275.275-.459.367-.825.367.091 0 .091 0 0 0Z" fill="#fff"/></symbol><symbol fill="none" viewBox="0 0 17 17" id="chevron-right" xmlns="http://www.w3.org/2000/svg"><g clip-path="url(#fa)"><path d="M13.347 8.5c0 .305-.117.61-.349.842l-7.31 7.31a1.19 1.19 0 0 1-1.683-1.684L10.473 8.5 4.005 2.032A1.19 1.19 0 0 1 5.69.35l7.31 7.31c.232.232.348.536.348.841Z" fill="#F16C22"/></g><defs><clipPath id="fa"><path fill="#fff" transform="rotate(-90 8.5 8.5)" d="M0 0h17v17H0z"/></clipPath></defs></symbol><symbol fill="none" viewBox="0 0 45 45" id="circle-check-icon" xmlns="http://www.w3.org/2000/svg"><path d="M22.5 41.25c-10.313 0-18.75-8.438-18.75-18.75 0-10.313 8.438-18.75 18.75-18.75 10.313 0 18.75 8.438 18.75 18.75 0 10.313-8.438 18.75-18.75 18.75Zm0-33.75c-8.25 0-15 6.75-15 15s6.75 15 15 15 15-6.75 15-15-6.75-15-15-15Z" fill="#F16C22"/><path d="M21 30c-.563 0-.938-.188-1.313-.563l-6.562-6.375c-.75-.75-.75-1.875 0-2.625s1.875-.75 2.625 0L21 25.312l8.25-9.75c.75-.75 1.875-.937 2.625-.187s.938 1.875.188 2.625l-9.376 11.25c-.562.562-.937.75-1.687.75.188 0 .188 0 0 0Z" fill="#F16C22"/></symbol><symbol fill="none" viewBox="0 0 25 25" id="close-icon" xmlns="http://www.w3.org/2000/svg"><g clip-path="url(#ha)"><path d="m14.79 12.52 9.735-9.734a1.617 1.617 0 0 0 0-2.29 1.618 1.618 0 0 0-2.29 0L12.5 10.23 2.765.495a1.618 1.618 0 0 0-2.29 0 1.617 1.617 0 0 0 0 2.29l9.735 9.736-9.735 9.734A1.617 1.617 0 0 0 1.62 25.02c.415 0 .83-.159 1.145-.475l9.735-9.734 9.735 9.734a1.615 1.615 0 0 0 1.145.475c.415 0 .83-.159 1.145-.475a1.617 1.617 0 0 0 0-2.29l-9.735-9.734Z" fill="#06214D"/></g><defs><clipPath id="ha"><path fill="#fff" d="M0 0h25v25H0z"/></clipPath></defs></symbol><symbol fill="none" viewBox="0 0 11 11" id="download-icon" xmlns="http://www.w3.org/2000/svg"><path d="M6.17.78v5.253L7.433 4.77a.674.674 0 0 1 .953.954L5.972 8.138a.674.674 0 0 1-.954 0L2.602 5.722a.674.674 0 1 1 .954-.953L4.82 6.033V.78a.674.674 0 0 1 1.35 0ZM.366 7.298v2.923a.674.674 0 0 0 .675.674h8.906a.674.674 0 0 0 .674-.674V7.298a.674.674 0 1 0-1.348 0v2.248H1.716V7.298a.674.674 0 1 0-1.349 0Z" fill="#fff"/></symbol><symbol fill="none" viewBox="0 0 293 183" id="footer-shape" xmlns="http://www.w3.org/2000/svg"><path d="M0 183V53C0 24.28 23.281 1 52 1h228.857c4.07-.086 7.957-.042 11.529-.001h.114-11.643C251.483 1.622 212.5 9.026 212.5 73.5c0 29-11.5 45.507-67.453 45.507C47.5 119.007 7.453 104.5 0 183Z" fill="currentColor"/></symbol><symbol fill="none" viewBox="0 0 23 24" id="gobbler" xmlns="http://www.w3.org/2000/svg"><g clip-path="url(#ka)"><circle cx="11.5" cy="12.501" r="9.5" fill="#fff"/><path d="M11.64.963C5.414.963.32 6.057.32 12.283c0 6.225 5.094 11.319 11.32 11.319 6.225 0 11.319-5.094 11.319-11.32 0-6.225-5.094-11.319-11.32-11.319Zm1.183 16.13h-2.418v-6.92h2.418v6.92Zm0-8.412h-2.418V7.163h2.418v1.518Z" fill="#F16C22"/></g><defs><clipPath id="ka"><path fill="#fff" transform="translate(.32 .963)" d="M0 0h22.639v22.639H0z"/></clipPath></defs></symbol><symbol fill="none" viewBox="0 0 25 23" id="icon-left" xmlns="http://www.w3.org/2000/svg"><path d="M7.95 12.939h15.926V9.319H7.948l5.316-5.327.254-.255.353-.354-.353-.353-.254-.255-1.341-1.344-.254-.254-.353-.354-.353.354-.254.254-9.07 9.09-.254.254-.353.354.353.354.254.254 9.07 9.09.254.254.353.354.353-.354.254-.255 1.341-1.343.254-.255.353-.354-.353-.354-.254-.254-5.316-5.327Z" fill="#F2F3F4" stroke="#F2F3F4"/></symbol><symbol fill="none" viewBox="0 0 25 23" id="icon-right" xmlns="http://www.w3.org/2000/svg"><path d="M16.488 12.939H.562V9.319h15.926l-5.316-5.327-.253-.255-.354-.354.354-.353.253-.255 1.342-1.344.253-.254.354-.354.353.354.254.254 9.07 9.09.253.254.353.354-.353.354-.254.254-9.07 9.09-.253.254-.354.354-.353-.354-.253-.255-1.341-1.343-.254-.255-.354-.354.354-.354.253-.254 5.316-5.327Z" fill="#F2F3F4" stroke="#F2F3F4"/></symbol><symbol fill="none" viewBox="0 0 30 30" id="in" xmlns="http://www.w3.org/2000/svg"><circle cx="15" cy="15" r="15" fill="#F16C22"/><path d="M20.197 20.22v-3.822c0-1.879-.405-3.313-2.596-3.313-1.057 0-1.76.573-2.048 1.121h-.026v-.952h-2.074v6.965h2.165v-3.456c0-.913.17-1.787 1.292-1.787 1.108 0 1.121 1.03 1.121 1.839v3.391h2.166v.013ZM9.938 13.254h2.165v6.966H9.938v-6.966ZM11.018 9.785c-.692 0-1.252.56-1.252 1.252 0 .691.56 1.265 1.252 1.265.691 0 1.252-.574 1.252-1.265 0-.692-.56-1.252-1.252-1.252Z" fill="#F2F3F4"/></symbol><symbol fill="none" viewBox="0 0 40 37" id="location" xmlns="http://www.w3.org/2000/svg"><path fill-rule="evenodd" clip-rule="evenodd" d="M20 2.917c-7.59 0-13.75 6.16-13.75 13.75 0 3.31 2.07 7.28 4.638 10.82 3.675 5.067 8.269 9.27 8.269 9.27a1.25 1.25 0 0 0 1.686 0s4.595-4.203 8.269-9.27c2.567-3.54 4.638-7.51 4.638-10.82 0-7.59-6.16-13.75-13.75-13.75Zm0 2.5c6.21 0 11.25 5.04 11.25 11.25 0 2.877-1.93 6.275-4.162 9.353-2.583 3.561-5.639 6.677-7.088 8.089-1.45-1.412-4.505-4.528-7.088-8.089-2.233-3.078-4.162-6.476-4.162-9.353 0-6.21 5.04-11.25 11.25-11.25Zm0 4.167a7.087 7.087 0 0 0-7.083 7.083A7.087 7.087 0 0 0 20 23.75a7.087 7.087 0 0 0 7.083-7.083A7.087 7.087 0 0 0 20 9.584Zm0 2.5a4.585 4.585 0 0 1 4.583 4.583A4.585 4.585 0 0 1 20 21.25a4.585 4.585 0 0 1-4.583-4.583A4.585 4.585 0 0 1 20 12.084Z" fill="#F16C22"/></symbol><symbol fill="none" viewBox="0 0 141 65" id="logo" xmlns="http://www.w3.org/2000/svg"><path d="M3.933 56.851c1.097 0 1.92.372 2.652 1.022a.143.143 0 0 1 0 .186l-.183.186a.138.138 0 0 1-.183 0c-.64-.557-1.417-.93-2.286-.93-1.92 0-3.384 1.58-3.384 3.485 0 1.905 1.509 3.484 3.384 3.484.96 0 1.646-.371 2.286-.929a.137.137 0 0 1 .183 0l.183.186c.046.046.046.14 0 .186-.732.743-1.692 1.068-2.652 1.068C1.738 64.795 0 63.03 0 60.8c0-2.137 1.783-3.949 3.933-3.949ZM14.768 60.986l-2.79-3.81c-.045-.092 0-.185.092-.185h.32c.046 0 .092 0 .138.046l2.469 3.438 2.515-3.438c.046-.046.092-.046.137-.046h.32c.092 0 .138.093.092.186l-2.835 3.81v3.623c0 .093-.046.14-.138.14-.137 0-.365.046-.365-.14v-3.624h.045ZM24.094 57.13c0-.093.046-.139.137-.139h2.332c1.326 0 2.24.79 2.24 1.998 0 .882-.502 1.533-1.188 1.811.777.233 1.418.79 1.418 1.858 0 1.255-.96 2.091-2.378 2.091H24.23c-.091 0-.137-.046-.137-.14V57.13Zm2.606 7.154c1.052 0 1.784-.696 1.784-1.672s-.823-1.58-1.875-1.58H24.55v3.206h2.15v.046Zm-.091-3.716c1.006 0 1.646-.65 1.646-1.58 0-.975-.64-1.532-1.692-1.532h-1.966v3.112h2.012ZM35.664 57.13c0-.093.046-.139.137-.139h4.39c.092 0 .137.046.137.14v.185c0 .093-.045.14-.137.14h-3.978v3.066h3.475c.092 0 .137.046.137.139v.186c0 .093-.045.14-.137.14h-3.475v3.297h3.978c.092 0 .137.047.137.14v.186c0 .093-.045.14-.137.14h-4.39c-.091 0-.137-.047-.137-.14v-7.48ZM47.008 57.13c0-.093.045-.139.137-.139h2.698c1.326 0 2.424 1.022 2.424 2.37 0 1.114-.778 1.997-1.784 2.322l1.6 2.88c.047.093.047.186-.09.186h-.32c-.092 0-.138-.046-.138-.093l-1.6-2.88H47.51v2.834c0 .093-.046.14-.183.14h-.183c-.092 0-.137-.047-.137-.14v-7.48Zm2.835 4.135c1.052 0 1.92-.836 1.92-1.951 0-1.069-.868-1.858-1.92-1.858h-2.286v3.809h2.286ZM58.44 63.678l.092-.14c.091-.092.137-.139.229-.046.091.093.914.836 2.012.836 1.006 0 1.829-.697 1.829-1.486 0-.976-.777-1.44-2.104-1.905-1.28-.465-2.103-.93-2.103-2.183 0-.837.64-1.951 2.378-1.951 1.097 0 1.875.557 1.875.557.045.046.137.093.045.232-.045.047-.045.093-.091.14-.046.093-.137.139-.229.046-.045 0-.777-.511-1.6-.511-1.327 0-1.83.836-1.83 1.487 0 .929.686 1.347 1.83 1.718 1.509.511 2.423 1.069 2.423 2.323 0 1.115-1.143 1.951-2.378 1.951-1.28 0-2.149-.79-2.332-.929-.091.047-.137 0-.045-.14ZM69.594 57.13c0-.093.046-.139.137-.139h4.39c.091 0 .137.046.137.14v.185c0 .093-.046.14-.137.14h-3.978v3.066h3.475c.091 0 .137.046.137.139v.186c0 .093-.046.14-.137.14h-3.475v3.297h3.978c.091 0 .137.047.137.14v.186c0 .093-.046.14-.137.14h-4.39c-.091 0-.137-.047-.137-.14v-7.48ZM84.316 56.852c1.098 0 1.921.372 2.653 1.023.046.046.046.139 0 .185l-.183.186a.137.137 0 0 1-.183 0c-.64-.557-1.418-.929-2.287-.929-1.92 0-3.384 1.58-3.384 3.484 0 1.905 1.51 3.484 3.384 3.484.96 0 1.647-.371 2.287-.929a.138.138 0 0 1 .183 0l.183.186a.143.143 0 0 1 0 .186c-.732.743-1.692 1.068-2.653 1.068-2.195 0-3.932-1.765-3.932-3.995-.046-2.137 1.737-3.949 3.932-3.949ZM93.46 57.13c0-.093.047-.139.138-.139h.229c.091 0 .137.046.137.14v4.738c0 1.44.869 2.462 2.332 2.462 1.463 0 2.378-1.022 2.378-2.462V57.13c0-.093.046-.139.137-.139h.229c.091 0 .137.046.137.14v4.784c0 1.673-1.143 2.927-2.88 2.927-1.739 0-2.836-1.254-2.836-2.927V57.13ZM106.18 57.13c0-.093.045-.139.137-.139h2.698c1.326 0 2.424 1.022 2.424 2.37 0 1.114-.778 1.997-1.784 2.322l1.601 2.88c.045.093.045.186-.092.186h-.32c-.091 0-.137-.046-.137-.093l-1.601-2.88h-2.423v2.834c0 .093-.046.14-.183.14h-.183c-.092 0-.137-.047-.137-.14v-7.48Zm2.835 4.135c1.052 0 1.921-.836 1.921-1.951 0-1.069-.869-1.858-1.921-1.858h-2.287v3.809h2.287ZM118.078 57.13c0-.093.046-.139.137-.139h.229c.091 0 .137.046.137.14v7.479c0 .093-.091.14-.137.14h-.229c-.091 0-.137-.047-.137-.14v-7.48ZM126.897 57.452h-2.104c-.091 0-.137-.046-.137-.186v-.186c0-.093.046-.14.137-.14h4.711c.091 0 .137.047.137.14v.186c0 .093-.046.14-.137.14H127.4v7.2c0 .093-.046.14-.183.14h-.183c-.091 0-.137-.047-.137-.14v-7.154ZM137.692 60.986l-2.79-3.81c-.045-.092-.045-.185.092-.185h.32c.046 0 .091 0 .137.046l2.47 3.438 2.515-3.438c.045-.046.091-.046.137-.046h.32c.091 0 .137.093.091.186l-2.835 3.81v3.623c0 .093-.046.14-.137.14-.137 0-.366.046-.366-.14v-3.624h.046Z" fill="#000" opacity=".9"/><path d="m115.837 44.04-1.784-2.833-20.075-30.94c-.869-1.347-2.47-2.137-4.161-2.137-1.692 0-3.293.837-4.162 2.137L75.641 25.691l.182.139a14.012 14.012 0 0 1 5.122 7.758c.046.093.046.186.046.279l.137.557 8.643-13.379 14.999 23.088c3.476 5.529 4.162 5.854 7.043 5.854h7.865l-3.841-5.946ZM30.822 6.039h2.79c.137 0 .228-.093.228-.233V3.018c0-.139-.09-.232-.228-.232h-2.79c-.137 0-.228.093-.228.232v2.788c.046.14.137.233.228.233ZM28.265 1.162h.777c.092 0 .183-.093.183-.186v-.79c0-.093-.091-.186-.183-.186h-.777c-.091 0-.183.093-.183.186v.79c-.046.093.046.186.183.186ZM23.051 1.766h.87c.09 0 .136-.093.136-.14V.743c0-.093-.091-.139-.137-.139h-.869c-.091 0-.137.093-.137.14v.882c0 .047.046.14.137.14ZM22.503 5.435v-.79c0-.093-.092-.186-.183-.186h-.778c-.091 0-.183.093-.183.186v.79c0 .093.092.186.183.186h.778c.091 0 .183-.093.183-.186ZM22.823 9.57h1.19c.091 0 .182-.094.182-.186V8.175c0-.093-.091-.186-.183-.186h-1.189c-.09 0-.182.093-.182.186v1.209c0 .092.091.185.183.185ZM28.405 10.966c.091 0 .183-.093.183-.186V9.014c0-.092-.091-.185-.183-.185h-1.738c-.091 0-.183.093-.183.185v1.766c0 .093.092.186.183.186h1.738ZM28.442 14.774h-2.698L24.51 13.52v-1.673c0-.093-.092-.186-.183-.186h-1.738c-.091 0-.183.093-.183.186v1.766c0 .092.092.185.183.185h1.6l1.235 1.255v2.74c0 .093.092.186.183.186h2.835c.092 0 .183-.093.183-.185v-2.88c0-.047-.091-.14-.183-.14ZM27.398 20.767h-2.104L24.242 19.7v-.836c0-.093-.045-.14-.137-.14h-.96c-.091 0-.137.047-.137.14v.975c0 .093.046.14.137.14h.823l1.052 1.068v2.137c0 .093.046.14.137.14h2.24c.092 0 .138-.047.138-.14v-2.276c0-.093-.046-.14-.137-.14Z" fill="#F16C22"/><path d="M35.128 8.316h-4.802l-3.063-3.113V2.741c0-.14-.092-.232-.229-.232h-2.47c-.137 0-.228.093-.228.232V5.25c0 .14.091.232.229.232h2.377l3.064 3.113v37.257c0 2.323 1.875 4.181 4.116 4.181h5.167V12.497a4.17 4.17 0 0 0-4.16-4.181ZM67.227 24.39h-13.81c-1.783 0-3.247-1.486-3.247-3.298s1.464-3.299 3.247-3.299h21.767c2.561 0 4.665-2.137 4.665-4.738V8.316H53.418c-6.952 0-12.622 5.76-12.622 12.822 0 1.161.137 2.23.411 3.298 1.418 5.482 6.357 9.524 12.164 9.524h13.81c1.784 0 3.248 1.486 3.248 3.298v.279c0 .046 0 .14-.046.186v.046c-.229 1.58-1.6 2.788-3.201 2.788H40.75v9.523h26.386c6.95 0 12.621-5.76 12.621-12.822 0-1.161-.137-2.23-.411-3.298-1.372-5.528-6.265-9.57-12.119-9.57Z" fill="#F16C22"/></symbol><symbol fill="none" viewBox="0 0 17 18" id="play-icon" xmlns="http://www.w3.org/2000/svg"><path d="M15.844 7.25c1.374.762 1.374 2.738 0 3.5L3.22 17.745c-1.333.74-2.97-.225-2.97-1.749V2.003C.25.479 1.887-.485 3.22.253l12.624 6.998Z" fill="#fff"/></symbol><symbol fill="none" viewBox="0 0 112 112" id="qoute" xmlns="http://www.w3.org/2000/svg"><path d="M30.337 14c14.906 0 25.667 12.306 25.666 30.528-.095 26.474-19.998 45.193-48.71 48.787-2.663.334-3.69-3.356-1.237-4.447 11.017-4.899 16.58-11.115 17.3-17.268.536-4.597-1.963-8.624-5.1-9.378C10.12 60.267 4.67 50.137 4.67 39.667 4.67 25.49 16.162 14 30.337 14ZM86.337 14c14.906 0 25.667 12.306 25.666 30.528-.095 26.474-19.998 45.193-48.71 48.787-2.663.334-3.69-3.356-1.237-4.447 11.017-4.899 16.58-11.115 17.3-17.268.536-4.597-1.963-8.624-5.1-9.378C66.12 60.267 60.67 50.137 60.67 39.667 60.67 25.49 72.162 14 86.337 14Z" fill="#000" fill-opacity=".07"/></symbol><symbol fill="none" viewBox="0 0 25 25" id="search-icon" xmlns="http://www.w3.org/2000/svg"><path d="m23.212 22.104-5.12-5.119a9.396 9.396 0 1 0-1.104 1.105l5.119 5.119a.781.781 0 0 0 1.105-1.105ZM3.128 10.937a7.812 7.812 0 1 1 7.813 7.813 7.821 7.821 0 0 1-7.813-7.813Z" fill="#fff"/></symbol><symbol fill="none" viewBox="0 0 170 83" id="shape-bottom-left-long" xmlns="http://www.w3.org/2000/svg"><path d="M149.604 83 170 82.958h-23.224c-8.325-.293-17.807-2.533-17.807-18.436 0-16.903 2.159-29.498 0-35.029-3.37-8.63-11.518-8.299-20.503-8.299H22.672C4.24 21.194.667 8.49.096 1.493V.918C.096.628.036.62.055.909c.011.19.025.385.041.584v49.465c0 17.673 14.327 32 32 32h114.68c.964.034 1.912.042 2.828.042Z" fill="#C62C2C"/></symbol><symbol fill="none" viewBox="0 0 13 13" id="swiper-arrow-left" xmlns="http://www.w3.org/2000/svg"><path d="M4.938 7.391H11.895V5.187H4.939l1.988-1.988.117-.117.353-.354-.353-.354-.117-.116-.618-.618-.117-.117-.354-.354-.353.354-.117.117-4.18 4.179-.116.117-.354.353.354.354.117.117 4.179 4.179.117.117.353.353.354-.353.117-.117.618-.618.117-.117.353-.354-.353-.353-.117-.117L4.938 7.39Z" fill="#F2F3F4" stroke="#F2F3F4"/></symbol><symbol fill="none" viewBox="0 0 13 13" id="swiper-arrow-right" xmlns="http://www.w3.org/2000/svg"><path d="M8.062 7.391H1.106V5.187H8.06L6.074 3.199l-.117-.117-.353-.354.353-.354.117-.116.618-.618.117-.117.354-.354.353.354.117.117 4.18 4.179.116.117.354.353-.354.354-.117.117-4.179 4.179-.117.117-.353.353-.354-.353-.117-.117-.618-.618-.117-.117-.353-.354.353-.353.117-.117L8.062 7.39Z" fill="#F2F3F4" stroke="#F2F3F4"/></symbol><symbol fill="none" viewBox="0 0 40 40" id="time" xmlns="http://www.w3.org/2000/svg"><path d="M20.003 3.333C10.813 3.333 3.336 10.81 3.336 20c0 9.19 7.477 16.666 16.667 16.666 9.19 0 16.666-7.476 16.666-16.666 0-9.19-7.476-16.667-16.666-16.667Zm0 30C12.65 33.333 6.669 27.351 6.669 20c0-7.352 5.982-13.334 13.334-13.334 7.351 0 13.333 5.982 13.333 13.334 0 7.351-5.982 13.333-13.333 13.333ZM26.669 20a1.667 1.667 0 0 1-1.666 1.666h-5A1.667 1.667 0 0 1 18.336 20v-6.667a1.667 1.667 0 0 1 3.333 0v5h3.334A1.666 1.666 0 0 1 26.669 20Z" fill="#F16C22"/></symbol><symbol fill="none" viewBox="0 0 132 109" id="top-card-shape" xmlns="http://www.w3.org/2000/svg"><path d="M26.5 77.5C10.715 79.257 0 92.014 0 109V32C0 14.327 14.327 0 32 0h99.5c-21.046 0-31.683 18.344-31 32 2 40-18.43 42.786-22 43.5-15 3-30.954-.343-52 2Z" fill="currentColor"/></symbol><symbol fill="none" viewBox="0 0 66 66" id="warning-icon" xmlns="http://www.w3.org/2000/svg"><path d="M59.849 47.602c-1.28-2.722-2.814-6.187-4.604-9.404-1.787-3.465-3.578-6.683-5.115-9.653C47.064 23.1 42.205 16.17 38.627 11.22 37.345 9.488 35.299 8.25 33 8.25s-4.345.99-5.626 2.97c-3.578 4.95-8.179 11.88-11.506 17.325-3.325 5.692-7.158 13.612-9.716 19.057-1.023 1.98-.77 4.456.256 6.188 1.279 1.98 3.325 2.97 5.624 3.218 6.138.247 14.575.742 20.968.742 6.394 0 15.087-.495 20.97-.742 2.3 0 4.344-1.238 5.623-3.218 1.023-1.733 1.279-4.207.256-6.188Zm-28.895-18.81c0-.99.77-1.98 2.046-1.98 1.276 0 2.046.743 2.046 1.98v9.9c0 .99-.77 1.98-2.046 1.98-1.276 0-2.046-.742-2.046-1.98v-9.9ZM33 48.593c-1.278 0-2.557-1.237-2.557-2.474 0-1.238 1.279-2.476 2.557-2.476 1.28 0 2.558 1.238 2.558 2.475 0 1.238-1.279 2.476-2.558 2.476Z" fill="#EFFAFE"/></symbol><symbol fill="none" viewBox="0 0 47 47" id="warning-icon-2" xmlns="http://www.w3.org/2000/svg"><path d="M42.617 33.899c-.91-1.939-2.003-4.407-3.278-6.698-1.273-2.467-2.548-4.759-3.643-6.873-2.183-3.878-5.644-8.813-8.192-12.338-.912-1.234-2.37-2.115-4.006-2.115-1.638 0-3.095.705-4.007 2.115-2.548 3.525-5.824 8.46-8.194 12.338C8.93 24.38 6.2 30.02 4.378 33.898c-.728 1.41-.548 3.173.183 4.407.91 1.41 2.367 2.115 4.004 2.291 4.371.177 10.38.529 14.933.529 4.553 0 10.743-.352 14.932-.529 1.64 0 3.094-.881 4.005-2.291.728-1.234.91-2.996.182-4.406ZM22.04 20.504c0-.705.548-1.41 1.457-1.41.908 0 1.457.528 1.457 1.41v7.05c0 .705-.549 1.41-1.457 1.41-.909 0-1.457-.529-1.457-1.41v-7.05Zm1.457 14.1c-.911 0-1.822-.882-1.822-1.763 0-.881.911-1.762 1.822-1.762.91 0 1.82.881 1.82 1.762s-.91 1.763-1.82 1.763Z" fill="#EFFAFE"/></symbol></svg>