<svg width="30" height="30" viewBox="0 0 30 30" fill="none" xmlns="http://www.w3.org/2000/svg">
<path d="M30 9.70465C30 6.30012 27.2302 3.53027 23.8256 3.53027C21.3667 3.53027 19.2392 4.97525 18.2469 7.06055H0V26.4697H26.4697V15.2834C28.555 14.2911 30 12.1635 30 9.70465ZM18.5135 12.8481L13.2349 17.3726L3.25482 8.81836H17.7152C17.6734 9.10787 17.6513 9.40371 17.6513 9.70465C17.6513 10.8519 17.9661 11.9268 18.5135 12.8481ZM9.825 16.7651L1.75781 23.6799V9.85037L9.825 16.7651ZM11.1755 17.9227L13.2349 19.6879L15.2942 17.9227L23.2149 24.7119H3.25477L11.1755 17.9227ZM24.7119 23.6799L16.6447 16.7651L19.6168 14.2177C20.7204 15.2476 22.2006 15.879 23.8256 15.879C24.1266 15.879 24.4224 15.8569 24.7119 15.8151V23.6799ZM23.8256 14.1212C21.3904 14.1212 19.4091 12.1399 19.4091 9.70465C19.4091 7.26938 21.3904 5.28809 23.8256 5.28809C26.2609 5.28809 28.2422 7.26932 28.2422 9.70465C28.2422 12.1399 26.261 14.1212 23.8256 14.1212Z" fill="white"/>
<path d="M22.1172 8.81836H22.9448V12.3486H24.7026V7.06055H22.1172V8.81836Z" fill="white"/>
</svg>
