<svg width="49" height="49" viewBox="0 0 49 49" fill="none" xmlns="http://www.w3.org/2000/svg">
<path d="M45.9387 6.28323C45.9481 5.85793 45.8708 5.43517 45.7116 5.04066C45.5525 4.64615 45.3147 4.28814 45.0128 3.9884C44.3983 3.37385 43.5755 3.07067 42.719 3.0625C38.0661 3.15131 29.4084 4.15275 23.7019 9.86023C22.0523 11.5099 20.0872 13.8292 18.1159 16.4099C15.6241 16.2175 13.1194 16.544 10.7602 17.3688C8.40096 18.1936 6.23842 19.4987 4.40919 21.2017C4.09395 21.4932 3.87441 21.8734 3.77947 22.2922C3.68453 22.7109 3.71865 23.1486 3.87734 23.5476C4.04026 23.9611 4.32478 24.3154 4.69331 24.5638C5.06183 24.8123 5.49704 24.9431 5.94146 24.939C7.94334 24.9255 9.94049 25.135 11.896 25.5637C10.625 27.7095 9.56542 29.7471 8.89167 31.4672C8.67207 32.0382 8.62367 32.6609 8.75239 33.259C8.88112 33.8571 9.18139 34.4048 9.61646 34.8349L14.1653 39.3827C14.7758 39.9952 15.5883 40.3219 16.4101 40.3219C16.7888 40.3219 17.1706 40.2525 17.5351 40.1086C19.2552 39.4348 21.2928 38.3752 23.4385 37.1053C23.867 39.0642 24.0765 41.0648 24.0633 43.07C24.0603 43.6512 24.288 44.2099 24.6964 44.6234C25.1048 45.037 25.6605 45.2717 26.2418 45.276C26.8206 45.276 27.3861 45.0382 27.8016 44.5921C29.505 42.7633 30.8103 40.601 31.6351 38.2418C32.4599 35.8827 32.7862 33.3781 32.5934 30.8863C35.174 28.9161 37.4934 26.951 39.143 25.3003C44.8495 19.5939 45.8509 10.9362 45.9408 6.28425L45.9387 6.28323ZM42.7578 5.10417H42.7793C43.0763 5.10417 43.355 5.22054 43.5673 5.43288C43.7848 5.65031 43.9022 5.93819 43.896 6.24342C43.8634 7.97781 43.6633 10.9964 42.814 14.2559C39.2887 12.5554 36.4438 9.71048 34.7433 6.18523C38.0028 5.33692 41.0224 5.13683 42.7568 5.10315L42.7578 5.10417ZM6.16911 22.8963C6.0119 22.8963 5.82713 22.93 5.77609 22.7983C5.75465 22.7442 5.772 22.7227 5.80161 22.6942C8.74644 19.947 12.6167 18.4078 16.6439 18.3821C15.3771 20.1243 14.1675 21.9073 13.0169 23.7283C10.7751 23.1799 8.47597 22.9003 6.16809 22.8953L6.16911 22.8963ZM26.3081 43.1986C26.2785 43.2292 26.2581 43.2446 26.203 43.2252C26.1725 43.2144 26.1465 43.194 26.1286 43.1671C26.1107 43.1403 26.1021 43.1083 26.1039 43.0761C26.1188 40.6863 25.839 38.3037 25.2709 35.9823C27.0926 34.8317 28.8762 33.6221 30.6191 32.3553C30.5943 36.3827 29.055 40.2533 26.3071 43.1976L26.3081 43.1986ZM16.7899 38.2078C16.5884 38.2828 16.3694 38.2974 16.1597 38.2497C15.9501 38.202 15.7589 38.0941 15.6098 37.9393L11.0609 33.3904C10.9066 33.2412 10.7991 33.0502 10.7516 32.8408C10.7041 32.6313 10.7186 32.4126 10.7935 32.2114C13.172 26.1405 20.4618 15.9863 25.1454 11.3037C27.332 9.11706 30.0638 7.70423 32.7741 6.78242C34.7023 10.9513 38.0499 14.2989 42.2188 16.2272C41.297 18.9375 39.8842 21.6692 37.6975 23.8559C33.014 28.5394 22.8608 35.8292 16.7899 38.2078ZM9.91046 39.0908C9.81574 38.9959 9.70324 38.9206 9.5794 38.8693C9.45556 38.8179 9.3228 38.7915 9.18873 38.7915C9.05466 38.7915 8.92191 38.8179 8.79807 38.8693C8.67422 38.9206 8.56172 38.9959 8.467 39.0908L3.36284 44.1949C3.26806 44.2897 3.19287 44.4022 3.14158 44.5261C3.09029 44.6499 3.06389 44.7826 3.06389 44.9167C3.06389 45.0507 3.09029 45.1834 3.14158 45.3073C3.19287 45.4311 3.26806 45.5436 3.36284 45.6384C3.45762 45.7332 3.57013 45.8084 3.69397 45.8597C3.8178 45.911 3.95053 45.9374 4.08457 45.9374C4.2186 45.9374 4.35133 45.911 4.47516 45.8597C4.599 45.8084 4.71152 45.7332 4.80629 45.6384L9.91046 40.5342C10.0053 40.4395 10.0806 40.327 10.132 40.2032C10.1833 40.0793 10.2098 39.9466 10.2098 39.8125C10.2098 39.6784 10.1833 39.5457 10.132 39.4218C10.0806 39.298 10.0053 39.1855 9.91046 39.0908ZM11.5295 42.1523L9.48784 44.1949C9.39306 44.2897 9.31787 44.4022 9.26658 44.5261C9.21529 44.6499 9.18889 44.7826 9.18889 44.9167C9.18889 45.0507 9.21529 45.1834 9.26658 45.3073C9.31787 45.4311 9.39306 45.5436 9.48784 45.6384C9.58262 45.7332 9.69513 45.8084 9.81897 45.8597C9.9428 45.911 10.0755 45.9374 10.2096 45.9374C10.3436 45.9374 10.4763 45.911 10.6002 45.8597C10.724 45.8084 10.8365 45.7332 10.9313 45.6384L12.973 43.5957C13.0677 43.5009 13.1429 43.3884 13.1942 43.2646C13.2455 43.1408 13.2719 43.008 13.2719 42.874C13.2719 42.74 13.2455 42.6072 13.1942 42.4834C13.1429 42.3596 13.0677 42.247 12.973 42.1523C12.8782 42.0575 12.7657 41.9823 12.6418 41.931C12.518 41.8797 12.3853 41.8533 12.2512 41.8533C12.1172 41.8533 11.9845 41.8797 11.8606 41.931C11.7368 41.9823 11.6243 42.0575 11.5295 42.1523ZM4.08457 39.8115C4.21864 39.8116 4.35142 39.7853 4.47527 39.7339C4.59913 39.6826 4.71162 39.6073 4.80629 39.5124L6.84796 37.4717C6.94274 37.377 7.01792 37.2644 7.06922 37.1406C7.12051 37.0168 7.14691 36.884 7.14691 36.75C7.14691 36.616 7.12051 36.4832 7.06922 36.3594C7.01792 36.2356 6.94274 36.1231 6.84796 36.0283C6.75318 35.9335 6.64066 35.8583 6.51683 35.807C6.39299 35.7557 6.26027 35.7293 6.12623 35.7293C5.99219 35.7293 5.85947 35.7557 5.73564 35.807C5.6118 35.8583 5.49928 35.9335 5.4045 36.0283L3.36284 38.0689C3.21961 38.2115 3.12198 38.3934 3.08233 38.5916C3.04267 38.7897 3.06279 38.9952 3.14012 39.1819C3.21745 39.3686 3.34851 39.5281 3.51666 39.6402C3.68481 39.7523 3.88248 39.8119 4.08457 39.8115Z" fill="#1F245A"/>
<path d="M30.6224 14.2915C28.3704 14.2915 26.5391 16.1229 26.5391 18.3748C26.5391 20.6268 28.3704 22.4582 30.6224 22.4582C32.8744 22.4582 34.7057 20.6268 34.7057 18.3748C34.7057 16.1229 32.8744 14.2915 30.6224 14.2915ZM30.6224 20.4165C29.4964 20.4165 28.5807 19.5008 28.5807 18.3748C28.5807 17.2489 29.4964 16.3332 30.6224 16.3332C31.7484 16.3332 32.6641 17.2489 32.6641 18.3748C32.6641 19.5008 31.7484 20.4165 30.6224 20.4165Z" fill="#1F245A"/>
</svg>
