<svg width="45" height="45" viewBox="0 0 45 45" fill="none" xmlns="http://www.w3.org/2000/svg">
<path fill-rule="evenodd" clip-rule="evenodd" d="M9.84375 19.6875H9.4303C9.32765 19.6875 9.23485 19.6327 9.18423 19.5427L7.71609 16.8989C8.16891 16.3069 8.4375 15.5672 8.4375 14.7656C8.4375 12.825 6.8625 11.25 4.92188 11.25C2.98125 11.25 1.40625 12.825 1.40625 14.7656C1.40625 16.7063 2.98125 18.2812 4.92188 18.2812C5.03437 18.2812 5.14687 18.2756 5.25797 18.2658L6.7261 20.9081C7.25485 21.8602 8.24203 22.462 9.32484 22.4986H9.84375V25.3125H8.14501C7.6022 24.0708 6.36188 23.2031 4.92188 23.2031C2.98125 23.2031 1.40625 24.7781 1.40625 26.7188C1.40625 28.6594 2.98125 30.2344 4.92188 30.2344C6.36188 30.2344 7.6022 29.3667 8.14501 28.125H9.84375V30.9389L9.4303 30.9375C8.30671 30.9375 7.27173 31.5464 6.7261 32.5294L5.25797 35.1717C5.14687 35.1619 5.03437 35.1562 4.92188 35.1562C2.98125 35.1562 1.40625 36.7313 1.40625 38.6719C1.40625 40.6125 2.98125 42.1875 4.92188 42.1875C6.8625 42.1875 8.4375 40.6125 8.4375 38.6719C8.4375 37.8703 8.16891 37.1306 7.71609 36.5386L9.18423 33.8948C9.23485 33.8048 9.32765 33.75 9.4303 33.75H9.84375V34.875C9.84375 36.5836 11.2289 37.9688 12.9375 37.9688H32.0625C33.7711 37.9688 35.1562 36.5836 35.1562 34.875V33.75H35.5697C35.6724 33.75 35.7651 33.8048 35.8158 33.8948L37.2839 36.5386C36.8311 37.1306 36.5625 37.8703 36.5625 38.6719C36.5625 40.6125 38.1375 42.1875 40.0781 42.1875C42.0187 42.1875 43.5938 40.6125 43.5938 38.6719C43.5938 36.7313 42.0187 35.1562 40.0781 35.1562C39.9656 35.1562 39.8531 35.1619 39.742 35.1717L38.2739 32.5294C37.7283 31.5464 36.6933 30.9375 35.5697 30.9375H35.1562V28.125H36.855C37.3978 29.3667 38.6381 30.2344 40.0781 30.2344C42.0187 30.2344 43.5938 28.6594 43.5938 26.7188C43.5938 24.7781 42.0187 23.2031 40.0781 23.2031C38.6381 23.2031 37.3978 24.0708 36.855 25.3125H35.1562V22.5H35.5697C36.6933 22.5 37.7283 21.8911 38.2739 20.9081L39.742 18.2658C39.8531 18.2756 39.9656 18.2812 40.0781 18.2812C42.0187 18.2812 43.5938 16.7063 43.5938 14.7656C43.5938 12.825 42.0187 11.25 40.0781 11.25C38.1375 11.25 36.5625 12.825 36.5625 14.7656C36.5625 15.5672 36.8311 16.3069 37.2839 16.8989L35.8158 19.5427C35.7651 19.6327 35.6724 19.6875 35.5697 19.6875H35.1562V18.5625C35.1562 16.8539 33.7711 15.4688 32.0625 15.4688H29.5312V9.84375C29.5312 7.97906 28.7902 6.19031 27.4725 4.87125C26.1535 3.55359 24.3647 2.8125 22.5 2.8125C18.6173 2.8125 15.4688 5.96109 15.4688 9.84375V11.25C15.4688 12.0262 16.0988 12.6562 16.875 12.6562C17.6513 12.6562 18.2812 12.0262 18.2812 11.25V9.84375C18.2812 7.51359 20.1698 5.625 22.5 5.625C23.6194 5.625 24.6923 6.06937 25.4827 6.86109C26.2744 7.6514 26.7188 8.72437 26.7188 9.84375V15.4688H12.9375C11.2289 15.4688 9.84375 16.8539 9.84375 18.5625V19.6875ZM5.625 38.6719C5.625 39.06 5.31 39.375 4.92188 39.375C4.53375 39.375 4.21875 39.06 4.21875 38.6719C4.21875 38.2837 4.53375 37.9688 4.92188 37.9688C5.31 37.9688 5.625 38.2837 5.625 38.6719ZM39.375 38.6719C39.375 38.2837 39.69 37.9688 40.0781 37.9688C40.4663 37.9688 40.7812 38.2837 40.7812 38.6719C40.7812 39.06 40.4663 39.375 40.0781 39.375C39.69 39.375 39.375 39.06 39.375 38.6719ZM32.3438 18.5625V34.875C32.3438 35.0297 32.2172 35.1562 32.0625 35.1562H12.9375C12.7828 35.1562 12.6562 35.0297 12.6562 34.875V18.5625C12.6562 18.4078 12.7828 18.2812 12.9375 18.2812H32.0625C32.2172 18.2812 32.3438 18.4078 32.3438 18.5625ZM5.625 26.7188C5.625 27.1069 5.31 27.4219 4.92188 27.4219C4.53375 27.4219 4.21875 27.1069 4.21875 26.7188C4.21875 26.3306 4.53375 26.0156 4.92188 26.0156C5.31 26.0156 5.625 26.3306 5.625 26.7188ZM39.375 26.7188C39.375 26.3306 39.69 26.0156 40.0781 26.0156C40.4663 26.0156 40.7812 26.3306 40.7812 26.7188C40.7812 27.1069 40.4663 27.4219 40.0781 27.4219C39.69 27.4219 39.375 27.1069 39.375 26.7188ZM5.625 14.7656C5.625 15.1538 5.31 15.4688 4.92188 15.4688C4.53375 15.4688 4.21875 15.1538 4.21875 14.7656C4.21875 14.3775 4.53375 14.0625 4.92188 14.0625C5.31 14.0625 5.625 14.3775 5.625 14.7656ZM39.375 14.7656C39.375 14.3775 39.69 14.0625 40.0781 14.0625C40.4663 14.0625 40.7812 14.3775 40.7812 14.7656C40.7812 15.1538 40.4663 15.4688 40.0781 15.4688C39.69 15.4688 39.375 15.1538 39.375 14.7656Z" fill="white"/>
<path fill-rule="evenodd" clip-rule="evenodd" d="M21.0938 29.2908V30.9375C21.0938 31.7137 21.7238 32.3438 22.5 32.3438C23.2762 32.3438 23.9062 31.7137 23.9062 30.9375V29.2908C25.5445 28.7114 26.7188 27.1477 26.7188 25.3125C26.7188 22.9837 24.8288 21.0938 22.5 21.0938C20.1712 21.0938 18.2812 22.9837 18.2812 25.3125C18.2812 27.1477 19.4555 28.7114 21.0938 29.2908ZM22.5 23.9062C23.2762 23.9062 23.9062 24.5363 23.9062 25.3125C23.9062 26.0887 23.2762 26.7188 22.5 26.7188C21.7238 26.7188 21.0938 26.0887 21.0938 25.3125C21.0938 24.5363 21.7238 23.9062 22.5 23.9062Z" fill="white"/>
</svg>
