<svg width="45" height="45" viewBox="0 0 45 45" fill="none" xmlns="http://www.w3.org/2000/svg">
<path d="M40.2872 21.5999C40.7874 21.0745 41.1351 20.4228 41.2931 19.7148C41.451 19.0068 41.4133 18.2692 41.1839 17.581C40.9545 16.8928 40.5421 16.28 39.9909 15.8084C39.4398 15.3368 38.7706 15.0241 38.0552 14.9039L29.9012 13.6619C29.8462 13.652 29.7945 13.6288 29.7506 13.5942C29.7067 13.5597 29.6718 13.515 29.6492 13.4639L26.0492 5.8319C25.7448 5.13002 25.2419 4.53243 24.6022 4.11265C23.9626 3.69288 23.2143 3.46924 22.4492 3.46924C21.6842 3.46924 20.9358 3.69288 20.2962 4.11265C19.6566 4.53243 19.1536 5.13002 18.8492 5.8319L15.2492 13.4639C15.2266 13.515 15.1918 13.5597 15.1478 13.5942C15.1039 13.6288 15.0522 13.652 14.9972 13.6619L6.84322 14.9039C6.13673 15.0397 5.48001 15.3637 4.94237 15.8418C4.40474 16.3198 4.00612 16.9341 3.7886 17.6198C3.57107 18.3056 3.54272 19.0373 3.70651 19.7379C3.87031 20.4384 4.22019 21.0817 4.71922 21.5999L10.8032 27.8459C10.8245 27.8941 10.8356 27.9462 10.8356 27.9989C10.8356 28.0516 10.8245 28.1037 10.8032 28.1519L9.39922 36.7919C9.28081 37.5241 9.3704 38.2748 9.65779 38.9585C9.94519 39.6423 10.4188 40.2316 11.0248 40.6593C11.6307 41.087 12.3446 41.336 13.0851 41.3778C13.8256 41.4196 14.563 41.2527 15.2132 40.8959L22.3052 36.9539C22.355 36.9271 22.4107 36.9131 22.4672 36.9131C22.5238 36.9131 22.5794 36.9271 22.6292 36.9539L29.7212 40.8959C30.3662 41.2594 31.1012 41.432 31.8406 41.3938C32.5799 41.3555 33.2932 41.108 33.8972 40.6799C34.5089 40.2521 34.9873 39.6601 35.2771 38.9722C35.5669 38.2843 35.6564 37.5285 35.5352 36.7919L34.2032 28.1519C34.195 28.0974 34.1988 28.0418 34.2144 27.9889C34.2299 27.9361 34.2568 27.8873 34.2932 27.8459L40.2872 21.5999ZM31.6832 25.1999C31.2204 25.6645 30.8797 26.2362 30.6912 26.8643C30.5028 27.4924 30.4726 28.1573 30.6032 28.7999L32.0072 37.4399C32.0252 37.5074 32.021 37.5789 31.995 37.6438C31.9691 37.7087 31.9228 37.7634 31.8632 37.7999C31.8121 37.8408 31.7486 37.8631 31.6832 37.8631C31.6178 37.8631 31.5543 37.8408 31.5032 37.7999L24.4112 33.8759C23.8294 33.5462 23.172 33.3729 22.5032 33.3729C21.8344 33.3729 21.1771 33.5462 20.5952 33.8759L13.5032 37.7999C13.4521 37.8408 13.3886 37.8631 13.3232 37.8631C13.2578 37.8631 13.1943 37.8408 13.1432 37.7999C13.0836 37.7634 13.0374 37.7087 13.0114 37.6438C12.9855 37.5789 12.9812 37.5074 12.9992 37.4399L14.4032 28.7999C14.5021 28.1851 14.456 27.5557 14.2684 26.9619C14.0809 26.3681 13.7573 25.8264 13.3232 25.3799L7.31122 19.1339C7.26374 19.087 7.23021 19.0279 7.21439 18.9631C7.19856 18.8983 7.20106 18.8303 7.22159 18.7669C7.24213 18.7034 7.2799 18.6469 7.33069 18.6036C7.38147 18.5604 7.44328 18.5321 7.50922 18.5219L15.6452 17.2799C16.2861 17.1822 16.8928 16.9272 17.4111 16.5377C17.9294 16.1482 18.3431 15.6363 18.6152 15.0479L22.2152 7.3979C22.2436 7.34104 22.2873 7.29321 22.3413 7.25978C22.3954 7.22634 22.4577 7.20864 22.5212 7.20864C22.5848 7.20864 22.6471 7.22634 22.7011 7.25978C22.7552 7.29321 22.7988 7.34104 22.8272 7.3979L26.4272 15.0479C26.696 15.6318 27.1042 16.1407 27.6158 16.5299C28.1274 16.9191 28.7268 17.1766 29.3612 17.2799L37.4972 18.5219C37.5631 18.5321 37.625 18.5604 37.6757 18.6036C37.7265 18.6469 37.7643 18.7034 37.7848 18.7669C37.8054 18.8303 37.8079 18.8983 37.792 18.9631C37.7762 19.0279 37.7427 19.087 37.6952 19.1339L31.6832 25.1999Z" fill="white"/>
</svg>
