<svg width="40" height="40" viewBox="0 0 40 40" fill="none" xmlns="http://www.w3.org/2000/svg">
<path fill-rule="evenodd" clip-rule="evenodd" d="M31.6693 3.3335H8.33594C7.00986 3.3335 5.73809 3.86028 4.8004 4.79796C3.86272 5.73564 3.33594 7.00741 3.33594 8.3335V31.6668C3.33594 32.9929 3.86272 34.2647 4.8004 35.2024C5.73809 36.14 7.00986 36.6668 8.33594 36.6668H31.6693C32.9954 36.6668 34.2671 36.14 35.2048 35.2024C36.1425 34.2647 36.6693 32.9929 36.6693 31.6668V8.3335C36.6693 7.00741 36.1425 5.73564 35.2048 4.79796C34.2671 3.86028 32.9954 3.3335 31.6693 3.3335ZM6.66927 8.3335C6.66927 7.89147 6.84487 7.46755 7.15743 7.15499C7.46999 6.84242 7.89391 6.66683 8.33594 6.66683H31.6693C32.1113 6.66683 32.5352 6.84242 32.8478 7.15499C33.1603 7.46755 33.3359 7.89147 33.3359 8.3335V31.6668C33.3359 32.1089 33.1603 32.5328 32.8478 32.8453C32.5352 33.1579 32.1113 33.3335 31.6693 33.3335H8.33594C7.89391 33.3335 7.46999 33.1579 7.15743 32.8453C6.84487 32.5328 6.66927 32.1089 6.66927 31.6668V8.3335ZM27.8976 16.1268C28.1964 15.8011 28.3536 15.3699 28.3345 14.9283C28.3154 14.4866 28.1217 14.0706 27.7959 13.7718C27.4702 13.473 27.039 13.3159 26.5974 13.3349C26.1557 13.354 25.7397 13.5477 25.4409 13.8735L17.5626 22.4685L14.6159 18.9335C14.4778 18.7594 14.3062 18.6147 14.1114 18.5079C13.9165 18.4011 13.7022 18.3343 13.4811 18.3115C13.2601 18.2888 13.0367 18.3104 12.8241 18.3753C12.6115 18.4401 12.4141 18.5468 12.2434 18.6891C12.0726 18.8313 11.9321 19.0063 11.83 19.2037C11.7279 19.4011 11.6663 19.6169 11.6488 19.8385C11.6314 20.06 11.6584 20.2828 11.7283 20.4938C11.7982 20.7047 11.9096 20.8996 12.0559 21.0668L16.2226 26.0668C16.3747 26.2494 16.5641 26.3973 16.7781 26.5006C16.992 26.604 17.2256 26.6604 17.4632 26.6661C17.7007 26.6718 17.9367 26.6266 18.1554 26.5336C18.374 26.4406 18.5703 26.3019 18.7309 26.1268L27.8976 16.1268Z" fill="#1F245A"/>
</svg>
