<svg width="30" height="30" viewBox="0 0 30 30" fill="none" xmlns="http://www.w3.org/2000/svg">
<path fill-rule="evenodd" clip-rule="evenodd" d="M10.5469 12.3047C10.5469 11.8193 10.9404 11.4258 11.4258 11.4258H18.5742C19.0596 11.4258 19.4531 11.8193 19.4531 12.3047V17.4023C19.4531 17.7904 19.2016 18.1197 18.8528 18.2362L19.2935 18.864C19.3974 19.012 19.4531 19.1883 19.4531 19.369V21.533C19.4531 21.921 19.2017 22.2503 18.8528 22.3668L19.2935 22.9946C19.3974 23.1425 19.4531 23.3189 19.4531 23.4996V25.6055C19.4531 25.8411 19.3585 26.0668 19.1905 26.2321L15.6163 29.7477C15.2743 30.0841 14.7257 30.0841 14.3837 29.7477L10.8095 26.2321C10.6415 26.0668 10.5469 25.8411 10.5469 25.6055V23.4996C10.5469 23.3189 10.6026 23.1425 10.7065 22.9946L11.1472 22.3668C10.7983 22.2503 10.5469 21.921 10.5469 21.533V19.369C10.5469 19.1883 10.6026 19.012 10.7064 18.864L11.1472 18.2362C10.7983 18.1197 10.5469 17.7904 10.5469 17.4023V12.3047ZM12.3047 16.5234H12.8065C13.1344 16.5234 13.4351 16.706 13.5863 16.997C13.7376 17.288 13.7142 17.6389 13.5258 17.9073L12.3047 19.6468V20.6541H12.8065C13.1344 20.6541 13.4351 20.8366 13.5863 21.1276C13.7376 21.4186 13.7142 21.7696 13.5258 22.038L12.3047 23.7773V25.2372L15 27.8883L17.6953 25.2372V23.7773L16.4741 22.038C16.2857 21.7696 16.2624 21.4186 16.4136 21.1276C16.5648 20.8366 16.8655 20.6541 17.1935 20.6541H17.6953V19.6468L16.4741 17.9074C16.2857 17.639 16.2624 17.288 16.4136 16.997C16.5648 16.706 16.8655 16.5234 17.1935 16.5234H17.6953V13.1836H12.3047V16.5234Z" fill="white"/>
<path fill-rule="evenodd" clip-rule="evenodd" d="M11.4805 0.761719C11.9659 0.761719 12.3594 1.15522 12.3594 1.64062V4.86328C12.3594 5.09638 12.2668 5.31993 12.1019 5.48476L11.2816 6.30507C10.9384 6.64831 10.3819 6.64831 10.0387 6.30507C9.69544 5.96184 9.69544 5.40535 10.0387 5.06211L10.6016 4.49923V1.64062C10.6016 1.15522 10.9951 0.761719 11.4805 0.761719Z" fill="white"/>
<path fill-rule="evenodd" clip-rule="evenodd" d="M14.9961 0.644531C15.4815 0.644531 15.875 1.03803 15.875 1.52344V6.91406C15.875 7.39947 15.4815 7.79297 14.9961 7.79297C14.5107 7.79297 14.1172 7.39947 14.1172 6.91406V1.52344C14.1172 1.03803 14.5107 0.644531 14.9961 0.644531Z" fill="white"/>
<path fill-rule="evenodd" clip-rule="evenodd" d="M11.2463 1.75781C9.7307 1.75781 8.49219 2.99632 8.49219 4.51189V10.5469C8.49219 11.0296 8.88836 11.4258 9.37109 11.4258H20.6211C21.1038 11.4258 21.5 11.0296 21.5 10.5469V4.51189C21.5 2.99632 20.2615 1.75781 18.7459 1.75781H11.2463ZM6.73438 4.51189C6.73438 2.02551 8.75989 0 11.2463 0H18.7459C21.2323 0 23.2578 2.02551 23.2578 4.51189V10.5469C23.2578 12.0004 22.0746 13.1836 20.6211 13.1836H9.37109C7.91754 13.1836 6.73438 12.0004 6.73438 10.5469V4.51189Z" fill="white"/>
<path fill-rule="evenodd" clip-rule="evenodd" d="M18.5117 0.761719C18.9971 0.761719 19.3906 1.15522 19.3906 1.64062V4.49923L19.9535 5.06211C20.2967 5.40535 20.2967 5.96184 19.9535 6.30507C19.6103 6.64831 19.0538 6.64831 18.7106 6.30507L17.8902 5.48476C17.7254 5.31993 17.6328 5.09638 17.6328 4.86328V1.64062C17.6328 1.15522 18.0263 0.761719 18.5117 0.761719Z" fill="white"/>
</svg>
