<svg width="49" height="49" viewBox="0 0 49 49" fill="none" xmlns="http://www.w3.org/2000/svg">
<g clip-path="url(#clip0_4636_1747)">
<path d="M42.4692 3.26667H31.8521V0.816667C31.8521 0.709447 31.831 0.603273 31.79 0.504205C31.749 0.405136 31.6889 0.315115 31.6131 0.239281C31.5373 0.163446 31.4473 0.103284 31.3483 0.0622277C31.2492 0.0211718 31.143 2.68337e-05 31.0358 2.55359e-08H17.9688C17.8615 -2.67894e-05 17.7554 0.0210651 17.6563 0.0620714C17.5572 0.103078 17.4672 0.163195 17.3914 0.238992C17.3155 0.314789 17.2554 0.40478 17.2143 0.503827C17.1733 0.602875 17.1521 0.709039 17.1521 0.816258V3.26667H6.53542C6.4282 3.26664 6.32202 3.28773 6.22295 3.32874C6.12389 3.36974 6.03387 3.42986 5.95803 3.50566C5.8822 3.58145 5.82203 3.67145 5.78098 3.77049C5.73992 3.86954 5.71878 3.97571 5.71875 4.08292V48.1833C5.71872 48.2906 5.73982 48.3967 5.78082 48.4958C5.82183 48.5949 5.88195 48.6849 5.95774 48.7607C6.03354 48.8366 6.12353 48.8967 6.22258 48.9378C6.32162 48.9788 6.42779 49 6.53501 49H42.4688C42.576 49 42.6821 48.9789 42.7812 48.9379C42.8803 48.8969 42.9703 48.8368 43.0461 48.761C43.122 48.6852 43.1821 48.5952 43.2232 48.4962C43.2642 48.3971 43.2854 48.291 43.2854 48.1837V4.08333C43.2854 3.97611 43.2644 3.86994 43.2234 3.77087C43.1823 3.6718 43.1222 3.58178 43.0464 3.50595C42.9706 3.43011 42.8806 3.36995 42.7816 3.32889C42.6825 3.28784 42.5764 3.26669 42.4692 3.26667ZM18.7854 1.63333H30.2188V6.53333H18.7854V1.63333ZM41.6521 47.3667H7.35208V4.9H17.1521V7.35C17.1521 7.45722 17.1731 7.56339 17.2142 7.66246C17.2552 7.76153 17.3153 7.85155 17.3911 7.92739C17.4669 8.00322 17.5569 8.06338 17.6559 8.10444C17.755 8.1455 17.8611 8.16664 17.9683 8.16667H31.0354C31.1426 8.16669 31.2488 8.1456 31.3479 8.1046C31.4469 8.06359 31.537 8.00347 31.6128 7.92767C31.6886 7.85188 31.7488 7.76189 31.7899 7.66284C31.8309 7.56379 31.8521 7.45763 31.8521 7.35041V4.9H41.6521V47.3667Z" fill="#1F245A"/>
<path d="M8.98438 37.5667H26.951V39.2H8.98438V37.5667ZM28.5844 37.5667H40.0177V39.2H28.5844V37.5667ZM8.98438 40.8334H40.0177V42.4667H8.98438V40.8334ZM8.98438 44.1H22.051V45.7334H8.98438V44.1ZM23.6844 44.1H40.0177V45.7334H23.6844V44.1ZM14.7015 23.6834H9.80104C9.69382 23.6833 9.58765 23.7044 9.48858 23.7454C9.38951 23.7864 9.29949 23.8466 9.22366 23.9224C9.14782 23.9981 9.08766 24.0881 9.0466 24.1872C9.00555 24.2862 8.9844 24.3924 8.98438 24.4996V35.1167C8.98435 35.2239 9.00544 35.3301 9.04645 35.4292C9.08745 35.5282 9.14757 35.6182 9.22337 35.6941C9.29916 35.7699 9.38915 35.8301 9.4882 35.8711C9.58725 35.9122 9.69341 35.9333 9.80063 35.9334H14.701C14.8083 35.9334 14.9144 35.9123 15.0135 35.8713C15.1126 35.8303 15.2026 35.7702 15.2784 35.6944C15.3543 35.6186 15.4144 35.5286 15.4555 35.4295C15.4965 35.3305 15.5177 35.2243 15.5177 35.1171V24.5C15.5177 24.3928 15.4966 24.2866 15.4556 24.1876C15.4146 24.0885 15.3545 23.9985 15.2787 23.9226C15.2029 23.8468 15.1129 23.7866 15.0139 23.7456C14.9148 23.7045 14.8087 23.6834 14.7015 23.6834ZM13.8844 34.3H10.6177V25.3167H13.8844V34.3ZM22.8681 20.4167H17.9677C17.8605 20.4167 17.7543 20.4378 17.6552 20.4788C17.5562 20.5198 17.4662 20.5799 17.3903 20.6557C17.3145 20.7315 17.2543 20.8215 17.2133 20.9205C17.1722 21.0196 17.1511 21.1257 17.151 21.233V35.1167C17.151 35.2239 17.1721 35.3301 17.2131 35.4292C17.2541 35.5282 17.3142 35.6182 17.39 35.6941C17.4658 35.7699 17.5558 35.8301 17.6549 35.8711C17.7539 35.9122 17.8601 35.9333 17.9673 35.9334H22.8677C22.9749 35.9334 23.0811 35.9123 23.1802 35.8713C23.2792 35.8303 23.3693 35.7702 23.4451 35.6944C23.5209 35.6186 23.5811 35.5286 23.6221 35.4295C23.6632 35.3305 23.6844 35.2243 23.6844 35.1171V21.2334C23.6844 21.1261 23.6633 21.02 23.6223 20.9209C23.5813 20.8218 23.5212 20.7318 23.4454 20.656C23.3696 20.5801 23.2796 20.52 23.1805 20.4789C23.0815 20.4379 22.9753 20.4167 22.8681 20.4167ZM22.051 34.3H18.7844V22.05H22.051V34.3ZM31.0348 17.15H26.1344C26.0272 17.15 25.921 17.1711 25.8219 17.2121C25.7228 17.2531 25.6328 17.3132 25.557 17.389C25.4812 17.4648 25.421 17.5548 25.3799 17.6539C25.3389 17.7529 25.3177 17.8591 25.3177 17.9663V35.1167C25.3177 35.2239 25.3388 35.3301 25.3798 35.4292C25.4208 35.5282 25.4809 35.6182 25.5567 35.6941C25.6325 35.7699 25.7225 35.8301 25.8215 35.8711C25.9206 35.9122 26.0268 35.9333 26.134 35.9334H31.0344C31.1416 35.9334 31.2478 35.9123 31.3468 35.8713C31.4459 35.8303 31.5359 35.7702 31.6118 35.6944C31.6876 35.6186 31.7478 35.5286 31.7888 35.4295C31.8299 35.3305 31.851 35.2243 31.851 35.1171V17.9667C31.8511 17.8595 31.83 17.7533 31.789 17.6542C31.748 17.5552 31.6878 17.4651 31.6121 17.3893C31.5363 17.3135 31.4463 17.2533 31.3472 17.2123C31.2482 17.1712 31.142 17.1501 31.0348 17.15ZM30.2177 34.3H26.951V18.7834H30.2177V34.3ZM39.2015 13.8834H34.301C34.1938 13.8833 34.0877 13.9044 33.9886 13.9454C33.8895 13.9864 33.7995 14.0466 33.7237 14.1224C33.6478 14.1981 33.5877 14.2881 33.5466 14.3872C33.5056 14.4862 33.4844 14.5924 33.4844 14.6996V35.1167C33.4844 35.2239 33.5054 35.3301 33.5464 35.4292C33.5875 35.5282 33.6476 35.6182 33.7234 35.6941C33.7992 35.7699 33.8892 35.8301 33.9882 35.8711C34.0873 35.9122 34.1934 35.9333 34.3006 35.9334H39.201C39.3083 35.9334 39.4144 35.9123 39.5135 35.8713C39.6126 35.8303 39.7026 35.7702 39.7784 35.6944C39.8543 35.6186 39.9144 35.5286 39.9555 35.4295C39.9965 35.3305 40.0177 35.2243 40.0177 35.1171V14.7C40.0177 14.5928 39.9966 14.4866 39.9556 14.3876C39.9146 14.2885 39.8545 14.1985 39.7787 14.1226C39.7029 14.0468 39.6129 13.9866 39.5139 13.9456C39.4148 13.9045 39.3087 13.8834 39.2015 13.8834ZM38.3844 34.3H35.1177V15.5167H38.3844V34.3ZM39.0408 8.18262L30.8741 9.81595C30.7696 9.8369 30.6701 9.8781 30.5814 9.93723L23.4371 14.7H16.3344C16.1813 14.7 16.0314 14.7431 15.9017 14.8245L9.36841 18.9078L10.2338 20.2924L16.5685 16.3334H23.6844C23.8456 16.3333 24.0032 16.2855 24.1374 16.1962L31.3531 11.3855L39.3614 9.784L39.0408 8.18262Z" fill="#1F245A"/>
</g>
<defs>
<clipPath id="clip0_4636_1747">
<rect width="49" height="49" fill="white"/>
</clipPath>
</defs>
</svg>
