<svg width="45" height="45" viewBox="0 0 45 45" fill="none" xmlns="http://www.w3.org/2000/svg">
<mask id="mask0_4636_8535" style="mask-type:luminance" maskUnits="userSpaceOnUse" x="0" y="0" width="45" height="45">
<path d="M0 3.8147e-06H45V45H0V3.8147e-06Z" fill="white"/>
</mask>
<g mask="url(#mask0_4636_8535)">
<path d="M36.905 26.3429C40.1354 31.0592 38.3534 37.5565 33.18 39.9264C26.0825 43.1777 18.9348 43.1841 11.8274 39.9264C6.65121 37.5553 4.87406 31.0563 8.10246 26.3429L17.474 13.4394C18.3397 13.5809 19.2451 13.7665 20.1893 13.9964C19.9019 15.1051 19.3309 16.4388 18.1971 17.289C17.6147 17.7258 17.4966 18.5522 17.9334 19.1347C18.3681 19.7144 19.1936 19.8373 19.7791 19.3985C21.2216 18.3167 22.0395 16.8086 22.5038 15.4452C22.968 16.8086 23.7858 18.3167 25.2284 19.3985C25.8146 19.8381 26.6401 19.7135 27.0741 19.1347C27.5109 18.5522 27.3928 17.7258 26.8103 17.289C25.6765 16.4388 25.1056 15.1051 24.8182 13.9964C25.7623 13.7665 26.6679 13.5809 27.5335 13.4394L36.905 26.3429ZM13.1362 4.80811C12.4954 4.05436 12.9006 2.98315 13.6963 2.7084C14.6317 3.52165 15.8135 4.26205 17.0795 4.79071C18.2035 5.26013 19.3327 5.51414 19.6 5.53286C20.119 5.56924 20.6056 5.29757 20.8498 4.84713C20.9782 4.61 21.16 3.61288 22.4993 2.86001C22.5044 2.85711 22.5028 2.85703 22.5082 2.86001C22.9983 3.13555 23.4526 3.5242 23.764 4.00892C24.1052 4.54005 24.0274 4.77313 24.3574 5.12258C24.5878 5.36718 24.8964 5.50737 25.2084 5.53294C25.4597 5.55465 25.7195 5.48434 25.9903 5.42027C28.0096 4.94302 29.8903 3.94361 31.3112 2.7084C32.1036 2.98201 32.5144 4.05155 31.8713 4.80811C31.8284 4.85865 32.1136 4.4794 27.3958 10.7939C25.8688 11.0287 24.2385 11.3893 22.5038 11.8792C20.769 11.3893 19.1386 11.0287 17.6117 10.7939C12.8737 4.45233 13.1788 4.85838 13.1362 4.80811ZM38.9707 12.5946C36.9544 11.1145 34.2626 10.4082 30.9264 10.4736L33.9093 6.4812C36.0242 3.93764 34.2621 0.0864487 30.9726 0.00198746C30.5852 -0.028862 30.1884 0.110443 29.9035 0.418148C29.8876 0.43502 28.4664 1.91704 26.0412 2.67466C24.9126 0.839321 23.015 0.187172 22.9206 0.155617C22.6501 0.0654411 22.3574 0.0654411 22.0868 0.155617C22.0692 0.161594 21.988 0.189285 21.8605 0.242546C21.3079 0.473347 19.8833 1.18341 18.9663 2.67466C17.3855 2.18089 15.8398 1.1922 15.1042 0.418411C14.8498 0.145863 14.4933 0.000141144 14.1409 0.000141144C10.7884 0.000141144 8.95869 3.90811 11.0981 6.4812L14.081 10.4736C10.7449 10.4082 8.05306 11.1144 6.03677 12.5946C3.56871 14.4064 2.16571 17.4146 2.08626 21.0651C2.07035 21.7931 2.64771 22.3961 3.37562 22.4119C4.1073 22.4267 4.70637 21.8504 4.72227 21.1225C4.7656 19.1327 5.29954 16.4067 7.59709 14.7201C9.49807 13.3247 12.0819 13.0215 14.448 13.1189C5.54352 25.3793 5.95424 24.8135 5.93903 24.8355C1.76616 30.9049 4.06547 39.2709 10.7291 42.3234C18.4191 45.8482 26.4026 45.9333 34.2781 42.3236C40.9475 39.2683 43.2373 30.8991 39.0684 24.8355C39.0529 24.8129 39.5002 25.4292 30.5595 13.119C32.9256 13.0216 35.5093 13.3246 37.4104 14.7201C39.7079 16.4067 40.2419 19.1327 40.2852 21.1225C40.3008 21.8408 40.8878 22.4122 41.6027 22.4122C42.3437 22.4122 42.9374 21.8033 42.9212 21.0651C42.8418 17.4146 41.4388 14.4064 38.9707 12.5946Z" fill="white"/>
<path d="M23.9671 28.5925C23.3102 28.36 22.239 27.9698 21.7023 27.5489C21.6698 27.5233 21.609 27.3703 21.6517 27.1429C21.6723 27.0337 21.7666 26.6694 22.1203 26.5627C22.6664 26.3972 23.1848 26.5059 23.5251 26.7579C24.0619 27.2467 24.8935 27.2096 25.3845 26.6738C25.8748 26.1387 25.8399 25.3085 25.3078 24.8159C25.3078 24.8159 24.697 24.2721 23.8235 24.0147V23.9063C23.8235 23.1781 23.2333 22.5879 22.5052 22.5879C21.7771 22.5879 21.1868 23.1781 21.1868 23.9063V24.0969C18.817 24.9587 18.2598 28.2004 20.0754 29.6238C20.9025 30.2723 22.0843 30.7231 23.0876 31.0782C23.7412 31.3094 23.8076 31.778 23.7483 32.1304C23.6823 32.5228 23.3444 33.1881 22.4964 33.1937C21.6173 33.1993 21.4087 33.167 20.7671 32.7471C20.1578 32.3484 19.3409 32.5188 18.942 33.1282C18.5432 33.7374 18.7138 34.5545 19.3231 34.9533C20.0239 35.412 20.579 35.6392 21.1868 35.7457V35.8726C21.1868 36.6006 21.7771 37.1909 22.5052 37.1909C23.2333 37.1909 23.8235 36.6006 23.8235 35.8726V35.5967C27.0175 34.4422 27.4413 29.8215 23.9671 28.5925Z" fill="white"/>
<path fill-rule="evenodd" clip-rule="evenodd" d="M10.7279 42.3233C18.643 45.9512 26.6114 45.8367 34.2767 42.3233C40.9651 39.2594 43.2253 30.8834 39.0671 24.8353C39.0606 24.8259 39.0541 24.8166 39.0474 24.8075L29.7647 12.0264L33.9078 6.48105C36.0462 3.91154 34.2205 -0.000133514 30.8652 -0.000133514C30.4998 -0.000133514 30.1508 0.151508 29.9016 0.418457C29.9006 0.419445 29.8983 0.421856 29.8947 0.425625C29.8888 0.431721 29.8793 0.441349 29.8664 0.454227C29.8605 0.460125 29.8539 0.466702 29.8466 0.473934C29.7997 0.520027 29.7236 0.592476 29.6196 0.684368C29.4111 0.868496 29.0926 1.12854 28.6729 1.41054C28.0183 1.85048 27.1306 2.33531 26.0406 2.67473C25.56 1.89117 24.9452 1.33 24.4111 0.948555C24.0277 0.674686 23.6717 0.482784 23.4072 0.357487C23.2743 0.294502 23.1623 0.247379 23.079 0.214424C23.0372 0.197922 23.0025 0.184898 22.9756 0.175144C22.9621 0.170265 22.9506 0.166203 22.9412 0.162922C22.9365 0.161282 22.9323 0.159836 22.9286 0.158585L22.9235 0.156857L22.9202 0.155746C22.9197 0.155575 22.9192 0.155411 22.5023 1.40612C22.0854 0.155411 22.0849 0.155575 22.0844 0.155746L22.0833 0.156101L22.0811 0.156857L22.0759 0.158585L22.0706 0.160408C22.0683 0.16119 22.0659 0.162025 22.0633 0.162922C22.0539 0.166203 22.0424 0.170265 22.029 0.175144C22.0021 0.184898 21.9673 0.197922 21.9256 0.214424C21.8422 0.247379 21.7303 0.294502 21.5973 0.357487C21.3328 0.482784 20.9768 0.674686 20.5934 0.948555C20.0594 1.33 19.4445 1.89117 18.9639 2.67473C17.8739 2.33532 16.9862 1.85048 16.3317 1.41055C15.912 1.12854 15.5935 0.868507 15.385 0.68438C15.281 0.592487 15.205 0.52005 15.1581 0.473949C15.1347 0.45092 15.1186 0.434528 15.11 0.425644C15.1063 0.421864 15.104 0.419445 15.1031 0.418465C14.8538 0.151512 14.5049 -0.000133514 14.1395 -0.000133514C10.7841 -0.000133514 8.95846 3.91155 11.0968 6.48107L15.2399 12.0264L5.95723 24.8075C5.95056 24.8166 5.94401 24.8259 5.93758 24.8353C1.7793 30.8833 4.03948 39.2592 10.7276 42.3232C10.7277 42.3233 10.7278 42.3233 10.7279 42.3233ZM22.5023 1.40612L22.0854 0.155411C22.356 0.0652046 22.6486 0.0652046 22.9192 0.155411L22.5023 1.40612ZM22.929 2.65348C22.9305 2.65298 22.93 2.65313 22.9279 2.65391L22.929 2.65348ZM22.5023 2.85588C22.3882 2.91952 22.2599 2.99852 22.126 3.09414C21.6572 3.42896 21.1772 3.92544 20.9405 4.63552C20.7302 5.26628 20.0832 5.64177 19.4312 5.51138C17.4631 5.11776 15.9153 4.30758 14.8609 3.59895C14.3667 3.2668 13.9762 2.95387 13.6963 2.71037C12.8703 2.9992 12.5104 4.07332 13.1348 4.80786C13.1527 4.82893 13.17 4.85056 13.1865 4.87271L17.9334 11.2262C18.2791 11.6889 18.2834 12.3227 17.944 12.79L8.10099 26.3427C4.87323 31.0548 6.6471 37.5537 11.826 39.9262L11.8263 39.9263C19.0314 43.2288 26.1976 43.1259 33.1783 39.9263L33.1786 39.9262C38.3575 37.5537 40.1313 31.0548 36.9036 26.3426L27.0606 12.79C26.7212 12.3227 26.7254 11.6889 27.0711 11.2262L31.8181 4.8727C31.8347 4.85055 31.8519 4.82893 31.8698 4.80786C32.4943 4.07332 32.1343 2.99919 31.3083 2.71036C31.0284 2.95387 30.6379 3.2668 30.1437 3.59896C29.0893 4.30759 27.5414 5.11776 25.5733 5.51138C24.9214 5.64177 24.2743 5.26628 24.0641 4.63552C23.8274 3.92544 23.3473 3.42896 22.8786 3.09414C22.7447 2.99852 22.6163 2.91952 22.5023 2.85588ZM22.0767 2.65391C22.0745 2.65313 22.0741 2.65298 22.0755 2.65348L22.0767 2.65391ZM29.9001 0.420052L29.8999 0.4202L29.9001 0.420052Z" fill="white"/>
<path fill-rule="evenodd" clip-rule="evenodd" d="M20.9112 35.6764C21.4521 35.81 21.9796 35.8209 22.5139 35.8173L22.5139 35.8173C24.5429 35.8038 25.9254 34.3705 26.2968 32.809C26.4838 32.0228 26.432 31.1493 26.0412 30.3596C25.6412 29.5512 24.929 28.9194 23.9664 28.5791L23.9663 28.5791C22.7801 28.1598 22.0953 27.8437 21.7028 27.5358L21.7027 27.5357C21.7005 27.534 21.6953 27.5296 21.6876 27.5174C21.6793 27.5043 21.6669 27.48 21.6562 27.441C21.6339 27.359 21.6266 27.2365 21.659 27.0949C21.726 26.8021 21.9068 26.6138 22.1176 26.5502M20.9112 35.6764C20.3487 35.5375 19.8568 35.2891 19.3234 34.9401L20.9112 35.6764ZM21.5434 33.1166C21.3684 33.0734 21.1545 32.9872 20.7668 32.7336C20.1574 32.335 19.3404 32.5058 18.9418 33.1152C18.5432 33.7245 18.7141 34.5415 19.3234 34.9401M21.5434 33.1166C21.7401 33.1652 21.982 33.1841 22.4963 33.1807L21.5434 33.1166ZM22.4964 33.1807C23.1543 33.1763 23.6034 32.738 23.7316 32.1989C23.7944 31.9349 23.763 31.7009 23.678 31.529C23.6021 31.3756 23.4458 31.1917 23.0877 31.0651M23.0876 31.0651C21.9134 30.6501 20.8468 30.2155 20.0755 29.6105L23.0876 31.0651ZM20.0754 29.6104C19.0524 28.8079 18.859 27.5106 19.0887 26.5068C19.3263 25.4681 20.0765 24.4114 21.3571 24.0256L21.3572 24.0256C22.5002 23.6813 23.475 23.8487 24.1645 24.1174C24.5035 24.2495 24.7717 24.4049 24.9612 24.5322C25.0565 24.5963 25.1335 24.6544 25.1915 24.7008C25.2205 24.724 25.2449 24.7445 25.2646 24.7615C25.2744 24.77 25.2831 24.7776 25.2906 24.7843C25.2944 24.7876 25.2978 24.7907 25.301 24.7936L25.3055 24.7977L25.3076 24.7996L25.3086 24.8006C25.3091 24.801 25.3096 24.8015 24.4158 25.7706L25.3096 24.8015C25.8448 25.2951 25.8785 26.1292 25.3849 26.6644C24.8975 27.1928 24.0783 27.2324 23.5425 26.7582C23.5359 26.753 23.5182 26.7393 23.4902 26.7205C23.4314 26.6809 23.3346 26.6238 23.207 26.5741C22.9635 26.4792 22.5991 26.4052 22.1177 26.5502" fill="white"/>
<path fill-rule="evenodd" clip-rule="evenodd" d="M22.5059 37.1777C23.234 37.1777 23.8242 36.5875 23.8242 35.8594V34.4997C23.8242 33.7716 23.234 33.1813 22.5059 33.1813C21.7777 33.1813 21.1875 33.7716 21.1875 34.4997V35.8594C21.1875 36.5875 21.7777 37.1777 22.5059 37.1777Z" fill="white"/>
<path fill-rule="evenodd" clip-rule="evenodd" d="M22.5059 26.4727C23.234 26.4727 23.8242 25.8824 23.8242 25.1543V23.8931C23.8242 23.165 23.234 22.5747 22.5059 22.5747C21.7777 22.5747 21.1875 23.165 21.1875 23.8931V25.1543C21.1875 25.8824 21.7777 26.4727 22.5059 26.4727Z" fill="white"/>
<path fill-rule="evenodd" clip-rule="evenodd" d="M3.37559 22.4118C4.10353 22.4276 4.70649 21.8504 4.72235 21.1225C4.76422 19.2 5.27827 16.5199 7.45428 14.8279C9.608 13.1532 13.836 12.1067 22.1362 14.5165C22.3763 14.5862 22.6313 14.5862 22.8714 14.5165C31.1715 12.1067 35.3996 13.1532 37.5533 14.8279C39.7293 16.5199 40.2434 19.2 40.2852 21.1224C40.301 21.8504 40.904 22.4276 41.6319 22.4118C42.3599 22.396 42.9371 21.793 42.9213 21.0651C42.8736 18.8716 42.2947 15.1747 39.1718 12.7464C36.0716 10.3358 30.9003 9.5073 22.5038 11.879C14.1073 9.5073 8.93595 10.3358 5.83575 12.7464C2.71286 15.1747 2.13403 18.8716 2.08626 21.065C2.0704 21.793 2.64766 22.3959 3.37559 22.4118Z" fill="white"/>
<path fill-rule="evenodd" clip-rule="evenodd" d="M17.9356 19.1346C18.3724 19.7171 19.1987 19.8352 19.7813 19.3984C22.1739 17.6042 22.8329 14.6648 23.0271 13.2034C23.123 12.4817 22.6156 11.8188 21.8938 11.7229C21.1721 11.627 20.5092 12.1344 20.4133 12.8562C20.2401 14.1599 19.7003 16.1634 18.1994 17.2889C17.6169 17.7258 17.4987 18.5521 17.9356 19.1346Z" fill="white"/>
<path fill-rule="evenodd" clip-rule="evenodd" d="M27.0719 19.1346C27.5087 18.5521 27.3906 17.7257 26.8081 17.2889C25.3071 16.1634 24.7674 14.1599 24.5941 12.8562C24.4982 12.1344 23.8354 11.627 23.1136 11.7229C22.3919 11.8188 21.8845 12.4817 21.9804 13.2034C22.1745 14.6647 22.8335 17.6042 25.2262 19.3984C25.8088 19.8352 26.6351 19.7171 27.0719 19.1346Z" fill="white"/>
<path fill-rule="evenodd" clip-rule="evenodd" d="M19.4304 5.51134C20.0824 5.64173 20.7294 5.26624 20.9397 4.63548C21.1764 3.9254 21.6564 3.42892 22.1252 3.09411C22.357 2.92853 22.5723 2.81281 22.7253 2.74035C22.801 2.70446 22.8594 2.68017 22.8942 2.66644C22.9115 2.65959 22.9227 2.65545 22.9271 2.65387C22.9274 2.65377 22.9276 2.65367 22.9279 2.65358C23.6125 2.41969 23.9814 1.67676 23.7522 0.989179C23.5219 0.298433 22.7753 -0.074873 22.0846 0.155375L22.5015 1.40608C22.0846 0.155375 22.0841 0.155541 22.0836 0.15571L22.0825 0.156062L22.0803 0.15682L22.0751 0.158552C22.0715 0.159803 22.0673 0.161246 22.0625 0.162886C22.0531 0.166165 22.0416 0.170231 22.0282 0.17511C22.0013 0.184862 21.9665 0.197887 21.9248 0.21439C21.8414 0.247346 21.7295 0.294468 21.5965 0.357452C21.332 0.482747 20.976 0.67465 20.5926 0.948522C20.0586 1.32997 19.4437 1.89113 18.9632 2.6747C17.8731 2.33528 16.9854 1.85045 16.3309 1.41051C15.9112 1.12851 15.5927 0.868472 15.3842 0.684347C15.2802 0.592454 15.2042 0.520011 15.1573 0.473915C15.1339 0.450885 15.1178 0.434493 15.1092 0.425609C15.1055 0.421842 15.1032 0.41943 15.1023 0.41844C14.6071 -0.111948 13.7758 -0.1426 13.2429 0.350866C12.7087 0.845571 12.6766 1.67969 13.1714 2.21393L14.1387 1.31819C13.1714 2.21393 13.1717 2.21427 13.172 2.21462L13.1727 2.21536L13.1742 2.21699L13.1778 2.22086C13.1805 2.22371 13.1837 2.22709 13.1873 2.23098C13.1947 2.23878 13.2041 2.24864 13.2156 2.26047C13.2385 2.28411 13.2696 2.31561 13.3087 2.35404C13.3868 2.43085 13.4972 2.53556 13.6388 2.66065C13.9217 2.91049 14.3316 3.24371 14.8601 3.59892C15.9145 4.30755 17.4623 5.11772 19.4304 5.51134Z" fill="white"/>
<path fill-rule="evenodd" clip-rule="evenodd" d="M24.068 4.63548C24.2783 5.26624 24.9253 5.64173 25.5773 5.51134C27.5454 5.11772 29.0932 4.30755 30.1476 3.59892C30.6761 3.24371 31.086 2.91049 31.3689 2.66065C31.5105 2.53556 31.6209 2.43085 31.699 2.35404C31.7381 2.31561 31.7692 2.28411 31.7921 2.26047C31.8035 2.24864 31.813 2.23878 31.8203 2.23098C31.823 2.22814 31.8255 2.22557 31.8276 2.22328L31.8299 2.22086L31.8335 2.21699L31.835 2.21536L31.8357 2.21462C31.836 2.21427 31.8363 2.21393 30.869 1.31819L31.8363 2.21393C32.331 1.67969 32.299 0.845571 31.7648 0.350866C31.2319 -0.142599 30.4006 -0.111947 29.9054 0.418439C29.9045 0.419427 29.9022 0.42184 29.8985 0.425609C29.8899 0.434493 29.8738 0.450885 29.8504 0.473915C29.8035 0.520011 29.7275 0.592454 29.6235 0.684347C29.415 0.868472 29.0964 1.12851 28.6768 1.41051C28.0222 1.85045 27.1346 2.33528 26.0445 2.6747C25.5639 1.89113 24.9491 1.32997 24.4151 0.948522C24.0317 0.67465 23.6757 0.482747 23.4112 0.357452C23.2782 0.294468 23.1663 0.247346 23.0829 0.21439C23.0412 0.197887 23.0064 0.184862 22.9795 0.17511C22.9661 0.170231 22.9546 0.166165 22.9451 0.162886C22.9404 0.161246 22.9362 0.159803 22.9325 0.158552L22.9274 0.15682L22.9241 0.15571C22.9236 0.155541 22.9231 0.155375 22.5062 1.40608L22.9231 0.155375C22.2324 -0.074873 21.4858 0.298433 21.2555 0.989179C21.0263 1.67676 21.3952 2.4197 22.0798 2.65359C22.0801 2.65367 22.0803 2.65377 22.0806 2.65387C22.085 2.65545 22.0962 2.65959 22.1135 2.66644C22.1483 2.68017 22.2066 2.70446 22.2824 2.74035C22.4354 2.81281 22.6507 2.92853 22.8825 3.09411C23.3513 3.42892 23.8313 3.9254 24.068 4.63548ZM29.9026 0.421453C29.9027 0.421357 29.9028 0.42126 29.9029 0.421164L29.9026 0.421453ZM29.9023 0.421809C29.9023 0.421811 29.9023 0.421808 29.9023 0.421809L29.9026 0.421453L29.9029 0.421164" fill="white"/>
</g>
</svg>
