<svg width="30" height="30" viewBox="0 0 30 30" fill="none" xmlns="http://www.w3.org/2000/svg">
<g clip-path="url(#clip0_4636_8161)">
<path d="M5.32812 14.1211H7.08594V15.8789H5.32812V14.1211Z" fill="white"/>
<path d="M8.84375 14.1211H10.6016V15.8789H8.84375V14.1211Z" fill="white"/>
<path d="M12.3594 14.1211H14.1172V15.8789H12.3594V14.1211Z" fill="white"/>
<path d="M15.875 14.1211H17.6328V15.8789H15.875V14.1211Z" fill="white"/>
<path d="M19.3906 14.1211H21.1484V15.8789H19.3906V14.1211Z" fill="white"/>
<path d="M22.9062 14.1211H24.6641V15.8789H22.9062V14.1211Z" fill="white"/>
<path d="M24.7266 5.21484H19.3945V10.6055H15.8789V5.21484H17.6367V0H12.3633V5.21484H14.1211V10.6055H10.6055V5.21484H5.27344V3.45703H0V8.73047H5.27344V6.97266H8.84766V10.6055H0V19.3945H8.84766V22.9688H5.27344V21.2109H0V26.4844H5.27344V24.7266H10.6055V19.3945H14.1211V24.7266H12.3633V30H17.6367V24.7266H15.8789V19.3945H19.3945V24.7266H24.7266V26.4844H30V21.2109H24.7266V22.9688H21.1523V19.3945H30V10.6055H21.1523V6.97266H24.7266V8.73047H30V3.45703H24.7266V5.21484ZM14.1211 1.75781H15.8789V3.45703H14.1211V1.75781ZM3.51562 6.97266H1.75781V5.21484H3.51562V6.97266ZM3.51562 24.7266H1.75781V22.9688H3.51562V24.7266ZM15.8789 28.2422H14.1211V26.4844H15.8789V28.2422ZM26.4844 22.9688H28.2422V24.7266H26.4844V22.9688ZM28.2422 17.6367H1.75781V12.3633H28.2422V17.6367ZM26.4844 5.21484H28.2422V6.97266H26.4844V5.21484Z" fill="white"/>
</g>
<defs>
<clipPath id="clip0_4636_8161">
<rect width="30" height="30" fill="white"/>
</clipPath>
</defs>
</svg>
