<svg width="45" height="45" viewBox="0 0 45 45" fill="none" xmlns="http://www.w3.org/2000/svg">
<path d="M22.5 0L4.42969 6.77637V20.1973C4.42969 25.8398 6.12598 31.1133 9.46582 35.8506C12.8057 40.5879 17.1738 43.6729 22.3945 44.9736L22.5 45L22.6055 44.9736C27.8262 43.6641 32.1768 40.5967 35.5342 35.8506C38.8828 31.1045 40.5703 25.8398 40.5703 20.1973V6.77637L22.5 0ZM36.4043 20.1973C36.4043 24.8994 35.0859 29.2061 32.4844 32.9854C29.918 36.7207 26.5605 39.3135 22.5 40.6846C18.4482 39.3135 15.0908 36.7207 12.5156 32.9854C9.91406 29.1973 8.5957 24.8994 8.5957 20.1885V9.68555L22.5 4.44727L36.3955 9.68555V20.1973H36.4043Z" fill="white"/>
<path d="M20.4141 18.7734H24.5801V33.8027H20.4141V18.7734Z" fill="white"/>
<path d="M20.8711 12.0588C19.9746 12.9553 19.9834 14.4055 20.8799 15.302C21.7764 16.1985 23.2266 16.1897 24.1231 15.2932C25.0195 14.3967 25.0108 12.9465 24.1143 12.05C23.6836 11.6194 23.1035 11.3821 22.4971 11.3821C21.8819 11.3733 21.293 11.6194 20.8711 12.0588Z" fill="white"/>
</svg>
