<svg width="49" height="49" viewBox="0 0 49 49" fill="none" xmlns="http://www.w3.org/2000/svg">
<g clip-path="url(#clip0_4636_1909)">
<path d="M47.7366 16.7618C46.0575 15.0827 43.3252 15.0827 41.6461 16.7618L29.8372 28.5706C29.8298 28.578 29.8209 28.5836 29.813 28.5905C30.4067 27.6181 30.7201 26.5006 30.7187 25.3613C30.7187 21.9312 27.9281 19.1406 24.498 19.1406C21.0679 19.1406 18.2773 21.9312 18.2773 25.3613C18.276 26.5007 18.5895 27.6182 19.1833 28.5907C19.1753 28.5837 19.1665 28.5782 19.159 28.5708L7.34986 16.7618C5.67074 15.0827 2.93852 15.0827 1.25941 16.7618C-0.419802 18.441 -0.419802 21.1731 1.25941 22.8523L14.4492 36.042V45.6503C14.4492 47.4973 15.9518 48.9999 17.7988 48.9999H31.1973C33.0442 48.9999 34.5469 47.4973 34.5469 45.6503V36.042L47.7366 22.8523C49.4158 21.173 49.4158 18.4409 47.7366 16.7618ZM45.7064 20.8221L32.0963 34.4323C31.8271 34.7015 31.6758 35.0666 31.6758 35.4473V45.6503C31.6758 45.9142 31.4611 46.1289 31.1973 46.1289H17.7988C17.535 46.1289 17.3203 45.9142 17.3203 45.6503V35.4474C17.3203 35.0666 17.1691 34.7015 16.8998 34.4324L3.28965 20.8221C2.72988 20.2623 2.72988 19.3516 3.28965 18.7918C3.56949 18.512 3.93718 18.3721 4.30468 18.3721C4.67218 18.3721 5.03997 18.512 5.31971 18.7918L17.1289 30.6011C17.7616 31.2336 18.6027 31.582 19.4973 31.582H29.4988C30.3933 31.582 31.2345 31.2336 31.8673 30.6009L43.6764 18.7918C44.236 18.2322 45.1468 18.2322 45.7065 18.7918C46.2662 19.3516 46.2662 20.2624 45.7064 20.8221ZM21.1484 25.3613C21.1484 23.5143 22.6511 22.0117 24.498 22.0117C26.345 22.0117 27.8476 23.5143 27.8476 25.3613C27.8476 27.2083 26.345 28.7109 24.498 28.7109C22.6511 28.7109 21.1484 27.2083 21.1484 25.3613Z" fill="#1F245A"/>
<path d="M19.4419 10.5907L18.728 14.753C18.6828 15.017 18.7123 15.2884 18.8133 15.5365C18.9142 15.7846 19.0826 15.9995 19.2993 16.1569C19.516 16.3143 19.7724 16.408 20.0395 16.4274C20.3067 16.4467 20.5739 16.3909 20.811 16.2663L24.5489 14.3012L28.2868 16.2663C28.5238 16.391 28.7911 16.4469 29.0583 16.4276C29.3254 16.4083 29.5819 16.3146 29.7986 16.1571C30.0153 15.9997 30.1836 15.7847 30.2846 15.5366C30.3855 15.2885 30.415 15.0171 30.3697 14.7531L29.6559 10.5908L32.6799 7.64308C32.8718 7.45614 33.0075 7.21924 33.0717 6.95918C33.1359 6.69913 33.126 6.4263 33.0432 6.17155C32.9605 5.91678 32.8081 5.69025 32.6033 5.51759C32.3985 5.34492 32.1495 5.23301 31.8844 5.19452L27.7053 4.58719L25.8361 0.800215C25.7175 0.560014 25.5342 0.357772 25.3067 0.216358C25.0792 0.0749441 24.8167 0 24.5488 0C24.2809 0 24.0184 0.0749441 23.7909 0.216358C23.5634 0.357772 23.38 0.560014 23.2615 0.800215L21.3926 4.58709L17.2134 5.19442C16.9483 5.2329 16.6993 5.34481 16.4945 5.51748C16.2897 5.69015 16.1374 5.91668 16.0547 6.17146C15.9719 6.4262 15.962 6.69903 16.0262 6.95909C16.0904 7.21914 16.2261 7.45604 16.4179 7.64299L19.4419 10.5907ZM23.6332 6.53455L24.5488 4.67925L25.4644 6.53455C25.5674 6.74326 25.7196 6.92378 25.9079 7.06058C26.0962 7.19737 26.3149 7.28633 26.5452 7.3198L28.5928 7.61734L27.1113 9.0615C26.9447 9.22393 26.82 9.42446 26.748 9.64581C26.6761 9.86715 26.6591 10.1027 26.6985 10.3321L27.0482 12.3714L25.2169 11.4085C25.0109 11.3003 24.7816 11.2437 24.5489 11.2437C24.3161 11.2437 24.0869 11.3003 23.8809 11.4085L22.0496 12.3714L22.3993 10.3321C22.4387 10.1027 22.4216 9.86715 22.3497 9.64581C22.2778 9.42446 22.1531 9.22393 21.9864 9.0615L20.5049 7.61734L22.5525 7.3198C22.7828 7.28628 23.0015 7.1973 23.1897 7.06051C23.378 6.92372 23.5302 6.74322 23.6332 6.53455Z" fill="#1F245A"/>
</g>
<defs>
<clipPath id="clip0_4636_1909">
<rect width="49" height="49" fill="white"/>
</clipPath>
</defs>
</svg>
