<svg width="45" height="45" viewBox="0 0 45 45" fill="none" xmlns="http://www.w3.org/2000/svg">
<g clip-path="url(#clip0_4636_953)">
<path d="M22.4962 45C22.3699 44.9999 22.244 44.9829 22.1222 44.9494C21.9028 44.8875 0.1875 38.5439 0.1875 8.72297C0.187497 8.53759 0.224148 8.35403 0.295346 8.18286C0.366543 8.0117 0.470882 7.8563 0.60236 7.72561C0.733837 7.59491 0.889858 7.4915 1.06145 7.42133C1.23304 7.35116 1.41681 7.31561 1.60219 7.31672C2.10957 7.31589 2.61083 7.20582 3.07187 6.99398C3.53292 6.78214 3.94294 6.47351 4.27406 6.08906C4.82392 5.46502 5.24241 4.73658 5.50455 3.94725C5.7667 3.15791 5.86713 2.32385 5.79984 1.49484C5.78774 1.30309 5.81505 1.1109 5.88011 0.930113C5.94516 0.749329 6.04657 0.583793 6.17808 0.44372C6.30959 0.303647 6.4684 0.192008 6.64473 0.115693C6.82105 0.0393766 7.01115 2.59896e-06 7.20328 0L37.7892 0C37.9813 2.59896e-06 38.1714 0.0393766 38.3478 0.115693C38.5241 0.192008 38.6829 0.303647 38.8144 0.44372C38.9459 0.583793 39.0473 0.749329 39.1124 0.930113C39.1774 1.1109 39.2048 1.30309 39.1926 1.49484C39.1253 2.32385 39.2257 3.15794 39.4878 3.94729C39.75 4.73663 40.1685 5.46506 40.7184 6.08906C41.0519 6.46487 41.4593 6.76785 41.9151 6.97908C42.371 7.19032 42.8655 7.30526 43.3678 7.31672C43.3781 7.31741 43.3884 7.31741 43.3987 7.31672C43.7717 7.31672 44.1294 7.46488 44.3931 7.7286C44.6568 7.99232 44.805 8.35001 44.805 8.72297C44.805 38.5439 23.0897 44.8889 22.8703 44.9494C22.7484 44.9829 22.6226 44.9999 22.4962 45ZM3.01406 9.9675C3.54562 34.5403 19.8328 41.1947 22.5033 42.12C25.3031 41.1862 41.4539 34.7372 41.9798 9.9675C40.7109 9.65681 39.5616 8.97944 38.6751 8.01984C37.3571 6.5869 36.5574 4.75342 36.4041 2.8125H8.58703C8.435 4.7539 7.63576 6.5881 6.31734 8.02125C5.43092 8.98059 4.28291 9.65752 3.01406 9.9675Z" fill="white"/>
<path d="M22.4983 38.9883C22.2979 38.988 22.0999 38.9449 21.9175 38.8617C17.5792 36.8958 7.3375 30.4088 5.965 12.7238C5.94588 12.4727 5.99451 12.2211 6.10583 11.9953C6.21714 11.7694 6.38705 11.5776 6.59781 11.4398C7.25219 11.0085 7.8531 10.501 8.38797 9.92813C9.31888 8.93179 10.0566 7.77115 10.5634 6.50531C10.6683 6.24538 10.8484 6.0227 11.0806 5.86584C11.3129 5.70899 11.5868 5.62512 11.867 5.625H33.1309C33.4111 5.62501 33.6848 5.70867 33.917 5.86526C34.1493 6.02185 34.3295 6.24423 34.4345 6.50391C34.9409 7.77011 35.6781 8.93122 36.6086 9.92813C37.1446 10.5013 37.7465 11.0092 38.4016 11.4413C38.6119 11.5792 38.7813 11.7712 38.8922 11.997C39.003 12.2229 39.0511 12.4743 39.0316 12.7252C37.6591 30.4088 27.4188 36.8958 23.0791 38.8631C22.8967 38.9463 22.6987 38.988 22.4983 38.9883ZM8.83797 13.2961C10.2555 28.1419 18.423 34.0045 22.4983 36.0253C26.5736 34.0045 34.7425 28.1433 36.1586 13.2975C35.5854 12.8615 35.0501 12.3779 34.5583 11.8519C33.6091 10.8392 32.8196 9.68784 32.2169 8.4375H12.7811C12.1784 9.68785 11.3889 10.8392 10.4397 11.8519C9.94749 12.3771 9.41218 12.8602 8.83937 13.2961H8.83797Z" fill="white"/>
</g>
<defs>
<clipPath id="clip0_4636_953">
<rect width="45" height="45" fill="white"/>
</clipPath>
</defs>
</svg>
