<svg width="40" height="40" viewBox="0 0 40 40" fill="none" xmlns="http://www.w3.org/2000/svg">
<g clip-path="url(#clip0_4681_1529)">
<path fill-rule="evenodd" clip-rule="evenodd" d="M19.9966 9.73779C14.3289 9.73779 9.73438 14.3323 9.73438 20C9.73438 25.6676 14.3289 30.2622 19.9966 30.2622C25.6642 30.2622 30.2587 25.6676 30.2587 20C30.2587 14.3323 25.6642 9.73779 19.9966 9.73779ZM7.39062 20C7.39062 13.0379 13.0345 7.39404 19.9966 7.39404C26.9586 7.39404 32.6025 13.0379 32.6025 20C32.6025 26.962 26.9586 32.6059 19.9966 32.6059C13.0345 32.6059 7.39062 26.962 7.39062 20Z" fill="#1F245A"/>
<path fill-rule="evenodd" clip-rule="evenodd" d="M15.7366 1.11897C15.7649 0.492975 16.2806 0 16.9073 0H23.0927C23.7194 0 24.2351 0.492975 24.2634 1.11897L24.3614 3.28816C25.9144 3.69255 27.3816 4.30773 28.7313 5.10046L30.3362 3.6344C30.7988 3.21176 31.5121 3.22787 31.9552 3.67097L36.329 8.0448C36.7721 8.48789 36.7882 9.20116 36.3656 9.66382L34.8995 11.2687C35.6922 12.6184 36.3074 14.0856 36.7118 15.6386L38.881 15.7366C39.507 15.7649 40 16.2806 40 16.9073V23.0927C40 23.7194 39.507 24.2351 38.881 24.2634L36.7118 24.3614C36.3074 25.9144 35.6923 27.3816 34.8995 28.7313L36.3656 30.3362C36.7882 30.7988 36.7721 31.5121 36.329 31.9552L31.9552 36.329C31.5121 36.7721 30.7988 36.7882 30.3362 36.3656L28.7313 34.8995C27.3816 35.6922 25.9144 36.3074 24.3614 36.7118L24.2634 38.881C24.2351 39.507 23.7194 40 23.0927 40H16.9073C16.2806 40 15.7649 39.507 15.7366 38.8811L15.6385 36.7118C14.0856 36.3075 12.6183 35.6923 11.2686 34.8995L9.66374 36.3656C9.20108 36.7882 8.48781 36.7721 8.04471 36.329L3.67096 31.9552C3.22787 31.5121 3.21176 30.7988 3.6344 30.3362L5.10048 28.7313C4.30779 27.3816 3.69257 25.9144 3.28817 24.3614L1.11897 24.2634C0.492975 24.2351 0 23.7194 0 23.0927V16.9073C0 16.2806 0.492975 15.7649 1.11897 15.7366L3.28816 15.6386C3.69255 14.0856 4.30773 12.6184 5.10046 11.2687L3.6344 9.66382C3.21176 9.20116 3.22787 8.48789 3.67097 8.0448L8.0448 3.67097C8.48789 3.22787 9.20116 3.21176 9.66382 3.6344L11.2687 5.10048C12.6184 4.30779 14.0856 3.69257 15.6386 3.28817L15.7366 1.11897ZM18.0274 2.34375L17.9398 4.28142C17.9156 4.81808 17.5295 5.26952 17.0031 5.37679C15.1073 5.76312 13.3422 6.50994 11.7806 7.54244C11.3326 7.83869 10.7405 7.79241 10.3439 7.43013L8.91005 6.12028L6.12028 8.91005L7.43013 10.3439C7.79241 10.7405 7.83869 11.3326 7.54242 11.7807C6.50988 13.3422 5.76312 15.1073 5.37679 17.0031C5.26952 17.5295 4.81808 17.9156 4.28142 17.9398L2.34375 18.0274V21.9726L4.28142 22.0602C4.81808 22.0844 5.26952 22.4705 5.37679 22.9969C5.76312 24.8927 6.50994 26.6578 7.54244 28.2194C7.83869 28.6674 7.79241 29.2595 7.43013 29.6561L6.12028 31.09L8.90998 33.8797L10.3438 32.5699C10.7404 32.2076 11.3325 32.1613 11.7806 32.4576C13.3421 33.4901 15.1072 34.2369 17.0031 34.6232C17.5294 34.7305 17.9155 35.1819 17.9397 35.7186L18.0274 37.6562H21.9726L22.0602 35.7186C22.0844 35.1819 22.4705 34.7305 22.9969 34.6232C24.8927 34.2369 26.6578 33.4901 28.2194 32.4576C28.6674 32.1613 29.2595 32.2076 29.6561 32.5699L31.09 33.8797L33.8797 31.09L32.5699 29.6561C32.2076 29.2595 32.1613 28.6674 32.4576 28.2193C33.4901 26.6578 34.2369 24.8927 34.6232 22.9969C34.7305 22.4705 35.1819 22.0844 35.7186 22.0602L37.6562 21.9726V18.0274L35.7186 17.9398C35.1819 17.9156 34.7305 17.5295 34.6232 17.0031C34.2369 15.1073 33.4901 13.3422 32.4576 11.7806C32.1613 11.3326 32.2076 10.7405 32.5699 10.3439L33.8797 8.91005L31.09 6.12028L29.6561 7.43013C29.2595 7.79241 28.6674 7.83869 28.2193 7.54242C26.6578 6.50988 24.8927 5.76312 22.9969 5.37679C22.4705 5.26952 22.0844 4.81808 22.0602 4.28142L21.9726 2.34375H18.0274Z" fill="#1F245A"/>
<path fill-rule="evenodd" clip-rule="evenodd" d="M19.9977 12.0728C20.3428 12.0728 20.6703 12.2249 20.893 12.4885L27.2578 20.0252C27.5521 20.3737 27.6175 20.8613 27.4254 21.2749C27.2333 21.6886 26.8186 21.9532 26.3625 21.9532H23.5133V31.1157C23.5133 31.7629 22.9886 32.2876 22.3414 32.2876C21.6942 32.2876 21.1695 31.7629 21.1695 31.1157V20.7813C21.1695 20.1341 21.6942 19.6095 22.3414 19.6095H23.839L19.9977 15.0609L16.1563 19.6095H17.6539C18.3011 19.6095 18.8258 20.1341 18.8258 20.7813V31.1157C18.8258 31.7629 18.3011 32.2876 17.6539 32.2876C17.0067 32.2876 16.482 31.7629 16.482 31.1157V21.9532H13.6328C13.1767 21.9532 12.7621 21.6886 12.57 21.2749C12.3779 20.8613 12.4432 20.3737 12.7375 20.0252L19.1024 12.4885C19.325 12.2249 19.6526 12.0728 19.9977 12.0728Z" fill="#1F245A"/>
</g>
<defs>
<clipPath id="clip0_4681_1529">
<rect width="40" height="40" fill="white"/>
</clipPath>
</defs>
</svg>
