<svg width="30" height="30" viewBox="0 0 30 30" fill="none" xmlns="http://www.w3.org/2000/svg">
<g clip-path="url(#clip0_4636_8138)">
<path d="M13.1047 6.85596H5.70312C5.12047 6.85596 4.64844 6.38393 4.64844 5.80127C4.64844 5.21861 5.12047 4.74658 5.70312 4.74658H13.1047C13.6873 4.74658 14.1594 5.21861 14.1594 5.80127C14.1594 6.38393 13.6869 6.85596 13.1047 6.85596Z" fill="white"/>
<path d="M17.7714 4.68555C17.1555 4.68555 16.6562 5.18477 16.6562 5.8007C16.6562 6.41664 17.1555 6.91586 17.7714 6.91586C18.3873 6.91586 18.8866 6.41664 18.8866 5.8007C18.887 5.18523 18.3873 4.68555 17.7714 4.68555Z" fill="white"/>
<path d="M21.0058 4.68555C20.3898 4.68555 19.8906 5.18477 19.8906 5.8007C19.8906 6.41664 20.3898 6.91586 21.0058 6.91586C21.6217 6.91586 22.1209 6.41664 22.1209 5.8007C22.1209 5.18523 21.6217 4.68555 21.0058 4.68555Z" fill="white"/>
<path d="M24.248 4.68555C23.632 4.68555 23.1328 5.18477 23.1328 5.8007C23.1328 6.41664 23.632 6.91586 24.248 6.91586C24.8639 6.91586 25.3631 6.41664 25.3631 5.8007C25.3631 5.18523 24.8639 4.68555 24.248 4.68555Z" fill="white"/>
<path d="M26.7266 0.90918H3.27969C1.65781 0.90918 0.335938 2.22637 0.335938 3.85293V24.8998C0.335938 26.5264 1.65781 27.8436 3.27969 27.8436H7.00156C7.64891 27.8436 8.17344 27.319 8.17344 26.6717C8.17344 26.0243 7.64891 25.4998 7.00156 25.4998H3.27969C2.94969 25.4998 2.67969 25.2298 2.67969 24.8998V10.692H27.3266V24.8998C27.3266 25.2298 27.0566 25.4998 26.7266 25.4998H25.7703C25.123 25.4998 24.5984 26.0243 24.5984 26.6717C24.5984 27.319 25.123 27.8436 25.7703 27.8436H26.7266C28.3484 27.8436 29.6703 26.5264 29.6703 24.8998V3.85293C29.6703 2.22637 28.3484 0.90918 26.7266 0.90918ZM27.3266 8.34824H2.67969V3.85293C2.67969 3.52012 2.95156 3.25293 3.27969 3.25293H26.7266C27.0547 3.25293 27.3266 3.52012 27.3266 3.85293V8.34824Z" fill="white"/>
<path d="M21.1053 27.0901L17.7617 23.7465C18.4306 23.3561 19.2204 23.1076 20.1162 23.0279C20.3904 23.0031 20.6478 22.8826 20.8418 22.6876L20.9717 22.5573C21.2473 22.2808 21.3673 21.8851 21.2914 21.5026C21.2159 21.1201 20.9543 20.8 20.5948 20.6495L10.1792 16.2878C9.74043 16.1031 9.23372 16.2034 8.89809 16.54C8.56153 16.8761 8.46215 17.3823 8.64543 17.8211L13.0072 28.2372C13.1581 28.5976 13.4787 28.8587 13.8622 28.9342C13.9372 28.9487 14.0131 28.9562 14.0881 28.9562C14.3961 28.9562 14.6956 28.8343 14.9178 28.6126L15.0481 28.4823C15.2422 28.2878 15.3612 28.0318 15.3861 27.7586C15.4662 26.8628 15.7147 26.0725 16.1051 25.4036L19.4487 28.7472C19.6775 28.9759 19.9775 29.0903 20.2775 29.0903C20.5775 29.0903 20.877 28.9759 21.1062 28.7472C21.5628 28.2892 21.5628 27.5476 21.1053 27.0901ZM13.9601 24.4459L11.9117 19.554L16.8036 21.6025C16.2232 21.9165 15.7001 22.3047 15.2379 22.7551C15.2154 22.7743 15.1906 22.7898 15.1695 22.8109C15.1484 22.832 15.1334 22.8564 15.1142 22.8784C14.6628 23.3415 14.2742 23.8651 13.9601 24.4459Z" fill="white"/>
</g>
<defs>
<clipPath id="clip0_4636_8138">
<rect width="30" height="30" fill="white"/>
</clipPath>
</defs>
</svg>
