<svg width="30" height="30" viewBox="0 0 30 30" fill="none" xmlns="http://www.w3.org/2000/svg">
<g clip-path="url(#clip0_4636_8113)">
<mask id="mask0_4636_8113" style="mask-type:luminance" maskUnits="userSpaceOnUse" x="0" y="0" width="30" height="30">
<path d="M0 1.90735e-06H30V30H0V1.90735e-06Z" fill="white"/>
</mask>
<g mask="url(#mask0_4636_8113)">
<path fill-rule="evenodd" clip-rule="evenodd" d="M0 29.1211C0 29.6065 0.3935 30 0.878906 30H29.1211C29.6065 30 30 29.6065 30 29.1211V25.4883C30 22.8081 28.2867 20.5304 25.8984 19.6862C25.4407 19.5245 24.9386 19.7644 24.7768 20.222C24.615 20.6797 24.8549 21.1818 25.3126 21.3436C27.0206 21.9473 28.2422 23.5762 28.2422 25.4883V28.2422H1.75781V25.4883C1.75781 23.5762 2.9794 21.9473 4.68742 21.3436C5.14508 21.1818 5.38496 20.6797 5.2232 20.222C5.06144 19.7644 4.5593 19.5245 4.10164 19.6862C1.71325 20.5304 0 22.8081 0 25.4883V29.1211Z" fill="white"/>
<path fill-rule="evenodd" clip-rule="evenodd" d="M4.39453 30C4.87994 30 5.27344 29.6065 5.27344 29.1211V17.5781H24.7266V29.1211C24.7266 29.6065 25.1201 30 25.6055 30C26.0909 30 26.4844 29.6065 26.4844 29.1211V16.6992C26.4844 16.2138 26.0909 15.8203 25.6055 15.8203H4.39453C3.90912 15.8203 3.51562 16.2138 3.51562 16.6992V29.1211C3.51562 29.6065 3.90912 30 4.39453 30Z" fill="white"/>
<path fill-rule="evenodd" clip-rule="evenodd" d="M8.17822 17.5517C8.64913 17.4339 8.93544 16.9568 8.81772 16.4858L7.0599 9.45459C6.94217 8.98368 6.46499 8.69737 5.99407 8.8151C5.52316 8.93283 5.23685 9.41001 5.35457 9.88093L7.11239 16.9122C7.23012 17.3831 7.7073 17.6694 8.17822 17.5517Z" fill="white"/>
<path fill-rule="evenodd" clip-rule="evenodd" d="M21.8144 17.5517C22.2853 17.6694 22.7625 17.3831 22.8802 16.9122L24.638 9.88093C24.7558 9.41001 24.4694 8.93283 23.9985 8.8151C23.5276 8.69737 23.0504 8.98368 22.9327 9.45459L21.1749 16.4858C21.0572 16.9568 21.3435 17.4339 21.8144 17.5517Z" fill="white"/>
<path fill-rule="evenodd" clip-rule="evenodd" d="M10.6016 13.1836C10.6016 15.6106 12.5691 17.5781 14.9961 17.5781C17.4231 17.5781 19.3906 15.6106 19.3906 13.1836V8.23266C19.3906 7.74725 18.9971 7.35375 18.5117 7.35375C18.0263 7.35375 17.6328 7.74725 17.6328 8.23266V13.1836C17.6328 14.6398 16.4523 15.8203 14.9961 15.8203C13.5399 15.8203 12.3594 14.6398 12.3594 13.1836V8.23266C12.3594 7.74725 11.9659 7.35375 11.4805 7.35375C10.9951 7.35375 10.6016 7.74725 10.6016 8.23266V13.1836Z" fill="white"/>
<path fill-rule="evenodd" clip-rule="evenodd" d="M5.39122 9.99415C5.57145 10.4447 6.08275 10.6639 6.53336 10.4839C6.53347 10.4839 6.53357 10.4838 6.53368 10.4838L6.53467 10.4834C6.53605 10.4828 6.53848 10.4819 6.54194 10.4805C6.54887 10.4778 6.55992 10.4735 6.57497 10.4676C6.60507 10.456 6.65113 10.4384 6.71208 10.4156C6.834 10.3701 7.01536 10.3041 7.24763 10.2245C7.71249 10.0651 8.37937 9.85164 9.18031 9.63806C10.7903 9.20874 12.9054 8.78883 14.9963 8.78883C17.0873 8.78883 19.2024 9.20874 20.8123 9.63806C21.6133 9.85164 22.2802 10.0651 22.745 10.2245C22.9773 10.3041 23.1587 10.3701 23.2806 10.4156C23.3415 10.4384 23.3876 10.456 23.4177 10.4676C23.4327 10.4735 23.4438 10.4778 23.4507 10.4805C23.4542 10.4819 23.4566 10.4828 23.458 10.4834L23.459 10.4838C23.459 10.4838 23.4591 10.4838 23.4592 10.4839M6.20727 9.66773L5.88085 8.85169C5.43016 9.03197 5.21095 9.54346 5.39122 9.99415M23.4592 10.4839C23.9098 10.664 24.4212 10.4448 24.6014 9.99415C24.7817 9.54346 24.5625 9.03197 24.1118 8.85169L23.7854 9.66773C24.1118 8.85169 24.1117 8.85163 24.1115 8.85156L24.1099 8.85093L24.1064 8.84953C24.1035 8.84839 24.0996 8.84683 24.0946 8.84487C24.0846 8.84095 24.0705 8.8354 24.0522 8.82835C24.0158 8.81426 23.9632 8.79412 23.8954 8.76881C23.7598 8.7182 23.5635 8.64684 23.3151 8.56168C22.8187 8.39147 22.1123 8.16547 21.2653 7.9396C19.5793 7.49001 17.2999 7.03102 14.9963 7.03102C12.6927 7.03102 10.4133 7.49001 8.72739 7.9396C7.88038 8.16547 7.17396 8.39147 6.67752 8.56168C6.42914 8.64684 6.23284 8.7182 6.09727 8.76881C6.02948 8.79412 5.97683 8.81426 5.94041 8.82835C5.9222 8.8354 5.90804 8.84095 5.89807 8.84487C5.89308 8.84683 5.88914 8.84839 5.88627 8.84953L5.88275 8.85093L5.88117 8.85156C5.881 8.85163 5.88085 8.85169 6.20727 9.66773" fill="white"/>
<path fill-rule="evenodd" clip-rule="evenodd" d="M5.65423 10.3512C6.03159 10.6565 6.58501 10.5981 6.89033 10.2208L12.9449 2.73764L12.9449 2.73763C13.4297 2.13838 14.1681 1.75778 14.9961 1.75778C15.8241 1.75778 16.5626 2.1384 17.0473 2.7376L17.0474 2.73764L23.1019 10.2208C23.4072 10.5981 23.9607 10.6565 24.338 10.3512C24.7154 10.0459 24.7738 9.49247 24.4685 9.11511L18.4139 1.63203C18.4139 1.63202 18.4139 1.632 18.4139 1.63199C17.6097 0.637932 16.3771 -2.86102e-05 14.9961 -2.86102e-05C13.6151 -2.86102e-05 12.3826 0.63796 11.5783 1.63199C11.5783 1.63199 11.5783 1.632 11.5783 1.632L5.52379 9.11511C5.21847 9.49247 5.27687 10.0459 5.65423 10.3512Z" fill="white"/>
</g>
</g>
<defs>
<clipPath id="clip0_4636_8113">
<rect width="30" height="30" fill="white"/>
</clipPath>
</defs>
</svg>
