<svg width="49" height="49" viewBox="0 0 49 49" fill="none" xmlns="http://www.w3.org/2000/svg">
<path d="M24.5052 42.3649C19.7672 42.3649 15.2233 40.4828 11.873 37.1325C8.52278 33.7822 6.64063 29.2383 6.64062 24.5003C6.64062 19.7623 8.52278 15.2184 11.873 11.8682C15.2233 8.5179 19.7672 6.63574 24.5052 6.63574C24.9113 6.63574 25.3008 6.79707 25.588 7.08423C25.8751 7.3714 26.0365 7.76088 26.0365 8.16699C26.0365 8.5731 25.8751 8.96258 25.588 9.24975C25.3008 9.53691 24.9113 9.69824 24.5052 9.69824C20.8255 9.69771 17.2774 11.0678 14.5531 13.5413C11.8287 16.0149 10.1233 19.4145 9.76956 23.0772C9.41577 26.7399 10.4389 30.4031 12.6395 33.3523C14.8401 36.3015 18.0603 38.3254 21.6721 39.0292C25.2839 39.7329 29.0284 39.0662 32.1752 37.1589C35.3221 35.2516 37.6458 32.2406 38.693 28.713C39.7403 25.1854 39.4361 21.3943 37.8397 18.0788C36.2433 14.7634 33.4693 12.1614 30.0585 10.7803C29.8636 10.7115 29.6846 10.604 29.5324 10.4641C29.3801 10.3243 29.2577 10.1551 29.1726 9.96671C29.0875 9.77832 29.0415 9.57464 29.0372 9.36797C29.0329 9.16129 29.0706 8.95588 29.1478 8.76414C29.2251 8.57239 29.3403 8.39827 29.4867 8.25228C29.633 8.10628 29.8074 7.99143 29.9994 7.91465C30.1913 7.83786 30.3968 7.80074 30.6035 7.80551C30.8101 7.81028 31.0137 7.85685 31.2019 7.94241C35.043 9.49822 38.2237 12.3411 40.1993 15.9842C42.1749 19.6272 42.8225 23.8438 42.0311 27.9118C41.2397 31.9798 39.0586 35.6461 35.8613 38.2828C32.664 40.9195 28.6495 42.3626 24.5052 42.3649Z" fill="#1F245A"/>
<path d="M24.5026 34.1981C22.5845 34.1981 20.7095 33.6293 19.1147 32.5637C17.5199 31.4981 16.2769 29.9835 15.5429 28.2114C14.8089 26.4393 14.6168 24.4894 14.991 22.6082C15.3652 20.727 16.2889 18.999 17.6451 17.6427C19.0014 16.2864 20.7294 15.3628 22.6106 14.9886C24.4919 14.6144 26.4418 14.8064 28.2138 15.5405C29.9859 16.2745 31.5005 17.5175 32.5661 19.1123C33.6318 20.7071 34.2005 22.5821 34.2005 24.5002C34.2005 27.0722 33.1788 29.5389 31.3601 31.3576C29.5414 33.1763 27.0747 34.1981 24.5026 34.1981ZM24.5026 17.8648C23.1902 17.8648 21.9074 18.2539 20.8162 18.983C19.725 19.7121 18.8745 20.7484 18.3723 21.9609C17.8701 23.1734 17.7387 24.5075 17.9947 25.7947C18.2507 27.0818 18.8827 28.2641 19.8107 29.1921C20.7386 30.1201 21.921 30.7521 23.2081 31.0081C24.4952 31.2641 25.8294 31.1327 27.0419 30.6305C28.2543 30.1283 29.2906 29.2778 30.0198 28.1866C30.7489 27.0954 31.138 25.8125 31.138 24.5002C31.1326 22.742 30.4318 21.0574 29.1886 19.8142C27.9454 18.571 26.2608 17.8701 24.5026 17.8648Z" fill="#1F245A"/>
<path d="M24.5026 26.5418C25.6302 26.5418 26.5443 25.6277 26.5443 24.5002C26.5443 23.3726 25.6302 22.4585 24.5026 22.4585C23.375 22.4585 22.4609 23.3726 22.4609 24.5002C22.4609 25.6277 23.375 26.5418 24.5026 26.5418Z" fill="#1F245A"/>
<path d="M24.5026 17.8647C24.0981 17.8595 23.7117 17.6964 23.4257 17.4104C23.1397 17.1244 22.9766 16.738 22.9714 16.3335V4.0835C22.9714 3.67738 23.1327 3.2879 23.4198 3.00074C23.707 2.71357 24.0965 2.55225 24.5026 2.55225C24.9087 2.55225 25.2982 2.71357 25.5854 3.00074C25.8725 3.2879 26.0339 3.67738 26.0339 4.0835V16.3335C26.0286 16.738 25.8655 17.1244 25.5795 17.4104C25.2935 17.6964 24.9071 17.8595 24.5026 17.8647ZM44.9193 26.0314H32.6693C32.2632 26.0314 31.8737 25.8701 31.5865 25.5829C31.2994 25.2958 31.138 24.9063 31.138 24.5002C31.138 24.0941 31.2994 23.7046 31.5865 23.4174C31.8737 23.1302 32.2632 22.9689 32.6693 22.9689H44.9193C45.3254 22.9689 45.7149 23.1302 46.002 23.4174C46.2892 23.7046 46.4505 24.0941 46.4505 24.5002C46.4505 24.9063 46.2892 25.2958 46.002 25.5829C45.7149 25.8701 45.3254 26.0314 44.9193 26.0314ZM24.5026 46.4481C24.0981 46.4428 23.7117 46.2798 23.4257 45.9937C23.1397 45.7077 22.9766 45.3213 22.9714 44.9168V32.6668C22.9714 32.2607 23.1327 31.8712 23.4198 31.5841C23.707 31.2969 24.0965 31.1356 24.5026 31.1356C24.9087 31.1356 25.2982 31.2969 25.5854 31.5841C25.8725 31.8712 26.0339 32.2607 26.0339 32.6668V44.9168C26.0286 45.3213 25.8655 45.7077 25.5795 45.9937C25.2935 46.2798 24.9071 46.4428 24.5026 46.4481ZM16.3359 26.0314H4.08594C3.67982 26.0314 3.29035 25.8701 3.00318 25.5829C2.71602 25.2958 2.55469 24.9063 2.55469 24.5002C2.55469 24.0941 2.71602 23.7046 3.00318 23.4174C3.29035 23.1302 3.67982 22.9689 4.08594 22.9689H16.3359C16.7421 22.9689 17.1315 23.1302 17.4187 23.4174C17.7059 23.7046 17.8672 24.0941 17.8672 24.5002C17.8672 24.9063 17.7059 25.2958 17.4187 25.5829C17.1315 25.8701 16.7421 26.0314 16.3359 26.0314Z" fill="#1F245A"/>
</svg>
