<svg width="45" height="45" viewBox="0 0 45 45" fill="none" xmlns="http://www.w3.org/2000/svg">
<g clip-path="url(#clip0_4636_2758)">
<path d="M22.5018 45C22.0668 44.6737 13.6388 40.6997 7.85459 30.7822C4.49983 25.0303 2.72656 18.4618 2.72656 11.7869V5.35935C4.20056 5.36304 3.95676 5.35162 4.31649 5.3692C14.9126 5.88432 22.3048 0.0707514 22.5018 0C22.7649 0.0943059 30.0149 5.89777 40.7099 5.36849C41.0436 5.35197 40.7998 5.36287 42.2769 5.35935V11.7869C42.2769 18.4618 40.5037 25.0303 37.1489 30.7822C31.3684 40.6934 22.9696 44.649 22.5018 45ZM5.36326 8.0356V11.787C5.36326 24.1079 11.9108 35.5967 22.5018 41.9539C33.0928 35.5966 39.6403 24.1079 39.6403 11.787V8.03314C36.084 8.04632 29.2887 7.41123 22.5022 3.15463C15.8602 7.32949 9.31409 8.06575 5.36326 8.0356Z" fill="white"/>
<path d="M22.5018 38.9583C22.3211 38.7511 8 30.1857 8 11.7878V10.5329L9.16735 10.3983C16.9957 9.49558 22.007 6.26835 22.5018 6.05469C22.9765 6.25965 28.0611 9.50173 35.8363 10.3983L37.0036 10.5329V11.7878C37.0037 27.915 26.1817 36.3379 22.5018 38.9583ZM10.656 12.862C10.979 21.8415 15.3393 30.2528 22.5018 35.703C29.6643 30.2527 34.0247 21.8415 34.3476 12.862C30.2043 12.2527 26.2282 10.9715 22.5018 9.0447C18.7755 10.9715 14.7993 12.2527 10.656 12.862Z" fill="white"/>
<path d="M21.1841 26.9991L16.2969 22.1118L18.1613 20.2475L21.1841 23.2703L28.162 16.2925L30.0263 18.1568L21.1841 26.9991Z" fill="white"/>
</g>
<defs>
<clipPath id="clip0_4636_2758">
<rect width="45" height="45" fill="white"/>
</clipPath>
</defs>
</svg>
