<svg width="45" height="45" viewBox="0 0 45 45" fill="none" xmlns="http://www.w3.org/2000/svg">
<g clip-path="url(#clip0_4636_8526)">
<path d="M43.5937 19.2246L43.4346 5.60856C43.4268 4.94244 42.9484 4.37238 42.2946 4.24415C41.6676 4.12128 33.086 4.74328 23.0893 0.129463C22.7153 -0.0431543 22.2847 -0.0431543 21.9107 0.129463C15.9489 2.88105 9.65382 4.21787 2.8125 4.21787C2.0359 4.21787 1.40625 4.84752 1.40625 5.62412V19.241C1.40625 31.5983 10.0399 42.3618 22.2053 44.9688C22.3993 45.0104 22.6004 45.0105 22.7946 44.9688C35.1757 42.3156 43.6877 31.257 43.5937 19.2246ZM22.5 42.1536C11.8889 39.7351 4.21875 30.1478 4.21875 19.241V7.02114C10.4858 6.89564 16.7737 5.49615 22.5 2.95005C28.1832 5.4769 34.4184 6.87445 40.6383 7.01807L40.7812 19.249C40.7775 30.1525 33.1085 39.7357 22.5 42.1536Z" fill="white"/>
<path d="M29.5312 18.2812H28.125V16.1719C28.125 13.0702 25.6017 10.5469 22.5 10.5469C19.3983 10.5469 16.875 13.0702 16.875 16.1719V18.2812H15.4688C14.6921 18.2812 14.0625 18.9109 14.0625 19.6875V30.9375C14.0625 31.7141 14.6921 32.3438 15.4688 32.3438H29.5312C30.3079 32.3438 30.9375 31.7141 30.9375 30.9375V19.6875C30.9375 18.9109 30.3079 18.2812 29.5312 18.2812ZM19.6875 16.1719C19.6875 14.621 20.9492 13.3594 22.5 13.3594C24.0508 13.3594 25.3125 14.621 25.3125 16.1719V18.2812H19.6875V16.1719ZM28.125 29.5312H16.875V21.0938H28.125V29.5312Z" fill="white"/>
<path d="M22.5 23.2031C21.7234 23.2031 21.0938 23.8328 21.0938 24.6094V26.0156C21.0938 26.7922 21.7234 27.4219 22.5 27.4219C23.2766 27.4219 23.9062 26.7922 23.9062 26.0156V24.6094C23.9062 23.8328 23.2767 23.2031 22.5 23.2031Z" fill="white"/>
</g>
<defs>
<clipPath id="clip0_4636_8526">
<rect width="45" height="45" fill="white"/>
</clipPath>
</defs>
</svg>
