<svg width="40" height="40" viewBox="0 0 40 40" fill="none" xmlns="http://www.w3.org/2000/svg">
<g clip-path="url(#clip0_4636_6082)">
<mask id="mask0_4636_6082" style="mask-type:luminance" maskUnits="userSpaceOnUse" x="0" y="0" width="40" height="40">
<path d="M0 3.8147e-06H40V40H0V3.8147e-06Z" fill="white"/>
</mask>
<g mask="url(#mask0_4636_6082)">
<path fill-rule="evenodd" clip-rule="evenodd" d="M0 20C0 31.0026 8.9974 40 20 40C31.0026 40 40 31.0026 40 20C40 15.4378 38.3873 11.2452 35.8304 7.9038L33.9691 9.32808C36.2427 12.2994 37.6562 15.9994 37.6562 20C37.6562 29.7082 29.7082 37.6563 20 37.6563C10.2918 37.6563 2.34375 29.7082 2.34375 20C2.34375 10.2919 10.2918 2.34375 20 2.34375C24.0006 2.34375 27.7006 3.75726 30.672 6.03098L32.0963 4.16965C28.7548 1.61275 24.5623 3.8147e-06 20 3.8147e-06C8.9974 3.8147e-06 0 8.99749 0 20Z" fill="white"/>
<path fill-rule="evenodd" clip-rule="evenodd" d="M25.8594 14.1406H30.626L40.001 4.76563H35.2344V-0.00102997L25.8594 9.37397V14.1406ZM28.2031 11.7969V10.3448L32.8906 5.65728V7.10938H34.3427L29.6552 11.7969H28.2031Z" fill="white"/>
<path fill-rule="evenodd" clip-rule="evenodd" d="M20.8292 20.8291L27.8605 13.7978L26.2032 12.1405L19.1719 19.1718L20.8292 20.8291Z" fill="white"/>
<path fill-rule="evenodd" clip-rule="evenodd" d="M7.10938 20C7.10938 27.1085 12.8915 32.8906 20 32.8906C27.1085 32.8906 32.8906 27.1085 32.8906 20C32.8906 17.1005 31.9273 14.4196 30.3056 12.2642L28.4328 13.6733C29.7604 15.4378 30.5469 17.6277 30.5469 20C30.5469 25.8141 25.8141 30.5469 20 30.5469C14.1859 30.5469 9.45312 25.8141 9.45312 20C9.45312 14.1859 14.1859 9.45312 20 9.45312C22.3722 9.45312 24.5622 10.2396 26.3267 11.5672L27.7358 9.69435C25.5804 8.0727 22.8994 7.10938 20 7.10938C12.8915 7.10938 7.10938 12.8915 7.10938 20Z" fill="white"/>
<path fill-rule="evenodd" clip-rule="evenodd" d="M14.1406 20C14.1406 23.236 16.764 25.8594 20 25.8594C23.236 25.8594 25.8594 23.236 25.8594 20C25.8594 16.764 23.236 14.1406 20 14.1406C16.764 14.1406 14.1406 16.764 14.1406 20ZM20 23.5156C18.0584 23.5156 16.4844 21.9416 16.4844 20C16.4844 18.0584 18.0584 16.4844 20 16.4844C21.9416 16.4844 23.5156 18.0584 23.5156 20C23.5156 21.9416 21.9416 23.5156 20 23.5156Z" fill="white"/>
</g>
</g>
<defs>
<clipPath id="clip0_4636_6082">
<rect width="40" height="40" fill="white"/>
</clipPath>
</defs>
</svg>
