<svg width="46" height="46" viewBox="0 0 46 46" fill="none" xmlns="http://www.w3.org/2000/svg">
<path d="M22.9961 27.1328C20.7668 27.1328 18.9531 28.9465 18.9531 31.1758C18.9531 32.9327 20.0799 34.4306 21.6484 34.987V40.6094H24.3438V34.987C25.9123 34.4306 27.0391 32.9327 27.0391 31.1758C27.0391 28.9465 25.2254 27.1328 22.9961 27.1328ZM22.9961 32.5234C22.253 32.5234 21.6484 31.9189 21.6484 31.1758C21.6484 30.4327 22.253 29.8281 22.9961 29.8281C23.7392 29.8281 24.3438 30.4327 24.3438 31.1758C24.3438 31.9189 23.7392 32.5234 22.9961 32.5234Z" fill="white"/>
<path d="M35.125 19.0469V12.1289C35.125 5.44103 29.684 0 22.9961 0C16.3082 0 10.8672 5.44103 10.8672 12.1289V19.0469H8.17188V31.1758C8.17188 39.3499 14.822 46 22.9961 46C31.1702 46 37.8203 39.3499 37.8203 31.1758V19.0469H35.125ZM13.5625 12.1289C13.5625 6.92722 17.7944 2.69531 22.9961 2.69531C28.1978 2.69531 32.4297 6.92722 32.4297 12.1289V19.0469H29.7344V12.1289C29.7344 8.41342 26.7116 5.39062 22.9961 5.39062C19.2806 5.39062 16.2578 8.41342 16.2578 12.1289V19.0469H13.5625V12.1289ZM18.9531 21.5159V19.0469V12.1289C18.9531 9.89961 20.7668 8.08594 22.9961 8.08594C25.2254 8.08594 27.0391 9.89961 27.0391 12.1289V19.0469V21.5159V21.7422H18.9531V21.5159ZM35.125 31.1758C35.125 37.8637 29.684 43.3047 22.9961 43.3047C16.3082 43.3047 10.8672 37.8637 10.8672 31.1758V21.7422H16.2578V24.4375H29.7344V21.7422H35.125V31.1758Z" fill="white"/>
</svg>
