<svg width="25" height="25" viewBox="0 0 25 25" fill="none" xmlns="http://www.w3.org/2000/svg">
<path d="M12.5026 22.9168C6.77344 22.9168 2.08594 18.2293 2.08594 12.5002C2.08594 6.771 6.77344 2.0835 12.5026 2.0835C18.2318 2.0835 22.9193 6.771 22.9193 12.5002C22.9193 18.2293 18.2318 22.9168 12.5026 22.9168ZM12.5026 4.16683C7.91927 4.16683 4.16927 7.91683 4.16927 12.5002C4.16927 17.0835 7.91927 20.8335 12.5026 20.8335C17.0859 20.8335 20.8359 17.0835 20.8359 12.5002C20.8359 7.91683 17.0859 4.16683 12.5026 4.16683Z" fill="#F16C22"/>
<path d="M11.6641 16.6666C11.3516 16.6666 11.1432 16.5625 10.9349 16.3541L7.28906 12.8125C6.8724 12.3958 6.8724 11.7708 7.28906 11.3541C7.70573 10.9375 8.33073 10.9375 8.7474 11.3541L11.6641 14.0625L16.2474 8.64578C16.6641 8.22912 17.2891 8.12495 17.7057 8.54162C18.1224 8.95828 18.2266 9.58328 17.8099 9.99995L12.6016 16.25C12.2891 16.5625 12.0807 16.6666 11.6641 16.6666C11.7682 16.6666 11.7682 16.6666 11.6641 16.6666Z" fill="#F16C22"/>
</svg>
