<svg width="112" height="52" viewBox="0 0 112 52" fill="none" xmlns="http://www.w3.org/2000/svg">
<g opacity="0.9">
<path d="M3.12388 45.1582C3.99566 45.1582 4.64949 45.4534 5.23068 45.97C5.267 46.0069 5.267 46.0807 5.23068 46.1176L5.08538 46.2652C5.04906 46.3021 4.97641 46.3021 4.94009 46.2652C4.43155 45.8224 3.81404 45.5272 3.12388 45.5272C1.59826 45.5272 0.43589 46.7818 0.43589 48.2948C0.43589 49.8077 1.63459 51.0624 3.12388 51.0624C3.88669 51.0624 4.43155 50.7671 4.94009 50.3243C4.97641 50.2874 5.04906 50.2874 5.08538 50.3243L5.23068 50.4719C5.267 50.5088 5.267 50.5826 5.23068 50.6195C4.64949 51.21 3.88669 51.4683 3.12388 51.4683C1.38032 51.4683 0 50.066 0 48.2948C0 46.5973 1.41664 45.1582 3.12388 45.1582Z" fill="black"/>
</g>
<g opacity="0.9">
<path d="M11.7222 48.4425L9.50644 45.4166C9.47011 45.3428 9.50644 45.269 9.57909 45.269H9.83336C9.86968 45.269 9.906 45.269 9.94233 45.3059L11.9038 48.0366L13.9017 45.3059C13.938 45.269 13.9743 45.269 14.0106 45.269H14.2649C14.3376 45.269 14.3739 45.3428 14.3376 45.4166L12.0855 48.4425V51.3208C12.0855 51.3946 12.0491 51.4315 11.9765 51.4315C11.8675 51.4315 11.6859 51.4684 11.6859 51.3208V48.4425H11.7222Z" fill="black"/>
</g>
<g opacity="0.9">
<path d="M19.1328 45.3797C19.1328 45.3059 19.1691 45.269 19.2418 45.269H21.0943C22.1477 45.269 22.8742 45.8964 22.8742 46.8558C22.8742 47.5569 22.4746 48.0735 21.9298 48.2949C22.5473 48.4794 23.0558 48.9222 23.0558 49.771C23.0558 50.7673 22.293 51.4315 21.167 51.4315H19.2418C19.1691 51.4315 19.1328 51.3946 19.1328 51.3208V45.3797ZM21.2033 51.0625C22.0387 51.0625 22.6199 50.509 22.6199 49.7341C22.6199 48.9591 21.9661 48.4794 21.1306 48.4794H19.4961V51.0256H21.2033V51.0625ZM21.1306 48.1104C21.9298 48.1104 22.4383 47.5938 22.4383 46.8558C22.4383 46.0809 21.9298 45.6381 21.0943 45.6381H19.5324V48.1104H21.1306Z" fill="black"/>
</g>
<g opacity="0.9">
<path d="M28.3281 45.3797C28.3281 45.3059 28.3645 45.269 28.4371 45.269H31.9242C31.9969 45.269 32.0332 45.3059 32.0332 45.3797V45.5273C32.0332 45.6012 31.9969 45.6381 31.9242 45.6381H28.764V48.0735H31.5247C31.5973 48.0735 31.6336 48.1104 31.6336 48.1842V48.3318C31.6336 48.4056 31.5973 48.4425 31.5247 48.4425H28.764V51.0625H31.9242C31.9969 51.0625 32.0332 51.0994 32.0332 51.1732V51.3208C32.0332 51.3946 31.9969 51.4315 31.9242 51.4315H28.4371C28.3645 51.4315 28.3281 51.3946 28.3281 51.3208V45.3797Z" fill="black"/>
</g>
<g opacity="0.9">
<path d="M37.3359 45.3797C37.3359 45.3059 37.3723 45.269 37.4449 45.269H39.588C40.6414 45.269 41.5132 46.0809 41.5132 47.151C41.5132 48.0366 40.8957 48.7377 40.0966 48.996L41.3679 51.2839C41.4042 51.3577 41.4042 51.4315 41.2953 51.4315H41.041C40.9684 51.4315 40.932 51.3946 40.932 51.3577L39.6607 49.0698C39.5517 49.0698 39.4427 49.0698 39.3338 49.0698H37.7355V51.3208C37.7355 51.3946 37.6992 51.4315 37.5902 51.4315H37.4449C37.3723 51.4315 37.3359 51.3946 37.3359 51.3208V45.3797ZM39.588 48.6639C40.4235 48.6639 41.1137 47.9997 41.1137 47.1141C41.1137 46.2654 40.4235 45.6381 39.588 45.6381H37.7718V48.6639H39.588Z" fill="black"/>
</g>
<g opacity="0.9">
<path d="M46.4224 50.5805L46.4951 50.4698C46.5677 50.396 46.604 50.3591 46.6767 50.4329C46.7493 50.5067 47.4032 51.0971 48.2749 51.0971C49.0741 51.0971 49.7279 50.5436 49.7279 49.9163C49.7279 49.1413 49.1104 48.7723 48.057 48.4033C47.0399 48.0343 46.3861 47.6653 46.3861 46.669C46.3861 46.0048 46.8946 45.1191 48.2749 45.1191C49.1467 45.1191 49.7642 45.562 49.7642 45.562C49.8006 45.5989 49.8732 45.6358 49.8006 45.7465C49.7642 45.7834 49.7642 45.8203 49.7279 45.8572C49.6916 45.931 49.6189 45.9679 49.5463 45.8941C49.51 45.8941 48.9288 45.4881 48.2749 45.4881C47.2215 45.4881 46.822 46.1524 46.822 46.669C46.822 47.407 47.3668 47.7391 48.2749 48.0343C49.4736 48.4402 50.2001 48.883 50.2001 49.8794C50.2001 50.765 49.292 51.4292 48.3113 51.4292C47.2942 51.4292 46.604 50.8019 46.4587 50.6912C46.3861 50.7281 46.3498 50.6912 46.4224 50.5805Z" fill="black"/>
</g>
<g opacity="0.9">
<path d="M55.2812 45.3797C55.2812 45.3059 55.3176 45.269 55.3902 45.269H58.8773C58.95 45.269 58.9863 45.3059 58.9863 45.3797V45.5273C58.9863 45.6012 58.95 45.6381 58.8773 45.6381H55.7171V48.0735H58.4778C58.5504 48.0735 58.5867 48.1104 58.5867 48.1842V48.3318C58.5867 48.4056 58.5504 48.4425 58.4778 48.4425H55.7171V51.0625H58.8773C58.95 51.0625 58.9863 51.0994 58.9863 51.1732V51.3208C58.9863 51.3946 58.95 51.4315 58.8773 51.4315H55.3902C55.3176 51.4315 55.2812 51.3946 55.2812 51.3208V45.3797Z" fill="black"/>
</g>
<g opacity="0.9">
<path d="M66.9839 45.1597C67.8557 45.1597 68.5096 45.4549 69.0907 45.9715C69.1271 46.0084 69.1271 46.0822 69.0907 46.1191L68.9454 46.2667C68.9091 46.3036 68.8365 46.3036 68.8001 46.2667C68.2916 45.8239 67.6741 45.5287 66.9839 45.5287C65.4583 45.5287 64.296 46.7833 64.296 48.2962C64.296 49.8092 65.4946 51.0638 66.9839 51.0638C67.7467 51.0638 68.2916 50.7686 68.8001 50.3258C68.8365 50.2889 68.9091 50.2889 68.9454 50.3258L69.0907 50.4734C69.1271 50.5103 69.1271 50.5841 69.0907 50.621C68.5096 51.2114 67.7467 51.4697 66.9839 51.4697C65.2404 51.4697 63.8601 50.0675 63.8601 48.2962C63.8237 46.5988 65.2404 45.1597 66.9839 45.1597Z" fill="black"/>
</g>
<g opacity="0.9">
<path d="M74.2344 45.3797C74.2344 45.3059 74.2707 45.269 74.3433 45.269H74.525C74.5976 45.269 74.6339 45.3059 74.6339 45.3797V49.1436C74.6339 50.2876 75.3241 51.0994 76.4865 51.0994C77.6488 51.0994 78.3753 50.2876 78.3753 49.1436V45.3797C78.3753 45.3059 78.4117 45.269 78.4843 45.269H78.6659C78.7386 45.269 78.7749 45.3059 78.7749 45.3797V49.1805C78.7749 50.509 77.8668 51.5053 76.4865 51.5053C75.1062 51.5053 74.2344 50.509 74.2344 49.1805V45.3797Z" fill="black"/>
</g>
<g opacity="0.9">
<path d="M84.3516 45.3797C84.3516 45.3059 84.3879 45.269 84.4605 45.269H86.6037C87.6571 45.269 88.5288 46.0809 88.5288 47.151C88.5288 48.0366 87.9113 48.7377 87.1122 48.996L88.3835 51.2839C88.4199 51.3577 88.4199 51.4315 88.3109 51.4315H88.0566C87.984 51.4315 87.9477 51.3946 87.9477 51.3577L86.6763 49.0698C86.5673 49.0698 86.4584 49.0698 86.3494 49.0698H84.7511V51.3208C84.7511 51.3946 84.7148 51.4315 84.6058 51.4315H84.4605C84.3879 51.4315 84.3516 51.3946 84.3516 51.3208V45.3797ZM86.6037 48.6639C87.4391 48.6639 88.1293 47.9997 88.1293 47.1141C88.1293 46.2654 87.4391 45.6381 86.6037 45.6381H84.7875V48.6639H86.6037Z" fill="black"/>
</g>
<g opacity="0.9">
<path d="M93.7891 45.3797C93.7891 45.3059 93.8254 45.269 93.898 45.269H94.0797C94.1523 45.269 94.1886 45.3059 94.1886 45.3797V51.3208C94.1886 51.3946 94.116 51.4315 94.0797 51.4315H93.898C93.8254 51.4315 93.7891 51.3946 93.7891 51.3208V45.3797Z" fill="black"/>
</g>
<g opacity="0.9">
<path d="M100.796 45.6364H99.1246C99.0519 45.6364 99.0156 45.5995 99.0156 45.4888V45.3412C99.0156 45.2674 99.0519 45.2305 99.1246 45.2305H102.866C102.939 45.2305 102.975 45.2674 102.975 45.3412V45.4888C102.975 45.5626 102.939 45.5995 102.866 45.5995H101.195V51.3191C101.195 51.3929 101.159 51.4298 101.05 51.4298H100.904C100.832 51.4298 100.796 51.3929 100.796 51.3191V45.6364Z" fill="black"/>
</g>
<g opacity="0.9">
<path d="M109.363 48.4425L107.147 45.4166C107.11 45.3428 107.11 45.269 107.219 45.269H107.474C107.51 45.269 107.546 45.269 107.583 45.3059L109.544 48.0366L111.542 45.3059C111.578 45.269 111.615 45.269 111.651 45.269H111.905C111.978 45.269 112.014 45.3428 111.978 45.4166L109.726 48.4425V51.3208C109.726 51.3946 109.689 51.4315 109.617 51.4315C109.508 51.4315 109.326 51.4684 109.326 51.3208V48.4425H109.363Z" fill="black"/>
</g>
<path d="M92.0227 34.9834L90.6061 32.7324L74.6597 8.15643C73.9696 7.0863 72.6982 6.45898 71.3542 6.45898C70.0102 6.45898 68.7389 7.1232 68.0487 8.15643L60.0938 20.4075L60.239 20.5182C62.2369 22.0312 63.6898 24.2083 64.3074 26.6807C64.3437 26.7545 64.3437 26.8283 64.3437 26.9021L64.4527 27.3449L71.3179 16.7174L83.2323 35.0572C85.9929 39.4484 86.5377 39.7067 88.8262 39.7067H95.0739L92.0227 34.9834Z" fill="#F16C22"/>
<path d="M24.4941 4.79658H26.7099C26.8189 4.79658 26.8915 4.72276 26.8915 4.61203V2.39744C26.8915 2.28671 26.8189 2.21289 26.7099 2.21289H24.4941C24.3851 2.21289 24.3125 2.28671 24.3125 2.39744V4.61203C24.3488 4.72276 24.4215 4.79658 24.4941 4.79658Z" fill="#F16C22"/>
<path d="M22.4594 0.922746H23.0769C23.1496 0.922746 23.2222 0.848925 23.2222 0.775106V0.14764C23.2222 0.0738202 23.1496 0 23.0769 0H22.4594C22.3868 0 22.3141 0.0738202 22.3141 0.14764V0.775106C22.2778 0.848925 22.3505 0.922746 22.4594 0.922746Z" fill="#F16C22"/>
<path d="M18.3199 1.40273H19.0101C19.0827 1.40273 19.119 1.32891 19.119 1.292V0.59071C19.119 0.51689 19.0464 0.47998 19.0101 0.47998H18.3199C18.2473 0.47998 18.2109 0.5538 18.2109 0.59071V1.292C18.2109 1.32891 18.2473 1.40273 18.3199 1.40273Z" fill="#F16C22"/>
<path d="M17.8847 4.31759V3.69012C17.8847 3.6163 17.812 3.54248 17.7394 3.54248H17.1219C17.0492 3.54248 16.9766 3.6163 16.9766 3.69012V4.31759C16.9766 4.39141 17.0492 4.46523 17.1219 4.46523H17.7394C17.812 4.46523 17.8847 4.39141 17.8847 4.31759Z" fill="#F16C22"/>
<path d="M18.1375 7.6021H19.0819C19.1546 7.6021 19.2272 7.52828 19.2272 7.45446V6.49481C19.2272 6.42099 19.1546 6.34717 19.0819 6.34717H18.1375C18.0648 6.34717 17.9922 6.42099 17.9922 6.49481V7.45446C17.9922 7.52828 18.0648 7.6021 18.1375 7.6021Z" fill="#F16C22"/>
<path d="M22.5725 8.70957C22.6451 8.70957 22.7178 8.63575 22.7178 8.56193V7.15936C22.7178 7.08554 22.6451 7.01172 22.5725 7.01172H21.1922C21.1195 7.01172 21.0469 7.08554 21.0469 7.15936V8.56193C21.0469 8.63575 21.1195 8.70957 21.1922 8.70957H22.5725Z" fill="#F16C22"/>
<path d="M22.6073 11.736H20.4642L19.4834 10.7397V9.41128C19.4834 9.33747 19.4108 9.26367 19.3381 9.26367H17.9578C17.8851 9.26367 17.8125 9.33747 17.8125 9.41128V10.8135C17.8125 10.8873 17.8851 10.9611 17.9578 10.9611H19.2291L20.2099 11.9574V14.1346C20.2099 14.2084 20.2825 14.2822 20.3552 14.2822H22.6073C22.6799 14.2822 22.7526 14.2084 22.7526 14.1346V11.8467C22.7526 11.8098 22.6799 11.736 22.6073 11.736Z" fill="#F16C22"/>
<path d="M21.7762 16.4952H20.1053L19.2698 15.6465V14.9823C19.2698 14.9085 19.2335 14.8716 19.1608 14.8716H18.398C18.3254 14.8716 18.2891 14.9085 18.2891 14.9823V15.7572C18.2891 15.831 18.3254 15.8679 18.398 15.8679H19.0519L19.8873 16.7166V18.4141C19.8873 18.4879 19.9236 18.5248 19.9963 18.5248H21.7762C21.8488 18.5248 21.8852 18.4879 21.8852 18.4141V16.6059C21.8852 16.5321 21.8488 16.4952 21.7762 16.4952Z" fill="#F16C22"/>
<path d="M27.9163 6.60676H27.0082H24.1022L21.6685 4.13439V2.17865C21.6685 2.06794 21.5958 1.99414 21.4869 1.99414H19.5254C19.4164 1.99414 19.3438 2.06794 19.3438 2.17865V4.1713C19.3438 4.282 19.4164 4.3558 19.5254 4.3558H21.4142L23.8479 6.82816V6.93887V8.08279V36.4227C23.8479 38.2678 25.3372 39.7438 27.1171 39.7438H31.2218V36.0168V9.92784C31.2218 8.08279 29.7325 6.60676 27.9163 6.60676Z" fill="#F16C22"/>
<path d="M53.4145 19.3742H42.4446C41.028 19.3742 39.8656 18.1933 39.8656 16.7542C39.8656 15.3151 41.028 14.1342 42.4446 14.1342H48.5107H56.3568H59.7349C61.7691 14.1342 63.44 12.4368 63.44 10.3703V6.60645H60.0618H56.3568H50.1817H42.4446C36.9233 6.60645 32.4191 11.1822 32.4191 16.7911C32.4191 17.7136 32.5281 18.5623 32.7461 19.4111C33.8721 23.7654 37.7951 26.9758 42.4083 26.9758H53.3782C54.7948 26.9758 55.9572 28.1566 55.9572 29.5957C55.9572 29.6695 55.9572 29.7433 55.9572 29.8171C55.9572 29.854 55.9572 29.9278 55.9209 29.9647C55.9209 29.9647 55.9209 29.9647 55.9209 30.0016C55.7393 31.2563 54.6495 32.2157 53.3782 32.2157H41.2459C41.2096 32.2157 41.2096 32.2157 41.1733 32.2157H32.3828V39.7804C32.4191 39.7804 53.3419 39.7804 53.3419 39.7804C58.8631 39.7804 63.3673 35.2047 63.3673 29.5957C63.3673 28.6732 63.2584 27.8245 63.0404 26.9758C61.9507 22.5846 58.064 19.3742 53.4145 19.3742Z" fill="#F16C22"/>
</svg>
