<svg width="1044" height="609" viewBox="0 0 1044 609" fill="none" xmlns="http://www.w3.org/2000/svg">
<path d="M15.7071 12.2929C15.3166 11.9023 14.6834 11.9023 14.2929 12.2929L7.92891 18.6569C7.53839 19.0474 7.53839 19.6805 7.92891 20.071C8.31943 20.4616 8.9526 20.4616 9.34312 20.071L15 14.4142L20.6568 20.071C21.0474 20.4616 21.6805 20.4616 22.071 20.071C22.4616 19.6805 22.4616 19.0474 22.071 18.6569L15.7071 12.2929ZM16 594L16 587.083L14 587.083L14 594L16 594ZM16 573.25L16 559.417L14 559.417L14 573.25L16 573.25ZM16 545.583L16 531.75L14 531.75L14 545.583L16 545.583ZM16 517.917L16 504.083L14 504.083L14 517.917L16 517.917ZM16 490.25L16 476.417L14 476.417L14 490.25L16 490.25ZM16 462.583L16 448.75L14 448.75L14 462.583L16 462.583ZM16 434.917L16 421.083L14 421.083L14 434.917L16 434.917ZM16 407.25L16 393.417L14 393.417L14 407.25L16 407.25ZM16 379.583L16 365.75L14 365.75L14 379.583L16 379.583ZM16 351.917L16 338.083L14 338.083L14 351.917L16 351.917ZM16 324.25L16 310.417L14 310.417L14 324.25L16 324.25ZM16 296.583L16 282.75L14 282.75L14 296.583L16 296.583ZM16 268.917L16 255.083L14 255.083L14 268.917L16 268.917ZM16 241.25L16 227.417L14 227.417L14 241.25L16 241.25ZM16 213.583L16 199.75L14 199.75L14 213.583L16 213.583ZM16 185.917L16 172.083L14 172.083L14 185.917L16 185.917ZM16 158.25L16 144.417L14 144.417L14 158.25L16 158.25ZM16 130.583L16 116.75L14 116.75L14 130.583L16 130.583ZM16 102.917L16 89.0832L14 89.0832L14 102.917L16 102.917ZM16 75.2499L16 61.4166L14 61.4166L14 75.2499L16 75.2499ZM16 47.5833L16 33.7499L14 33.7499L14 47.5833L16 47.5833ZM16 19.9166L16 13L14 13L14 19.9166L16 19.9166ZM16.4142 11.5858C15.6331 10.8047 14.3668 10.8047 13.5858 11.5858L0.857842 24.3137C0.0767932 25.0948 0.0767932 26.3611 0.857842 27.1422C1.63889 27.9232 2.90522 27.9232 3.68627 27.1422L15 15.8284L26.3137 27.1422C27.0947 27.9232 28.3611 27.9232 29.1421 27.1422C29.9232 26.3611 29.9232 25.0948 29.1421 24.3137L16.4142 11.5858ZM17 594L17 587.083L13 587.083L13 594L17 594ZM17 573.25L17 559.417L13 559.417L13 573.25L17 573.25ZM17 545.583L17 531.75L13 531.75L13 545.583L17 545.583ZM17 517.917L17 504.083L13 504.083L13 517.917L17 517.917ZM17 490.25L17 476.417L13 476.417L13 490.25L17 490.25ZM17 462.583L17 448.75L13 448.75L13 462.583L17 462.583ZM17 434.917L17 421.083L13 421.083L13 434.917L17 434.917ZM17 407.25L17 393.417L13 393.417L13 407.25L17 407.25ZM17 379.583L17 365.75L13 365.75L13 379.583L17 379.583ZM17 351.917L17 338.083L13 338.083L13 351.917L17 351.917ZM17 324.25L17 310.417L13 310.417L13 324.25L17 324.25ZM17 296.583L17 282.75L13 282.75L13 296.583L17 296.583ZM17 268.917L17 255.083L13 255.083L13 268.917L17 268.917ZM17 241.25L17 227.417L13 227.417L13 241.25L17 241.25ZM17 213.583L17 199.75L13 199.75L13 213.583L17 213.583ZM17 185.917L17 172.083L13 172.083L13 185.917L17 185.917ZM17 158.25L17 144.417L13 144.417L13 158.25L17 158.25ZM17 130.583L17 116.75L13 116.75L13 130.583L17 130.583ZM17 102.917L17 89.0832L13 89.0832L13 102.917L17 102.917ZM17 75.2499L17 61.4166L13 61.4166L13 75.2499L17 75.2499ZM17 47.5833L17 33.7499L13 33.7499L13 47.5833L17 47.5833ZM17 19.9166L17 13L13 13L13 19.9166L17 19.9166Z" fill="#F2F3F4" fill-opacity="0.37"/>
<path d="M1042.71 594.707C1043.1 594.317 1043.1 593.683 1042.71 593.293L1036.34 586.929C1035.95 586.538 1035.32 586.538 1034.93 586.929C1034.54 587.319 1034.54 587.953 1034.93 588.343L1040.59 594L1034.93 599.657C1034.54 600.047 1034.54 600.681 1034.93 601.071C1035.32 601.462 1035.95 601.462 1036.34 601.071L1042.71 594.707ZM15 595H21.9392V593H15V595ZM35.8176 595H49.6959V593H35.8176V595ZM63.5743 595H77.4527V593H63.5743V595ZM91.3311 595H105.209V593H91.3311V595ZM119.088 595H132.966V593H119.088V595ZM146.845 595H160.723V593H146.845V595ZM174.601 595H188.48V593H174.601V595ZM202.358 595H216.236V593H202.358V595ZM230.115 595H243.993V593H230.115V595ZM257.872 595H271.75V593H257.872V595ZM285.628 595H299.507V593H285.628V595ZM313.385 595H327.264V593H313.385V595ZM341.142 595H355.02V593H341.142V595ZM368.899 595H382.777V593H368.899V595ZM396.655 595H410.534V593H396.655V595ZM424.412 595H438.291V593H424.412V595ZM452.169 595H466.047V593H452.169V595ZM479.926 595H493.804V593H479.926V595ZM507.683 595H521.561V593H507.683V595ZM535.439 595H549.318V593H535.439V595ZM563.196 595H577.074V593H563.196V595ZM590.953 595H604.831V593H590.953V595ZM618.709 595H632.588V593H618.709V595ZM646.466 595H660.345V593H646.466V595ZM674.223 595H688.101V593H674.223V595ZM701.98 595H715.858V593H701.98V595ZM729.736 595H743.615V593H729.736V595ZM757.493 595H771.371V593H757.493V595ZM785.25 595H799.128V593H785.25V595ZM813.006 595H826.885V593H813.006V595ZM840.763 595H854.642V593H840.763V595ZM868.52 595H882.398V593H868.52V595ZM896.277 595H910.155V593H896.277V595ZM924.033 595H937.912V593H924.033V595ZM951.79 595H965.668V593H951.79V595ZM979.547 595H993.425V593H979.547V595ZM1007.3 595H1021.18V593H1007.3V595ZM1035.06 595H1042V593H1035.06V595ZM1043.41 595.414C1044.2 594.633 1044.2 593.367 1043.41 592.586L1030.69 579.858C1029.91 579.077 1028.64 579.077 1027.86 579.858C1027.08 580.639 1027.08 581.905 1027.86 582.686L1039.17 594L1027.86 605.314C1027.08 606.095 1027.08 607.361 1027.86 608.142C1028.64 608.923 1029.91 608.923 1030.69 608.142L1043.41 595.414ZM15 596H21.9392V592H15V596ZM35.8176 596H49.6959V592H35.8176V596ZM63.5743 596H77.4527V592H63.5743V596ZM91.3311 596H105.209V592H91.3311V596ZM119.088 596H132.966V592H119.088V596ZM146.845 596H160.723V592H146.845V596ZM174.601 596H188.48V592H174.601V596ZM202.358 596H216.236V592H202.358V596ZM230.115 596H243.993V592H230.115V596ZM257.872 596H271.75V592H257.872V596ZM285.628 596H299.507V592H285.628V596ZM313.385 596H327.264V592H313.385V596ZM341.142 596H355.02V592H341.142V596ZM368.899 596H382.777V592H368.899V596ZM396.655 596H410.534V592H396.655V596ZM424.412 596H438.291V592H424.412V596ZM452.169 596H466.047V592H452.169V596ZM479.926 596H493.804V592H479.926V596ZM507.683 596H521.561V592H507.683V596ZM535.439 596H549.318V592H535.439V596ZM563.196 596H577.074V592H563.196V596ZM590.953 596H604.831V592H590.953V596ZM618.709 596H632.588V592H618.709V596ZM646.466 596H660.345V592H646.466V596ZM674.223 596H688.101V592H674.223V596ZM701.98 596H715.858V592H701.98V596ZM729.736 596H743.615V592H729.736V596ZM757.493 596H771.371V592H757.493V596ZM785.25 596H799.128V592H785.25V596ZM813.006 596H826.885V592H813.006V596ZM840.763 596H854.642V592H840.763V596ZM868.52 596H882.398V592H868.52V596ZM896.277 596H910.155V592H896.277V596ZM924.033 596H937.912V592H924.033V596ZM951.79 596H965.668V592H951.79V596ZM979.547 596H993.425V592H979.547V596ZM1007.3 596H1021.18V592H1007.3V596ZM1035.06 596H1042V592H1035.06V596Z" fill="#F2F3F4" fill-opacity="0.37"/>
<path d="M832.5 123L819 119.5V120.5L822.5 124L826.5 129L830 135L832.5 123Z" fill="#F16C22"/>
<path d="M829.5 136.5C828 128 819.5 120.5 809 112" stroke="#F16C22"/>
<path d="M851 123L864.5 119.5V120.5L861 124L857 129L853.5 135L851 123Z" fill="#F16C22"/>
<path d="M854 136.5C855.5 128 864 120.5 874.5 112" stroke="#F16C22"/>
<path d="M794.003 78.1153C794.001 87.101 796.531 95.9057 801.302 103.523C806.074 111.14 812.894 117.261 820.985 121.188C829.075 125.114 838.107 126.686 847.05 125.725C855.992 124.764 864.484 121.308 871.552 115.752C878.621 110.196 883.982 102.765 887.023 94.3084C890.063 85.8518 890.66 76.7109 888.745 67.9314C886.83 59.1518 882.48 51.0879 876.194 44.6618C869.907 38.2358 861.937 33.707 853.195 31.5934L851.674 31.2396C848.841 30.2821 843.34 26.8684 843.007 14.8788V0H840.924V14.0671C840.924 26.9725 834.923 30.3653 832.09 31.2604L830.777 31.5518C820.301 34.0549 810.975 40.011 804.303 48.459C797.631 56.907 794.003 67.3544 794.003 78.1153ZM841.924 38.9204C849.683 38.9204 857.268 41.2191 863.72 45.5259C870.171 49.8327 875.2 55.9541 878.169 63.1161C881.139 70.278 881.916 78.1588 880.402 85.7619C878.888 93.365 875.151 100.349 869.665 105.83C864.178 111.312 857.188 115.045 849.577 116.557C841.967 118.07 834.079 117.293 826.91 114.327C819.741 111.36 813.614 106.336 809.303 99.8909C804.992 93.4453 802.691 85.8674 802.691 78.1153C802.708 67.7253 806.847 57.7655 814.201 50.4186C821.554 43.0717 831.524 38.9369 841.924 38.9204Z" fill="#F16C22"/>
<rect x="829" y="121" width="26" height="473" fill="#F16C22"/>
<path d="M847.547 74.5C845.647 73.6415 843.585 73.1975 841.5 73.1975C839.415 73.1975 837.353 73.6415 835.453 74.5C832.859 75.6628 830.656 77.5489 829.107 79.9322C827.558 82.3155 826.728 85.095 826.719 87.9375V90.625C826.719 91.6942 827.143 92.7195 827.899 93.4755C828.655 94.2315 829.681 94.6563 830.75 94.6563H852.25C853.319 94.6563 854.345 94.2315 855.101 93.4755C855.857 92.7195 856.281 91.6942 856.281 90.625V87.9375C856.272 85.095 855.442 82.3155 853.893 79.9322C852.344 77.5489 850.141 75.6628 847.547 74.5ZM844.564 76.2469L841.5 79.3241L838.436 76.2469C840.443 75.7091 842.557 75.7091 844.564 76.2469ZM841.5 91.2163L839.699 89.0528L841.5 84.7125L843.301 89.0528L841.5 91.2163ZM829.406 90.625V87.9375C829.406 85.7651 829.992 83.6329 831.101 81.765C832.21 79.897 833.801 78.3622 835.708 77.3219L839.914 81.5278L836.904 88.7706C836.816 88.9923 836.787 89.2337 836.823 89.4699C836.858 89.706 836.956 89.9285 837.106 90.1144L838.638 91.9688H830.75C830.394 91.9688 830.052 91.8272 829.8 91.5752C829.548 91.3232 829.406 90.9814 829.406 90.625ZM853.594 90.625C853.594 90.9814 853.452 91.3232 853.2 91.5752C852.948 91.8272 852.606 91.9688 852.25 91.9688H844.362L845.894 90.1413C846.044 89.9554 846.142 89.7329 846.177 89.4967C846.213 89.2605 846.184 89.0192 846.096 88.7975L843.086 81.5547L847.292 77.3488C849.195 78.3869 850.784 79.9175 851.892 81.7803C853.001 83.6431 853.589 85.7697 853.594 87.9375V90.625ZM841.5 70.4688C843.095 70.4688 844.653 69.9959 845.979 69.11C847.305 68.2241 848.339 66.9649 848.949 65.4916C849.559 64.0184 849.719 62.3973 849.408 60.8333C849.096 59.2694 848.329 57.8328 847.201 56.7052C846.073 55.5776 844.637 54.8098 843.073 54.4987C841.509 54.1876 839.888 54.3472 838.415 54.9575C836.941 55.5677 835.682 56.6011 834.796 57.927C833.91 59.2528 833.438 60.8116 833.438 62.4063C833.438 64.5446 834.287 66.5953 835.799 68.1073C837.311 69.6193 839.362 70.4688 841.5 70.4688ZM841.5 57.0313C842.563 57.0313 843.602 57.3465 844.486 57.9371C845.37 58.5277 846.059 59.3672 846.466 60.3493C846.873 61.3315 846.979 62.4122 846.772 63.4549C846.564 64.4975 846.052 65.4552 845.301 66.207C844.549 66.9587 843.591 67.4706 842.549 67.678C841.506 67.8854 840.425 67.7789 839.443 67.3721C838.461 66.9653 837.621 66.2764 837.031 65.3924C836.44 64.5085 836.125 63.4693 836.125 62.4063C836.125 60.9807 836.691 59.6136 837.699 58.6056C838.707 57.5975 840.074 57.0313 841.5 57.0313Z" fill="#F16C22"/>
<path d="M623.5 250L610 246.5V247.5L613.5 251L617.5 256L621 262L623.5 250Z" fill="#8AC6E7"/>
<path d="M620.5 263.5C619 255 610.5 247.5 600 239" stroke="#8AC6E7"/>
<path d="M642 250L655.5 246.5V247.5L652 251L648 256L644.5 262L642 250Z" fill="#8AC6E7"/>
<path d="M645 263.5C646.5 255 655 247.5 665.5 239" stroke="#8AC6E7"/>
<path d="M585.003 205.115C585.001 214.101 587.531 222.906 592.302 230.523C597.074 238.14 603.894 244.261 611.985 248.188C620.075 252.114 629.107 253.686 638.05 252.725C646.992 251.764 655.484 248.308 662.552 242.752C669.621 237.196 674.982 229.765 678.023 221.308C681.063 212.852 681.66 203.711 679.745 194.931C677.83 186.152 673.48 178.088 667.194 171.662C660.907 165.236 652.937 160.707 644.195 158.593L642.674 158.24C639.841 157.282 634.34 153.868 634.007 141.879V127H631.924V141.067C631.924 153.972 625.923 157.365 623.09 158.26L621.777 158.552C611.301 161.055 601.975 167.011 595.303 175.459C588.631 183.907 585.003 194.354 585.003 205.115ZM632.924 165.92C640.683 165.92 648.268 168.219 654.72 172.526C661.171 176.833 666.2 182.954 669.169 190.116C672.139 197.278 672.916 205.159 671.402 212.762C669.888 220.365 666.151 227.349 660.665 232.83C655.178 238.312 648.188 242.045 640.577 243.557C632.967 245.07 625.079 244.293 617.91 241.327C610.741 238.36 604.614 233.336 600.303 226.891C595.992 220.445 593.691 212.867 593.691 205.115C593.708 194.725 597.847 184.765 605.201 177.419C612.554 170.072 622.524 165.937 632.924 165.92Z" fill="#8AC6E7"/>
<rect x="620" y="248" width="26" height="346" fill="#8AC6E7"/>
<path d="M638.547 203.5C636.647 202.641 634.585 202.197 632.5 202.197C630.415 202.197 628.353 202.641 626.453 203.5C623.859 204.663 621.656 206.549 620.107 208.932C618.558 211.316 617.728 214.095 617.719 216.938V219.625C617.719 220.694 618.143 221.72 618.899 222.476C619.655 223.232 620.681 223.656 621.75 223.656H643.25C644.319 223.656 645.345 223.232 646.101 222.476C646.857 221.72 647.281 220.694 647.281 219.625V216.938C647.272 214.095 646.442 211.316 644.893 208.932C643.344 206.549 641.141 204.663 638.547 203.5ZM635.564 205.247L632.5 208.324L629.436 205.247C631.443 204.709 633.557 204.709 635.564 205.247ZM632.5 220.216L630.699 218.053L632.5 213.713L634.301 218.053L632.5 220.216ZM620.406 219.625V216.938C620.406 214.765 620.992 212.633 622.101 210.765C623.21 208.897 624.801 207.362 626.708 206.322L630.914 210.528L627.904 217.771C627.816 217.992 627.787 218.234 627.823 218.47C627.858 218.706 627.956 218.929 628.106 219.114L629.638 220.969H621.75C621.394 220.969 621.052 220.827 620.8 220.575C620.548 220.323 620.406 219.981 620.406 219.625ZM644.594 219.625C644.594 219.981 644.452 220.323 644.2 220.575C643.948 220.827 643.606 220.969 643.25 220.969H635.362L636.894 219.141C637.044 218.955 637.142 218.733 637.177 218.497C637.213 218.261 637.184 218.019 637.096 217.798L634.086 210.555L638.292 206.349C640.195 207.387 641.784 208.917 642.892 210.78C644.001 212.643 644.589 214.77 644.594 216.938V219.625ZM632.5 199.469C634.095 199.469 635.653 198.996 636.979 198.11C638.305 197.224 639.339 195.965 639.949 194.492C640.559 193.018 640.719 191.397 640.408 189.833C640.096 188.269 639.329 186.833 638.201 185.705C637.073 184.578 635.637 183.81 634.073 183.499C632.509 183.188 630.888 183.347 629.415 183.957C627.941 184.568 626.682 185.601 625.796 186.927C624.91 188.253 624.438 189.812 624.438 191.406C624.438 193.545 625.287 195.595 626.799 197.107C628.311 198.619 630.362 199.469 632.5 199.469ZM632.5 186.031C633.563 186.031 634.602 186.346 635.486 186.937C636.37 187.528 637.059 188.367 637.466 189.349C637.873 190.331 637.979 191.412 637.772 192.455C637.564 193.498 637.052 194.455 636.301 195.207C635.549 195.959 634.591 196.471 633.549 196.678C632.506 196.885 631.425 196.779 630.443 196.372C629.461 195.965 628.621 195.276 628.031 194.392C627.44 193.509 627.125 192.469 627.125 191.406C627.125 189.981 627.691 188.614 628.699 187.606C629.707 186.598 631.074 186.031 632.5 186.031Z" fill="#8AC6E7"/>
<path d="M414.5 380L401 376.5V377.5L404.5 381L408.5 386L412 392L414.5 380Z" fill="#FDD304"/>
<path d="M411.5 393.5C410 385 401.5 377.5 391 369" stroke="#FDD304"/>
<path d="M433 380L446.5 376.5V377.5L443 381L439 386L435.5 392L433 380Z" fill="#FDD304"/>
<path d="M436 393.5C437.5 385 446 377.5 456.5 369" stroke="#FDD304"/>
<path d="M376.003 335.115C376.001 344.101 378.531 352.906 383.302 360.523C388.074 368.14 394.894 374.261 402.985 378.188C411.075 382.114 420.107 383.686 429.05 382.725C437.992 381.764 446.484 378.308 453.552 372.752C460.621 367.196 465.982 359.765 469.023 351.308C472.063 342.852 472.66 333.711 470.745 324.931C468.83 316.152 464.48 308.088 458.194 301.662C451.907 295.236 443.937 290.707 435.195 288.593L433.674 288.24C430.841 287.282 425.34 283.868 425.007 271.879V257H422.924V271.067C422.924 283.972 416.923 287.365 414.09 288.26L412.777 288.552C402.301 291.055 392.975 297.011 386.303 305.459C379.631 313.907 376.003 324.354 376.003 335.115ZM423.924 295.92C431.683 295.92 439.268 298.219 445.72 302.526C452.171 306.833 457.2 312.954 460.169 320.116C463.139 327.278 463.916 335.159 462.402 342.762C460.888 350.365 457.151 357.349 451.665 362.83C446.178 368.312 439.188 372.045 431.577 373.557C423.967 375.07 416.079 374.293 408.91 371.327C401.741 368.36 395.614 363.336 391.303 356.891C386.992 350.445 384.691 342.867 384.691 335.115C384.708 324.725 388.847 314.765 396.201 307.419C403.554 300.072 413.524 295.937 423.924 295.92Z" fill="#FDD304"/>
<rect x="411" y="378" width="26" height="216" fill="#FDD304"/>
<path d="M429.547 334.5C427.647 333.641 425.585 333.197 423.5 333.197C421.415 333.197 419.353 333.641 417.453 334.5C414.859 335.663 412.656 337.549 411.107 339.932C409.558 342.316 408.728 345.095 408.719 347.938V350.625C408.719 351.694 409.143 352.72 409.899 353.476C410.655 354.232 411.681 354.656 412.75 354.656H434.25C435.319 354.656 436.345 354.232 437.101 353.476C437.857 352.72 438.281 351.694 438.281 350.625V347.938C438.272 345.095 437.442 342.316 435.893 339.932C434.344 337.549 432.141 335.663 429.547 334.5ZM426.564 336.247L423.5 339.324L420.436 336.247C422.443 335.709 424.557 335.709 426.564 336.247ZM423.5 351.216L421.699 349.053L423.5 344.713L425.301 349.053L423.5 351.216ZM411.406 350.625V347.938C411.406 345.765 411.992 343.633 413.101 341.765C414.21 339.897 415.801 338.362 417.708 337.322L421.914 341.528L418.904 348.771C418.816 348.992 418.787 349.234 418.823 349.47C418.858 349.706 418.956 349.929 419.106 350.114L420.638 351.969H412.75C412.394 351.969 412.052 351.827 411.8 351.575C411.548 351.323 411.406 350.981 411.406 350.625ZM435.594 350.625C435.594 350.981 435.452 351.323 435.2 351.575C434.948 351.827 434.606 351.969 434.25 351.969H426.362L427.894 350.141C428.044 349.955 428.142 349.733 428.177 349.497C428.213 349.261 428.184 349.019 428.096 348.798L425.086 341.555L429.292 337.349C431.195 338.387 432.784 339.917 433.892 341.78C435.001 343.643 435.589 345.77 435.594 347.938V350.625ZM423.5 330.469C425.095 330.469 426.653 329.996 427.979 329.11C429.305 328.224 430.339 326.965 430.949 325.492C431.559 324.018 431.719 322.397 431.408 320.833C431.096 319.269 430.329 317.833 429.201 316.705C428.073 315.578 426.637 314.81 425.073 314.499C423.509 314.188 421.888 314.347 420.415 314.957C418.941 315.568 417.682 316.601 416.796 317.927C415.91 319.253 415.438 320.812 415.438 322.406C415.438 324.545 416.287 326.595 417.799 328.107C419.311 329.619 421.362 330.469 423.5 330.469ZM423.5 317.031C424.563 317.031 425.602 317.346 426.486 317.937C427.37 318.528 428.059 319.367 428.466 320.349C428.873 321.331 428.979 322.412 428.772 323.455C428.564 324.498 428.052 325.455 427.301 326.207C426.549 326.959 425.591 327.471 424.549 327.678C423.506 327.885 422.425 327.779 421.443 327.372C420.461 326.965 419.621 326.276 419.031 325.392C418.44 324.509 418.125 323.469 418.125 322.406C418.125 320.981 418.691 319.614 419.699 318.606C420.707 317.598 422.074 317.031 423.5 317.031Z" fill="#FDD304"/>
<path d="M205.5 507L192 503.5V504.5L195.5 508L199.5 513L203 519L205.5 507Z" fill="white"/>
<path d="M202.5 520.5C201 512 192.5 504.5 182 496" stroke="white"/>
<path d="M224 507L237.5 503.5V504.5L234 508L230 513L226.5 519L224 507Z" fill="white"/>
<path d="M227 520.5C228.5 512 237 504.5 247.5 496" stroke="white"/>
<path d="M167.003 462.115C167.001 471.101 169.531 479.906 174.302 487.523C179.074 495.14 185.894 501.261 193.985 505.188C202.075 509.114 211.107 510.686 220.05 509.725C228.992 508.764 237.484 505.308 244.552 499.752C251.621 494.196 256.982 486.765 260.023 478.308C263.063 469.852 263.66 460.711 261.745 451.931C259.83 443.152 255.48 435.088 249.194 428.662C242.907 422.236 234.937 417.707 226.195 415.593L224.674 415.24C221.841 414.282 216.34 410.868 216.007 398.879V384H213.924V398.067C213.924 410.972 207.923 414.365 205.09 415.26L203.777 415.552C193.301 418.055 183.975 424.011 177.303 432.459C170.631 440.907 167.003 451.354 167.003 462.115ZM214.924 422.92C222.683 422.92 230.268 425.219 236.72 429.526C243.171 433.833 248.2 439.954 251.169 447.116C254.139 454.278 254.916 462.159 253.402 469.762C251.888 477.365 248.151 484.349 242.665 489.83C237.178 495.312 230.188 499.045 222.577 500.557C214.967 502.07 207.079 501.293 199.91 498.327C192.741 495.36 186.614 490.336 182.303 483.891C177.992 477.445 175.691 469.867 175.691 462.115C175.708 451.725 179.847 441.765 187.201 434.419C194.554 427.072 204.524 422.937 214.924 422.92Z" fill="white"/>
<rect x="202" y="505" width="26" height="89" fill="white"/>
<path d="M220.547 459.5C218.647 458.641 216.585 458.197 214.5 458.197C212.415 458.197 210.353 458.641 208.453 459.5C205.859 460.663 203.656 462.549 202.107 464.932C200.558 467.316 199.728 470.095 199.719 472.938V475.625C199.719 476.694 200.143 477.72 200.899 478.476C201.655 479.232 202.681 479.656 203.75 479.656H225.25C226.319 479.656 227.345 479.232 228.101 478.476C228.857 477.72 229.281 476.694 229.281 475.625V472.938C229.272 470.095 228.442 467.316 226.893 464.932C225.344 462.549 223.141 460.663 220.547 459.5ZM217.564 461.247L214.5 464.324L211.436 461.247C213.443 460.709 215.557 460.709 217.564 461.247ZM214.5 476.216L212.699 474.053L214.5 469.713L216.301 474.053L214.5 476.216ZM202.406 475.625V472.938C202.406 470.765 202.992 468.633 204.101 466.765C205.21 464.897 206.801 463.362 208.708 462.322L212.914 466.528L209.904 473.771C209.816 473.992 209.787 474.234 209.823 474.47C209.858 474.706 209.956 474.929 210.106 475.114L211.638 476.969H203.75C203.394 476.969 203.052 476.827 202.8 476.575C202.548 476.323 202.406 475.981 202.406 475.625ZM226.594 475.625C226.594 475.981 226.452 476.323 226.2 476.575C225.948 476.827 225.606 476.969 225.25 476.969H217.362L218.894 475.141C219.044 474.955 219.142 474.733 219.177 474.497C219.213 474.261 219.184 474.019 219.096 473.798L216.086 466.555L220.292 462.349C222.195 463.387 223.784 464.917 224.892 466.78C226.001 468.643 226.589 470.77 226.594 472.938V475.625ZM214.5 455.469C216.095 455.469 217.653 454.996 218.979 454.11C220.305 453.224 221.339 451.965 221.949 450.492C222.559 449.018 222.719 447.397 222.408 445.833C222.096 444.269 221.329 442.833 220.201 441.705C219.073 440.578 217.637 439.81 216.073 439.499C214.509 439.188 212.888 439.347 211.415 439.957C209.941 440.568 208.682 441.601 207.796 442.927C206.91 444.253 206.438 445.812 206.438 447.406C206.438 449.545 207.287 451.595 208.799 453.107C210.311 454.619 212.362 455.469 214.5 455.469ZM214.5 442.031C215.563 442.031 216.602 442.346 217.486 442.937C218.37 443.528 219.059 444.367 219.466 445.349C219.873 446.331 219.979 447.412 219.772 448.455C219.564 449.498 219.052 450.455 218.301 451.207C217.549 451.959 216.591 452.471 215.549 452.678C214.506 452.885 213.425 452.779 212.443 452.372C211.461 451.965 210.621 451.276 210.031 450.392C209.44 449.509 209.125 448.469 209.125 447.406C209.125 445.981 209.691 444.614 210.699 443.606C211.707 442.598 213.074 442.031 214.5 442.031Z" fill="white"/>
<path d="M424 30L833 30" stroke="#F16C22" stroke-width="2" stroke-dasharray="4 4"/>
<circle cx="425" cy="30" r="4" fill="#F16C22"/>
<path d="M339.487 27.249C339.487 29.9085 339.197 32.1969 338.615 34.1143C338.046 36.0316 337.255 37.6087 336.24 38.8457C335.238 40.0827 334.057 40.998 332.696 41.5918C331.348 42.1732 329.895 42.4639 328.336 42.4639C327.829 42.4639 327.315 42.4329 326.796 42.3711C326.289 42.3092 325.8 42.2288 325.33 42.1299C324.872 42.0309 324.452 41.9258 324.068 41.8145C323.697 41.6908 323.388 41.5732 323.141 41.4619V37.584C323.4 37.7448 323.722 37.9118 324.105 38.085C324.489 38.2458 324.903 38.3942 325.349 38.5303C325.806 38.654 326.276 38.7591 326.759 38.8457C327.254 38.9199 327.73 38.957 328.188 38.957C329.239 38.957 330.191 38.7529 331.045 38.3447C331.911 37.9365 332.647 37.3304 333.253 36.5264C333.859 35.7223 334.323 34.7266 334.645 33.5391C334.979 32.3392 335.146 30.9538 335.146 29.3828H335.071C334.849 29.7786 334.552 30.1559 334.181 30.5146C333.822 30.861 333.408 31.1702 332.938 31.4424C332.467 31.7021 331.942 31.9124 331.36 32.0732C330.791 32.234 330.179 32.3145 329.523 32.3145C328.41 32.3145 327.371 32.1227 326.406 31.7393C325.454 31.3434 324.625 30.7868 323.92 30.0693C323.215 29.3519 322.658 28.4798 322.25 27.4531C321.854 26.4264 321.656 25.2822 321.656 24.0205C321.656 22.6351 321.885 21.3857 322.343 20.2725C322.8 19.1468 323.431 18.1943 324.235 17.415C325.039 16.6234 325.986 16.0173 327.074 15.5967C328.163 15.1637 329.344 14.9473 330.618 14.9473C331.818 14.9473 332.95 15.1761 334.014 15.6338C335.09 16.0791 336.03 16.7965 336.834 17.7861C337.65 18.7633 338.294 20.0312 338.764 21.5898C339.246 23.1484 339.487 25.0348 339.487 27.249ZM334.997 24.4102C334.997 23.5195 334.88 22.7093 334.645 21.9795C334.422 21.2497 334.106 20.625 333.698 20.1055C333.29 19.5859 332.801 19.1839 332.232 18.8994C331.676 18.6149 331.063 18.4727 330.396 18.4727C329.802 18.4727 329.233 18.5964 328.688 18.8438C328.157 19.0788 327.687 19.4189 327.278 19.8643C326.882 20.3096 326.567 20.8477 326.332 21.4785C326.097 22.1094 325.979 22.8083 325.979 23.5752C325.979 24.4163 326.091 25.1585 326.313 25.8018C326.549 26.445 326.87 26.9893 327.278 27.4346C327.687 27.8675 328.175 28.2015 328.744 28.4365C329.326 28.6592 329.963 28.7705 330.655 28.7705C331.274 28.7705 331.843 28.6592 332.362 28.4365C332.894 28.2015 333.352 27.8923 333.735 27.5088C334.131 27.113 334.44 26.6491 334.663 26.1172C334.886 25.5853 334.997 25.0163 334.997 24.4102Z" fill="#F16C22"/>
<path d="M342.453 41.3877V37.25C344.197 38.4251 345.966 39.0127 347.76 39.0127C349.566 39.0127 351.019 38.555 352.12 37.6396C353.221 36.7119 353.771 35.4811 353.771 33.9473C353.771 32.4382 353.209 31.263 352.083 30.4219C350.97 29.5807 349.368 29.1602 347.277 29.1602C346.56 29.1602 345.106 29.2344 342.917 29.3828L343.863 15.3926H356.963V19.0664H347.444L346.999 25.7275C347.853 25.6781 348.626 25.6533 349.318 25.6533C352.139 25.6533 354.316 26.377 355.85 27.8242C357.396 29.2715 358.169 31.2507 358.169 33.7617C358.169 36.3965 357.284 38.5117 355.516 40.1074C353.759 41.6908 351.341 42.4824 348.261 42.4824C345.663 42.4824 343.727 42.1175 342.453 41.3877Z" fill="#F16C22"/>
<path d="M366.701 28.752C364.821 28.752 363.324 28.152 362.211 26.9521C361.098 25.7399 360.541 24.1257 360.541 22.1094C360.541 19.9076 361.129 18.1758 362.304 16.9141C363.491 15.64 365.087 15.0029 367.091 15.0029C369.033 15.0029 370.536 15.5905 371.6 16.7656C372.676 17.9408 373.214 19.5921 373.214 21.7197C373.214 23.8473 372.614 25.5544 371.414 26.8408C370.214 28.1149 368.643 28.752 366.701 28.752ZM366.961 17.6006C365.947 17.6006 365.143 17.9902 364.549 18.7695C363.967 19.5488 363.677 20.6188 363.677 21.9795C363.677 23.3154 363.961 24.3545 364.53 25.0967C365.112 25.8389 365.903 26.21 366.905 26.21C367.907 26.21 368.693 25.8265 369.262 25.0596C369.831 24.2803 370.115 23.2041 370.115 21.8311C370.115 20.4951 369.831 19.4561 369.262 18.7139C368.705 17.9717 367.938 17.6006 366.961 17.6006ZM384.718 15.3926L367.647 42.1855H364.994L382.046 15.3926H384.718ZM382.324 42.4082C380.444 42.4082 378.947 41.8083 377.834 40.6084C376.721 39.3962 376.164 37.7819 376.164 35.7656C376.164 33.5638 376.752 31.832 377.927 30.5703C379.114 29.2962 380.71 28.6592 382.714 28.6592C384.656 28.6592 386.159 29.2467 387.223 30.4219C388.299 31.597 388.837 33.2484 388.837 35.376C388.837 37.5036 388.237 39.2106 387.037 40.4971C385.837 41.7712 384.266 42.4082 382.324 42.4082ZM382.584 31.2568C381.57 31.2568 380.766 31.6465 380.172 32.4258C379.59 33.2051 379.3 34.2751 379.3 35.6357C379.3 36.9717 379.584 38.0107 380.153 38.7529C380.735 39.4951 381.526 39.8662 382.528 39.8662C383.53 39.8662 384.316 39.4827 384.885 38.7158C385.454 37.9365 385.738 36.8604 385.738 35.4873C385.738 34.1514 385.454 33.1123 384.885 32.3701C384.328 31.6279 383.561 31.2568 382.584 31.2568Z" fill="#F16C22"/>
<path d="M64.7646 14.7988V42H60.46V20.0684C59.6807 20.625 58.8395 21.1012 57.9365 21.4971C57.0459 21.8805 56.0254 22.2207 54.875 22.5176V18.8438C55.5924 18.6087 56.2852 18.3613 56.9531 18.1016C57.6211 17.8418 58.2767 17.5511 58.9199 17.2295C59.5755 16.9079 60.2311 16.5492 60.8867 16.1533C61.5547 15.7575 62.2412 15.306 62.9463 14.7988H64.7646Z" fill="#F16C22"/>
<path d="M94.9472 23L86.3749 45.043C84.5937 48.9766 82.095 50.9434 78.8788 50.9434C77.9758 50.9434 77.2213 50.863 76.6152 50.7021V47.1211C77.2955 47.3438 77.914 47.4551 78.4706 47.4551C80.0787 47.4551 81.2786 46.6634 82.0702 45.0801L83.3505 41.9629L75.7987 23H80.5673L85.0946 36.8047C85.1441 36.9779 85.2555 37.4355 85.4286 38.1777H85.5214C85.5833 37.8932 85.6946 37.4479 85.8554 36.8418L90.6054 23H94.9472Z" fill="#F16C22"/>
<path d="M111.903 33.6689H98.952C99.0015 35.4255 99.5396 36.7799 100.566 37.7324C101.605 38.6849 103.028 39.1611 104.834 39.1611C106.863 39.1611 108.724 38.555 110.419 37.3428V40.8125C108.687 41.901 106.399 42.4453 103.554 42.4453C100.758 42.4453 98.5624 41.5856 96.9667 39.8662C95.3833 38.1344 94.5917 35.7038 94.5917 32.5742C94.5917 29.6178 95.4637 27.2119 97.2079 25.3564C98.9644 23.4886 101.141 22.5547 103.739 22.5547C106.337 22.5547 108.347 23.3896 109.769 25.0596C111.192 26.7295 111.903 29.0488 111.903 32.0176V33.6689ZM107.747 30.626C107.735 29.0798 107.37 27.8799 106.652 27.0264C105.935 26.1605 104.945 25.7275 103.683 25.7275C102.446 25.7275 101.395 26.179 100.529 27.082C99.6757 27.985 99.1499 29.1663 98.952 30.626H107.747Z" fill="#F16C22"/>
<path d="M128.878 42H124.703V39.0312H124.629C123.318 41.3073 121.394 42.4453 118.858 42.4453C116.99 42.4453 115.525 41.9382 114.461 40.9238C113.409 39.9095 112.884 38.5674 112.884 36.8975C112.884 33.3102 114.949 31.2197 119.081 30.626L124.722 29.8281C124.722 27.1191 123.435 25.7646 120.862 25.7646C118.598 25.7646 116.557 26.5439 114.739 28.1025V24.3359C116.743 23.1484 119.056 22.5547 121.679 22.5547C126.478 22.5547 128.878 24.9173 128.878 29.6426V42ZM124.722 32.667L120.732 33.2236C119.495 33.3844 118.561 33.6875 117.931 34.1328C117.312 34.5658 117.003 35.3327 117.003 36.4336C117.003 37.2376 117.287 37.8994 117.856 38.4189C118.438 38.9261 119.211 39.1797 120.176 39.1797C121.487 39.1797 122.569 38.722 123.423 37.8066C124.289 36.8789 124.722 35.7161 124.722 34.3184V32.667Z" fill="#F16C22"/>
<path d="M143.459 27.1006C142.939 26.6924 142.191 26.4883 141.214 26.4883C139.94 26.4883 138.876 27.0635 138.022 28.2139C137.169 29.3643 136.742 30.929 136.742 32.9082V42H132.437V23H136.742V26.915H136.816C137.237 25.5791 137.88 24.54 138.746 23.7979C139.624 23.0433 140.601 22.666 141.678 22.666C142.457 22.666 143.051 22.7835 143.459 23.0186V27.1006Z" fill="#F16C22"/>
<path d="M143.864 41.4062V37.417C145.472 38.6416 147.247 39.2539 149.189 39.2539C151.787 39.2539 153.086 38.487 153.086 36.9531C153.086 36.5202 152.974 36.1553 152.752 35.8584C152.529 35.5492 152.226 35.277 151.843 35.042C151.471 34.807 151.026 34.5967 150.507 34.4111C149.999 34.2256 149.43 34.0153 148.8 33.7803C148.02 33.471 147.315 33.1432 146.684 32.7969C146.066 32.4505 145.546 32.0609 145.126 31.6279C144.718 31.1826 144.408 30.6816 144.198 30.125C143.988 29.5684 143.883 28.9189 143.883 28.1768C143.883 27.2614 144.099 26.4574 144.532 25.7646C144.965 25.0596 145.546 24.472 146.276 24.002C147.006 23.5195 147.835 23.1608 148.762 22.9258C149.69 22.6784 150.649 22.5547 151.638 22.5547C153.395 22.5547 154.966 22.8206 156.351 23.3525V27.1191C155.015 26.2038 153.482 25.7461 151.75 25.7461C151.205 25.7461 150.711 25.8018 150.265 25.9131C149.832 26.0244 149.461 26.179 149.152 26.377C148.843 26.5749 148.602 26.8161 148.428 27.1006C148.255 27.3727 148.169 27.6758 148.169 28.0098C148.169 28.418 148.255 28.7643 148.428 29.0488C148.602 29.3333 148.855 29.5869 149.189 29.8096C149.536 30.0199 149.944 30.2178 150.414 30.4033C150.896 30.5765 151.447 30.7682 152.065 30.9785C152.882 31.3125 153.611 31.6527 154.255 31.999C154.91 32.3454 155.467 32.7412 155.925 33.1865C156.382 33.6195 156.735 34.1266 156.982 34.708C157.23 35.277 157.353 35.9574 157.353 36.749C157.353 37.7139 157.131 38.555 156.685 39.2725C156.24 39.9899 155.646 40.5837 154.904 41.0537C154.162 41.5238 153.302 41.8701 152.325 42.0928C151.36 42.3278 150.34 42.4453 149.263 42.4453C147.185 42.4453 145.385 42.099 143.864 41.4062Z" fill="#F16C22"/>
</svg>
