<svg width="46" height="46" viewBox="0 0 46 46" fill="none" xmlns="http://www.w3.org/2000/svg">
<circle cx="23" cy="23" r="22" stroke="#F16C22" stroke-width="2"/>
<path d="M31 32V26C31 22.8409 30.5745 20 27 20C25.2766 20 23.4681 21.0786 23 22V20H20V32H24V26C24 24.4643 24.1702 23 26 23C27.8085 23 27 24.6399 27 26V32H31Z" fill="#F16C22"/>
<path d="M14 20H18V32H14V20Z" fill="#F16C22"/>
<path d="M16 14C14.8958 14 14 14.9016 14 16C14 17.0984 14.8958 18 16 18C17.1042 18 18 17.0984 18 16C18 14.9016 17.1042 14 16 14Z" fill="#F16C22"/>
</svg>
