<svg width="40" height="40" viewBox="0 0 40 40" fill="none" xmlns="http://www.w3.org/2000/svg">
<g clip-path="url(#clip0_4636_9340)">
<path d="M20.0019 40C19.8895 39.9999 19.7777 39.9848 19.6694 39.955C19.4744 39.9 0.171875 34.2612 0.171875 7.75375C0.171872 7.58896 0.204451 7.42581 0.267738 7.27366C0.331025 7.12151 0.42377 6.98338 0.540639 6.8672C0.657508 6.75103 0.796193 6.65911 0.948717 6.59674C1.10124 6.53436 1.26459 6.50276 1.42937 6.50375C1.88038 6.50302 2.32594 6.40517 2.73576 6.21687C3.14558 6.02857 3.51005 5.75423 3.80438 5.4125C4.29314 4.85779 4.66513 4.2103 4.89814 3.50866C5.13116 2.80703 5.22043 2.06564 5.16062 1.32875C5.14987 1.15831 5.17415 0.987463 5.23197 0.826767C5.2898 0.66607 5.37994 0.518927 5.49684 0.394418C5.61373 0.269909 5.7549 0.170674 5.91163 0.102838C6.06837 0.0350015 6.23734 2.31019e-06 6.40812 0L33.5956 0C33.7664 2.31019e-06 33.9354 0.0350015 34.0921 0.102838C34.2488 0.170674 34.39 0.269909 34.5069 0.394418C34.6238 0.518927 34.714 0.66607 34.7718 0.826767C34.8296 0.987463 34.8539 1.15831 34.8431 1.32875C34.7832 2.06565 34.8725 2.80705 35.1055 3.5087C35.3385 4.21034 35.7106 4.85783 36.1994 5.4125C36.4958 5.74655 36.8579 6.01587 37.2631 6.20363C37.6683 6.39139 38.1079 6.49356 38.5544 6.50375C38.5635 6.50437 38.5727 6.50437 38.5819 6.50375C38.9134 6.50375 39.2313 6.63545 39.4658 6.86987C39.7002 7.10429 39.8319 7.42223 39.8319 7.75375C39.8319 34.2612 20.5294 39.9013 20.3344 39.955C20.2261 39.9848 20.1142 39.9999 20.0019 40ZM2.68438 8.86C3.15687 30.7025 17.6344 36.6175 20.0081 37.44C22.4969 36.61 36.8531 30.8775 37.3206 8.86C36.1927 8.58384 35.1711 7.98172 34.3831 7.12875C33.2115 5.85502 32.5007 4.22526 32.3644 2.5H7.63812C7.50299 4.22569 6.79255 5.85609 5.62062 7.13C4.83269 7.98274 3.81224 8.58446 2.68438 8.86Z" fill="white"/>
<path d="M20.0045 34.6562C19.8264 34.656 19.6504 34.6176 19.4883 34.5438C15.632 32.7962 6.5283 27.03 5.3083 11.31C5.2913 11.0868 5.33453 10.8632 5.43348 10.6625C5.53243 10.4617 5.68346 10.2912 5.8708 10.1688C6.45247 9.78531 6.98661 9.33424 7.46205 8.825C8.28952 7.93937 8.94524 6.90769 9.3958 5.7825C9.48897 5.55145 9.64907 5.35351 9.85553 5.21408C10.062 5.07466 10.3054 5.00011 10.5545 5H29.4558C29.7048 5.00001 29.9481 5.07437 30.1546 5.21356C30.361 5.35276 30.5212 5.55043 30.6145 5.78125C31.0646 6.90676 31.7199 7.93886 32.547 8.825C33.0235 9.33448 33.5585 9.78593 34.1408 10.17C34.3278 10.2927 34.4784 10.4633 34.5769 10.664C34.6754 10.8648 34.7182 11.0883 34.7008 11.3112C33.4808 27.03 24.3783 32.7962 20.5208 34.545C20.3587 34.6189 20.1827 34.656 20.0045 34.6562ZM7.86205 11.8187C9.12205 25.015 16.382 30.2262 20.0045 32.0225C23.627 30.2262 30.8883 25.0163 32.147 11.82C31.6376 11.4325 31.1617 11.0026 30.7245 10.535C29.8808 9.6348 29.179 8.61141 28.6433 7.5H11.367C10.8313 8.61142 10.1295 9.63481 9.2858 10.535C8.84829 11.0019 8.37246 11.4313 7.8633 11.8187H7.86205Z" fill="white"/>
<path d="M22.5 26.25H17.5C16.5057 26.249 15.5525 25.8536 14.8494 25.1506C14.1464 24.4475 13.751 23.4943 13.75 22.5V17.5C13.751 16.5057 14.1464 15.5525 14.8494 14.8494C15.5525 14.1464 16.5057 13.751 17.5 13.75H22.5C23.4943 13.751 24.4475 14.1464 25.1506 14.8494C25.8536 15.5525 26.249 16.5057 26.25 17.5V22.5C26.249 23.4943 25.8536 24.4475 25.1506 25.1506C24.4475 25.8536 23.4943 26.249 22.5 26.25ZM17.5 16.25C17.1686 16.2503 16.8508 16.3821 16.6165 16.6165C16.3821 16.8508 16.2503 17.1686 16.25 17.5V22.5C16.2503 22.8314 16.3821 23.1492 16.6165 23.3835C16.8508 23.6179 17.1686 23.7497 17.5 23.75H22.5C22.8315 23.75 23.1495 23.6183 23.3839 23.3839C23.6183 23.1495 23.75 22.8315 23.75 22.5V17.5C23.75 17.1685 23.6183 16.8505 23.3839 16.6161C23.1495 16.3817 22.8315 16.25 22.5 16.25H17.5Z" fill="white"/>
<path d="M22.5 16.25H17.5C17.1685 16.25 16.8505 16.1183 16.6161 15.8839C16.3817 15.6495 16.25 15.3315 16.25 15V12.5C16.25 11.5054 16.6451 10.5516 17.3483 9.84835C18.0516 9.14509 19.0054 8.75 20 8.75C20.9946 8.75 21.9484 9.14509 22.6517 9.84835C23.3549 10.5516 23.75 11.5054 23.75 12.5V15C23.75 15.3315 23.6183 15.6495 23.3839 15.8839C23.1495 16.1183 22.8315 16.25 22.5 16.25ZM18.75 13.75H21.25V12.5C21.25 12.1685 21.1183 11.8505 20.8839 11.6161C20.6495 11.3817 20.3315 11.25 20 11.25C19.6685 11.25 19.3505 11.3817 19.1161 11.6161C18.8817 11.8505 18.75 12.1685 18.75 12.5V13.75ZM20 21.25C19.836 21.2543 19.6733 21.2201 19.525 21.15C19.3721 21.0895 19.2321 21.0004 19.1125 20.8875C19.0588 20.828 19.0087 20.7654 18.9625 20.7C18.9152 20.6303 18.8774 20.5546 18.85 20.475C18.8139 20.4042 18.7886 20.3283 18.775 20.25C18.7609 20.1673 18.7526 20.0838 18.75 20C18.7483 19.8141 18.7885 19.6302 18.8674 19.4619C18.9463 19.2936 19.0621 19.1452 19.2061 19.0276C19.3501 18.91 19.5186 18.8262 19.6993 18.7825C19.88 18.7388 20.0682 18.7362 20.25 18.775C20.3283 18.7886 20.4042 18.8139 20.475 18.85C20.5546 18.8774 20.6303 18.9152 20.7 18.9625C20.7654 19.0087 20.828 19.0588 20.8875 19.1125C21.0004 19.2321 21.0895 19.3721 21.15 19.525C21.2201 19.6733 21.2543 19.836 21.25 20C21.2517 20.1646 21.2205 20.3279 21.1583 20.4803C21.096 20.6327 21.004 20.7712 20.8876 20.8876C20.7712 21.004 20.6327 21.096 20.4803 21.1583C20.3279 21.2205 20.1646 21.2517 20 21.25Z" fill="white"/>
</g>
<defs>
<clipPath id="clip0_4636_9340">
<rect width="40" height="40" fill="white"/>
</clipPath>
</defs>
</svg>
