<svg width="40" height="40" viewBox="0 0 40 40" fill="none" xmlns="http://www.w3.org/2000/svg">
<g clip-path="url(#clip0_4636_9333)">
<path fill-rule="evenodd" clip-rule="evenodd" d="M14.6381 30.2455L15.1507 26.1699L17.4761 26.4624L16.7678 32.0944L8.64226 34.3083C7.45158 34.6327 6.36057 35.2488 5.46792 36.1009C4.9838 36.5631 4.56631 37.0867 4.22507 37.6566H35.7759C34.8025 36.0415 33.2174 34.8077 31.364 34.3093L31.3621 34.3088L23.2348 32.0944L22.5264 26.4624L24.8519 26.1699L25.3644 30.2455L31.9726 32.0459C31.9733 32.0461 31.974 32.0463 31.9747 32.0465C35.153 32.9019 37.7111 35.3726 38.7038 38.4709L39.1939 40.0003H0.804688L1.29956 38.4683C1.79865 36.9231 2.67508 35.5268 3.84957 34.4056C5.02405 33.2845 6.45954 32.4738 8.02615 32.047L14.6381 30.2455Z" fill="white"/>
<path fill-rule="evenodd" clip-rule="evenodd" d="M11.6369 13.0711C11.6369 8.45176 15.3816 4.70703 20.001 4.70703C24.6204 4.70703 28.3652 8.45174 28.3651 13.0711C28.3651 13.0711 28.3651 13.0711 28.3651 13.0711V20C28.3651 24.8054 24.6882 28.8277 20.001 28.8277C15.3137 28.8277 11.6369 24.8054 11.6369 20V13.0711ZM20.001 7.05077C16.676 7.05077 13.9806 9.74617 13.9806 13.0711V20C13.9806 20.4048 14.0146 20.7995 14.0794 21.1814H18.585V23.5252H14.9455C16.03 25.3211 17.9142 26.484 20.001 26.484C23.2581 26.484 26.0213 23.651 26.0213 20V13.0711C26.0214 9.7462 23.326 7.05077 20.001 7.05077ZM7.86719 33.1771V19.8251H10.2109V33.1771H7.86719ZM29.7911 33.1771V19.8259H32.1348V33.1771H29.7911ZM13.3722 35.7247L11.8729 32.4139L14.008 31.447L15.5073 34.7579C17.257 38.622 22.7449 38.622 24.4948 34.7579L25.9941 31.447L28.1291 32.4139L26.6298 35.7247C24.0486 41.4247 15.9534 41.4247 13.3722 35.7247Z" fill="white"/>
<path fill-rule="evenodd" clip-rule="evenodd" d="M27.2639 11.6397C22.7154 13.8585 18.9219 15.0425 12.7734 14.8678L12.84 12.525C18.5364 12.6868 21.9551 11.6216 26.2364 9.5332L27.2639 11.6397Z" fill="white"/>
<path fill-rule="evenodd" clip-rule="evenodd" d="M20.001 2.34374C14.5941 2.34374 10.2109 6.72686 10.2109 12.1339V13.7917H7.86719V12.1339C7.86719 5.43246 13.2996 0 20.001 0C26.7024 0 32.1348 5.43245 32.1348 12.1338V13.7917H29.7911V12.1338C29.7911 6.72687 25.408 2.34374 20.001 2.34374Z" fill="white"/>
<path fill-rule="evenodd" clip-rule="evenodd" d="M5.49219 16.8485C5.49219 14.4603 7.4281 12.5244 9.81623 12.5244H12.8115V14.8682H9.81623C8.72251 14.8682 7.83593 15.7547 7.83593 16.8485C7.83593 17.9422 8.72251 18.8288 9.81623 18.8288H12.8115V21.1725H9.81623C7.4281 21.1725 5.49219 19.2366 5.49219 16.8485ZM30.1914 14.8682H27.1961V12.5244H30.1914C32.5795 12.5244 34.5154 14.4603 34.5154 16.8485C34.5154 19.2366 32.5795 21.1725 30.1914 21.1725H27.1961V18.8288H30.1914C31.2851 18.8288 32.1717 17.9422 32.1717 16.8485C32.1717 15.7547 31.2851 14.8682 30.1914 14.8682Z" fill="white"/>
</g>
<defs>
<clipPath id="clip0_4636_9333">
<rect width="40" height="40" fill="white"/>
</clipPath>
</defs>
</svg>
