<svg width="46" height="46" viewBox="0 0 46 46" fill="none" xmlns="http://www.w3.org/2000/svg">
<path d="M21.0826 29.5431L31.4594 19.1662L28.7492 16.4561L21.0826 24.1227L17.2492 20.2894L14.5391 22.9996L21.0826 29.5431Z" fill="white"/>
<path fill-rule="evenodd" clip-rule="evenodd" d="M23.0026 3.83301C12.4169 3.83301 3.83594 12.4139 3.83594 22.9997C3.83594 33.5854 12.4169 42.1663 23.0026 42.1663C33.5884 42.1663 42.1693 33.5854 42.1693 22.9997C42.1693 12.4139 33.5884 3.83301 23.0026 3.83301ZM7.66927 22.9997C7.66927 18.933 9.28474 15.0329 12.1603 12.1574C15.0359 9.28181 18.936 7.66634 23.0026 7.66634C27.0693 7.66634 30.9694 9.28181 33.8449 12.1574C36.7205 15.0329 38.3359 18.933 38.3359 22.9997C38.3359 27.0663 36.7205 30.9664 33.8449 33.842C30.9694 36.7175 27.0693 38.333 23.0026 38.333C18.936 38.333 15.0359 36.7175 12.1603 33.842C9.28474 30.9664 7.66927 27.0663 7.66927 22.9997Z" fill="white"/>
</svg>
