<svg width="40" height="40" viewBox="0 0 40 40" fill="none" xmlns="http://www.w3.org/2000/svg">
<path d="M28.3359 3.3335L20.0024 0L11.6689 3.3335L3.33594 0V15.0455C3.33896 18.6265 4.04395 22.1355 5.38945 25.3845C8.03594 31.771 13.1145 37.147 20.0024 40C26.8904 37.147 31.9689 31.771 34.6154 25.3845C35.9609 22.1355 36.6664 18.6265 36.6689 15.0455V0L28.3359 3.3335ZM33.3359 15.0455C33.3324 18.182 32.727 21.232 31.5355 24.108C29.293 29.52 25.227 33.822 20.0024 36.3475C14.7765 33.8199 10.7105 29.518 8.46943 24.108C7.27793 21.2305 6.67246 18.1805 6.66895 15.0425V4.92354L11.6689 6.92402L20.0024 3.59053L28.3359 6.92402L33.3359 4.92354V15.0455Z" fill="white"/>
<path d="M27.6454 12.6426L20.0024 20.2861C18.085 18.3701 15.6944 15.9776 15.6944 15.9776L13.3359 18.3347C13.3359 18.3347 20.0024 25.0012 20.0024 24.9997L30.0024 15.0012L27.6454 12.6426Z" fill="white"/>
</svg>
