<svg width="171" height="79" viewBox="0 0 171 79" fill="none" xmlns="http://www.w3.org/2000/svg">
<g opacity="0.9">
<path d="M4.76949 68.9463C6.10051 68.9463 7.09877 69.397 7.98612 70.1858C8.04158 70.2421 8.04158 70.3548 7.98612 70.4111L7.76428 70.6365C7.70882 70.6928 7.59791 70.6928 7.54245 70.6365C6.76602 69.9604 5.82321 69.5097 4.76949 69.5097C2.4402 69.5097 0.665509 71.4252 0.665509 73.7352C0.665509 76.0451 2.49566 77.9607 4.76949 77.9607C5.93413 77.9607 6.76602 77.5099 7.54245 76.8339C7.59791 76.7775 7.70882 76.7775 7.76428 76.8339L7.98612 77.0592C8.04158 77.1156 8.04158 77.2282 7.98612 77.2846C7.09877 78.186 5.93413 78.5804 4.76949 78.5804C2.10745 78.5804 0 76.4395 0 73.7352C0 71.1435 2.16291 68.9463 4.76949 68.9463Z" fill="white"/>
</g>
<g opacity="0.9">
<path d="M17.9048 73.9614L14.5218 69.3416C14.4663 69.2289 14.5218 69.1162 14.6327 69.1162H15.0209C15.0763 69.1162 15.1318 69.1162 15.1873 69.1725L18.1821 73.3417L21.2323 69.1725C21.2878 69.1162 21.3432 69.1162 21.3987 69.1162H21.7869C21.8978 69.1162 21.9533 69.2289 21.8978 69.3416L18.4594 73.9614V78.3559C18.4594 78.4686 18.4039 78.525 18.293 78.525C18.1266 78.525 17.8493 78.5813 17.8493 78.3559V73.9614H17.9048Z" fill="white"/>
</g>
<g opacity="0.9">
<path d="M29.2266 69.2852C29.2266 69.1725 29.282 69.1162 29.3929 69.1162H32.2214C33.8297 69.1162 34.9389 70.074 34.9389 71.5388C34.9389 72.6093 34.3288 73.398 33.4969 73.7361C34.4397 74.0178 35.2161 74.6938 35.2161 75.9897C35.2161 77.5108 34.0515 78.5249 32.3323 78.5249H29.3929C29.282 78.5249 29.2266 78.4686 29.2266 78.3559V69.2852ZM32.3877 77.9616C33.6633 77.9616 34.5506 77.1165 34.5506 75.9333C34.5506 74.7502 33.5524 74.0178 32.2768 74.0178H29.7812V77.9052H32.3877V77.9616ZM32.2768 73.4544C33.4969 73.4544 34.2733 72.6656 34.2733 71.5388C34.2733 70.3557 33.4969 69.6796 32.2214 69.6796H29.8366V73.4544H32.2768Z" fill="white"/>
</g>
<g opacity="0.9">
<path d="M43.25 69.2852C43.25 69.1725 43.3055 69.1162 43.4164 69.1162H48.7405C48.8514 69.1162 48.9068 69.1725 48.9068 69.2852V69.5106C48.9068 69.6233 48.8514 69.6796 48.7405 69.6796H43.9155V73.398H48.1304C48.2413 73.398 48.2968 73.4544 48.2968 73.567V73.7924C48.2968 73.9051 48.2413 73.9614 48.1304 73.9614H43.9155V77.9616H48.7405C48.8514 77.9616 48.9068 78.0179 48.9068 78.1306V78.3559C48.9068 78.4686 48.8514 78.5249 48.7405 78.5249H43.4164C43.3055 78.5249 43.25 78.4686 43.25 78.3559V69.2852Z" fill="white"/>
</g>
<g opacity="0.9">
<path d="M57.0078 69.2852C57.0078 69.1725 57.0633 69.1162 57.1742 69.1162H60.4463C62.0546 69.1162 63.3856 70.3557 63.3856 71.9895C63.3856 73.3417 62.4428 74.4121 61.2227 74.8065L63.1638 78.2996C63.2192 78.4123 63.2192 78.5249 63.0529 78.5249H62.6647C62.5537 78.5249 62.4983 78.4686 62.4983 78.4123L60.5572 74.9192C60.3908 74.9192 60.2244 74.9192 60.0581 74.9192H57.6179V78.3559C57.6179 78.4686 57.5624 78.5249 57.396 78.5249H57.1742C57.0633 78.5249 57.0078 78.4686 57.0078 78.3559V69.2852ZM60.4463 74.2995C61.7218 74.2995 62.7756 73.2854 62.7756 71.9332C62.7756 70.6374 61.7218 69.6796 60.4463 69.6796H57.6733V74.2995H60.4463Z" fill="white"/>
</g>
<g opacity="0.9">
<path d="M70.873 77.225L70.9839 77.056C71.0948 76.9433 71.1503 76.887 71.2612 76.9996C71.3721 77.1123 72.3704 78.0138 73.7014 78.0138C74.9215 78.0138 75.9197 77.1687 75.9197 76.2109C75.9197 75.0278 74.9769 74.4644 73.3686 73.901C71.8158 73.3376 70.8175 72.7742 70.8175 71.253C70.8175 70.2389 71.5939 68.8867 73.7014 68.8867C75.0324 68.8867 75.9752 69.5628 75.9752 69.5628C76.0307 69.6191 76.1416 69.6755 76.0307 69.8445C75.9752 69.9008 75.9752 69.9572 75.9197 70.0135C75.8643 70.1262 75.7534 70.1825 75.6425 70.0699C75.587 70.0699 74.6996 69.4501 73.7014 69.4501C72.0931 69.4501 71.483 70.4642 71.483 71.253C71.483 72.3798 72.3149 72.8868 73.7014 73.3376C75.5315 73.9573 76.6407 74.6334 76.6407 76.1546C76.6407 77.5067 75.2542 78.5208 73.7568 78.5208C72.204 78.5208 71.1503 77.563 70.9284 77.394C70.8175 77.4504 70.762 77.394 70.873 77.225Z" fill="white"/>
</g>
<g opacity="0.9">
<path d="M84.4062 69.2852C84.4062 69.1725 84.4617 69.1162 84.5726 69.1162H89.8967C90.0076 69.1162 90.0631 69.1725 90.0631 69.2852V69.5106C90.0631 69.6233 90.0076 69.6796 89.8967 69.6796H85.0718V73.398H89.2867C89.3976 73.398 89.453 73.4544 89.453 73.567V73.7924C89.453 73.9051 89.3976 73.9614 89.2867 73.9614H85.0718V77.9616H89.8967C90.0076 77.9616 90.0631 78.0179 90.0631 78.1306V78.3559C90.0631 78.4686 90.0076 78.5249 89.8967 78.5249H84.5726C84.4617 78.5249 84.4062 78.4686 84.4062 78.3559V69.2852Z" fill="white"/>
</g>
<g opacity="0.9">
<path d="M102.263 68.9482C103.594 68.9482 104.592 69.399 105.479 70.1877C105.535 70.2441 105.535 70.3567 105.479 70.4131L105.258 70.6384C105.202 70.6948 105.091 70.6948 105.036 70.6384C104.259 69.9624 103.316 69.5116 102.263 69.5116C99.9334 69.5116 98.1587 71.4272 98.1587 73.7371C98.1587 76.0471 99.9889 77.9626 102.263 77.9626C103.427 77.9626 104.259 77.5119 105.036 76.8358C105.091 76.7795 105.202 76.7795 105.258 76.8358L105.479 77.0612C105.535 77.1175 105.535 77.2302 105.479 77.2865C104.592 78.188 103.427 78.5823 102.263 78.5823C99.6007 78.5823 97.4932 76.4414 97.4932 73.7371C97.4378 71.1455 99.6007 68.9482 102.263 68.9482Z" fill="white"/>
</g>
<g opacity="0.9">
<path d="M113.352 69.2852C113.352 69.1725 113.407 69.1162 113.518 69.1162H113.795C113.906 69.1162 113.962 69.1725 113.962 69.2852V75.0319C113.962 76.7784 115.015 78.0179 116.79 78.0179C118.565 78.0179 119.674 76.7784 119.674 75.0319V69.2852C119.674 69.1725 119.729 69.1162 119.84 69.1162H120.118C120.228 69.1162 120.284 69.1725 120.284 69.2852V75.0882C120.284 77.1165 118.897 78.6376 116.79 78.6376C114.683 78.6376 113.352 77.1165 113.352 75.0882V69.2852Z" fill="white"/>
</g>
<g opacity="0.9">
<path d="M128.773 69.2852C128.773 69.1725 128.829 69.1162 128.94 69.1162H132.212C133.82 69.1162 135.151 70.3557 135.151 71.9895C135.151 73.3417 134.208 74.4121 132.988 74.8065L134.929 78.2996C134.985 78.4123 134.985 78.5249 134.819 78.5249H134.43C134.319 78.5249 134.264 78.4686 134.264 78.4123L132.323 74.9192C132.156 74.9192 131.99 74.9192 131.824 74.9192H129.383V78.3559C129.383 78.4686 129.328 78.5249 129.162 78.5249H128.94C128.829 78.5249 128.773 78.4686 128.773 78.3559V69.2852ZM132.212 74.2995C133.487 74.2995 134.541 73.2854 134.541 71.9332C134.541 70.6374 133.487 69.6796 132.212 69.6796H129.439V74.2995H132.212Z" fill="white"/>
</g>
<g opacity="0.9">
<path d="M143.195 69.2852C143.195 69.1725 143.251 69.1162 143.362 69.1162H143.639C143.75 69.1162 143.805 69.1725 143.805 69.2852V78.3559C143.805 78.4686 143.694 78.5249 143.639 78.5249H143.362C143.251 78.5249 143.195 78.4686 143.195 78.3559V69.2852Z" fill="white"/>
</g>
<g opacity="0.9">
<path d="M153.897 69.6764H151.346C151.235 69.6764 151.18 69.62 151.18 69.451V69.2257C151.18 69.113 151.235 69.0566 151.346 69.0566H157.058C157.169 69.0566 157.225 69.113 157.225 69.2257V69.451C157.225 69.5637 157.169 69.62 157.058 69.62H154.507V78.3527C154.507 78.4654 154.452 78.5217 154.285 78.5217H154.064C153.953 78.5217 153.897 78.4654 153.897 78.3527V69.6764Z" fill="white"/>
</g>
<g opacity="0.9">
<path d="M166.986 73.9614L163.603 69.3416C163.548 69.2289 163.548 69.1162 163.714 69.1162H164.103C164.158 69.1162 164.214 69.1162 164.269 69.1725L167.264 73.3417L170.314 69.1725C170.37 69.1162 170.425 69.1162 170.48 69.1162H170.869C170.98 69.1162 171.035 69.2289 170.98 69.3416L167.541 73.9614V78.3559C167.541 78.4686 167.486 78.525 167.375 78.525C167.208 78.525 166.931 78.5813 166.931 78.3559V73.9614H166.986Z" fill="white"/>
</g>
<path d="M140.483 53.41L138.32 49.9733L113.974 12.451C112.92 10.8171 110.979 9.85938 108.927 9.85938C106.875 9.85938 104.934 10.8735 103.88 12.451L91.7344 31.1558L91.9562 31.3248C95.0065 33.6348 97.2248 36.9588 98.1676 40.7336C98.2231 40.8462 98.2231 40.9589 98.2231 41.0716L98.3895 41.7477L108.871 25.5218L127.062 53.5227C131.277 60.2271 132.109 60.6215 135.603 60.6215H145.142L140.483 53.41Z" fill="#F16C22"/>
<path d="M37.3867 7.32364H40.7697C40.9361 7.32364 41.047 7.21093 41.047 7.04187V3.66067C41.047 3.49161 40.9361 3.37891 40.7697 3.37891H37.3867C37.2203 3.37891 37.1094 3.49161 37.1094 3.66067V7.04187C37.1648 7.21093 37.2758 7.32364 37.3867 7.32364Z" fill="#F16C22"/>
<path d="M34.2831 1.40883H35.2259C35.3369 1.40883 35.4478 1.29613 35.4478 1.18342V0.225414C35.4478 0.112708 35.3369 0 35.2259 0H34.2831C34.1722 0 34.0613 0.112708 34.0613 0.225414V1.18342C34.0058 1.29613 34.1168 1.40883 34.2831 1.40883Z" fill="#F16C22"/>
<path d="M27.9554 2.14126H29.0092C29.1201 2.14126 29.1755 2.02855 29.1755 1.9722V0.901481C29.1755 0.788775 29.0646 0.732422 29.0092 0.732422H27.9554C27.8445 0.732422 27.7891 0.845128 27.7891 0.901481V1.9722C27.7891 2.02855 27.8445 2.14126 27.9554 2.14126Z" fill="#F16C22"/>
<path d="M27.2927 6.59162V5.63362C27.2927 5.52091 27.1818 5.4082 27.0709 5.4082H26.1281C26.0172 5.4082 25.9062 5.52091 25.9062 5.63362V6.59162C25.9062 6.70433 26.0172 6.81704 26.1281 6.81704H27.0709C27.1818 6.81704 27.2927 6.70433 27.2927 6.59162Z" fill="#F16C22"/>
<path d="M27.6828 11.6055H29.1247C29.2356 11.6055 29.3466 11.4928 29.3466 11.3801V9.91487C29.3466 9.80216 29.2356 9.68945 29.1247 9.68945H27.6828C27.5719 9.68945 27.4609 9.80216 27.4609 9.91487V11.3801C27.4609 11.4928 27.5719 11.6055 27.6828 11.6055Z" fill="#F16C22"/>
<path d="M34.4465 13.2993C34.5574 13.2993 34.6683 13.1866 34.6683 13.0739V10.9324C34.6683 10.8197 34.5574 10.707 34.4465 10.707H32.339C32.2281 10.707 32.1172 10.8197 32.1172 10.9324V13.0739C32.1172 13.1866 32.2281 13.2993 32.339 13.2993H34.4465Z" fill="#F16C22"/>
<path d="M34.5003 17.9173H31.2282L29.7308 16.3962V14.3679C29.7308 14.2553 29.6199 14.1426 29.509 14.1426H27.4015C27.2906 14.1426 27.1797 14.2553 27.1797 14.3679V16.5089C27.1797 16.6215 27.2906 16.7342 27.4015 16.7342H29.3426L30.84 18.2554V21.5794C30.84 21.6921 30.9509 21.8048 31.0618 21.8048H34.5003C34.6112 21.8048 34.7221 21.6921 34.7221 21.5794V18.0864C34.7221 18.03 34.6112 17.9173 34.5003 17.9173Z" fill="#F16C22"/>
<path d="M33.2303 25.186H30.6792L29.4036 23.8902V22.876C29.4036 22.7634 29.3482 22.707 29.2373 22.707H28.0726C27.9617 22.707 27.9062 22.7634 27.9062 22.876V24.0592C27.9062 24.1719 27.9617 24.2282 28.0726 24.2282H29.0709L30.3465 25.524V28.1156C30.3465 28.2283 30.4019 28.2847 30.5128 28.2847H33.2303C33.3412 28.2847 33.3967 28.2283 33.3967 28.1156V25.355C33.3967 25.2423 33.3412 25.186 33.2303 25.186Z" fill="#F16C22"/>
<path d="M42.604 10.0854H41.2175H36.7808L33.065 6.31067V3.32467C33.065 3.15565 32.9541 3.04297 32.7877 3.04297H29.7929C29.6265 3.04297 29.5156 3.15565 29.5156 3.32467V6.36702C29.5156 6.53603 29.6265 6.64871 29.7929 6.64871H32.6768L36.3926 10.4235V10.5925V12.339V55.608C36.3926 58.4249 38.6664 60.6785 41.3839 60.6785H47.6508V54.9882V15.156C47.6508 12.339 45.3769 10.0854 42.604 10.0854Z" fill="#F16C22"/>
<path d="M81.5327 29.5795H64.7841C62.6212 29.5795 60.8465 27.7766 60.8465 25.5794C60.8465 23.3821 62.6212 21.5792 64.7841 21.5792H74.0458H86.0249H91.1826C94.2883 21.5792 96.8395 18.9876 96.8395 15.8326V10.0859H91.6818H86.0249H76.5969H64.7841C56.3543 10.0859 49.4773 17.0721 49.4773 25.6357C49.4773 27.0442 49.6437 28.34 49.9765 29.6358C51.6957 36.2839 57.6853 41.1855 64.7286 41.1855H81.4773C83.6402 41.1855 85.4149 42.9884 85.4149 45.1856C85.4149 45.2983 85.4149 45.411 85.4149 45.5236C85.4149 45.58 85.4149 45.6927 85.3594 45.749C85.3594 45.749 85.3594 45.749 85.3594 45.8053C85.0821 47.7209 83.4184 49.1857 81.4773 49.1857H62.9539C62.8985 49.1857 62.8985 49.1857 62.843 49.1857H49.4219V60.7354C49.4773 60.7354 81.4218 60.7354 81.4218 60.7354C89.8516 60.7354 96.7285 53.7492 96.7285 45.1856C96.7285 43.7771 96.5622 42.4813 96.2294 41.1855C94.5656 34.4811 88.6315 29.5795 81.5327 29.5795Z" fill="#F16C22"/>
</svg>
