<svg width="59" height="27" viewBox="0 0 59 27" fill="none" xmlns="http://www.w3.org/2000/svg">
<g opacity="0.9">
<path d="M1.62632 23.5098C2.08017 23.5098 2.42057 23.6635 2.72314 23.9324C2.74205 23.9516 2.74205 23.99 2.72314 24.0092L2.64749 24.0861C2.62858 24.1053 2.59076 24.1053 2.57185 24.0861C2.3071 23.8556 1.98562 23.7019 1.62632 23.7019C0.83207 23.7019 0.226928 24.355 0.226928 25.1427C0.226928 25.9303 0.85098 26.5835 1.62632 26.5835C2.02344 26.5835 2.3071 26.4298 2.57185 26.1993C2.59076 26.1801 2.62858 26.1801 2.64749 26.1993L2.72314 26.2761C2.74205 26.2953 2.74205 26.3338 2.72314 26.353C2.42057 26.6604 2.02344 26.7948 1.62632 26.7948C0.718605 26.7948 0 26.0648 0 25.1427C0 24.259 0.737516 23.5098 1.62632 23.5098Z" fill="black"/>
</g>
<g opacity="0.9">
<path d="M6.10628 25.22L4.95273 23.6447C4.93382 23.6063 4.95273 23.5679 4.99055 23.5679H5.12293C5.14184 23.5679 5.16075 23.5679 5.17966 23.5871L6.20084 25.0087L7.24092 23.5871C7.25983 23.5679 7.27874 23.5679 7.29765 23.5679H7.43003C7.46785 23.5679 7.48676 23.6063 7.46785 23.6447L6.29539 25.22V26.7185C6.29539 26.7569 6.27648 26.7761 6.23866 26.7761C6.18192 26.7761 6.08737 26.7953 6.08737 26.7185V25.22H6.10628Z" fill="black"/>
</g>
<g opacity="0.9">
<path d="M9.96875 23.6255C9.96875 23.5871 9.98766 23.5679 10.0255 23.5679H10.9899C11.5383 23.5679 11.9165 23.8945 11.9165 24.3939C11.9165 24.7589 11.7085 25.0279 11.4249 25.1432C11.7464 25.2392 12.0111 25.4698 12.0111 25.9116C12.0111 26.4303 11.614 26.7761 11.0277 26.7761H10.0255C9.98766 26.7761 9.96875 26.7569 9.96875 26.7185V23.6255ZM11.0467 26.584C11.4816 26.584 11.7842 26.2958 11.7842 25.8924C11.7842 25.489 11.4438 25.2392 11.0088 25.2392H10.1579V26.5648H11.0467V26.584ZM11.0088 25.0471C11.4249 25.0471 11.6896 24.7782 11.6896 24.3939C11.6896 23.9905 11.4249 23.76 10.9899 23.76H10.1768V25.0471H11.0088Z" fill="black"/>
</g>
<g opacity="0.9">
<path d="M14.7578 23.6255C14.7578 23.5871 14.7767 23.5679 14.8145 23.5679H16.63C16.6678 23.5679 16.6867 23.5871 16.6867 23.6255V23.7023C16.6867 23.7408 16.6678 23.76 16.63 23.76H14.9847V25.0279H16.422C16.4598 25.0279 16.4787 25.0471 16.4787 25.0855V25.1624C16.4787 25.2008 16.4598 25.22 16.422 25.22H14.9847V26.584H16.63C16.6678 26.584 16.6867 26.6032 16.6867 26.6416V26.7185C16.6867 26.7569 16.6678 26.7761 16.63 26.7761H14.8145C14.7767 26.7761 14.7578 26.7569 14.7578 26.7185V23.6255Z" fill="black"/>
</g>
<g opacity="0.9">
<path d="M19.4297 23.6255C19.4297 23.5871 19.4486 23.5679 19.4864 23.5679H20.6022C21.1506 23.5679 21.6044 23.9905 21.6044 24.5476C21.6044 25.0087 21.2829 25.3737 20.8669 25.5082L21.5288 26.6993C21.5477 26.7377 21.5477 26.7761 21.491 26.7761H21.3586C21.3208 26.7761 21.3018 26.7569 21.3018 26.7377L20.64 25.5466C20.5832 25.5466 20.5265 25.5466 20.4698 25.5466H19.6377V26.7185C19.6377 26.7569 19.6188 26.7761 19.5621 26.7761H19.4864C19.4486 26.7761 19.4297 26.7569 19.4297 26.7185V23.6255ZM20.6022 25.3353C21.0371 25.3353 21.3964 24.9895 21.3964 24.5284C21.3964 24.0866 21.0371 23.76 20.6022 23.76H19.6566V25.3353H20.6022Z" fill="black"/>
</g>
<g opacity="0.9">
<path d="M24.1769 26.3335L24.2147 26.2758C24.2525 26.2374 24.2714 26.2182 24.3092 26.2566C24.3471 26.295 24.6875 26.6024 25.1413 26.6024C25.5573 26.6024 25.8977 26.3142 25.8977 25.9877C25.8977 25.5842 25.5763 25.3921 25.0278 25.2C24.4983 25.0079 24.158 24.8158 24.158 24.2971C24.158 23.9513 24.4227 23.4902 25.1413 23.4902C25.5952 23.4902 25.9166 23.7208 25.9166 23.7208C25.9356 23.74 25.9734 23.7592 25.9356 23.8168C25.9166 23.836 25.9166 23.8552 25.8977 23.8745C25.8788 23.9129 25.841 23.9321 25.8032 23.8937C25.7843 23.8937 25.4817 23.6823 25.1413 23.6823C24.5929 23.6823 24.3849 24.0281 24.3849 24.2971C24.3849 24.6813 24.6685 24.8542 25.1413 25.0079C25.7654 25.2192 26.1436 25.4498 26.1436 25.9684C26.1436 26.4295 25.6708 26.7753 25.1602 26.7753C24.6307 26.7753 24.2714 26.4487 24.1958 26.3911C24.158 26.4103 24.139 26.3911 24.1769 26.3335Z" fill="black"/>
</g>
<g opacity="0.9">
<path d="M28.7656 23.6255C28.7656 23.5871 28.7845 23.5679 28.8224 23.5679H30.6378C30.6756 23.5679 30.6945 23.5871 30.6945 23.6255V23.7023C30.6945 23.7408 30.6756 23.76 30.6378 23.76H28.9926V25.0279H30.4298C30.4676 25.0279 30.4865 25.0471 30.4865 25.0855V25.1624C30.4865 25.2008 30.4676 25.22 30.4298 25.22H28.9926V26.584H30.6378C30.6756 26.584 30.6945 26.6032 30.6945 26.6416V26.7185C30.6945 26.7569 30.6756 26.7761 30.6378 26.7761H28.8224C28.7845 26.7761 28.7656 26.7569 28.7656 26.7185V23.6255Z" fill="black"/>
</g>
<g opacity="0.9">
<path d="M34.8767 23.5107C35.3305 23.5107 35.6709 23.6644 35.9735 23.9334C35.9924 23.9526 35.9924 23.991 35.9735 24.0102L35.8978 24.0871C35.8789 24.1063 35.8411 24.1063 35.8222 24.0871C35.5575 23.8565 35.236 23.7029 34.8767 23.7029C34.0824 23.7029 33.4773 24.356 33.4773 25.1437C33.4773 25.9313 34.1013 26.5845 34.8767 26.5845C35.2738 26.5845 35.5575 26.4308 35.8222 26.2003C35.8411 26.1811 35.8789 26.1811 35.8978 26.2003L35.9735 26.2771C35.9924 26.2963 35.9924 26.3347 35.9735 26.354C35.6709 26.6613 35.2738 26.7958 34.8767 26.7958C33.969 26.7958 33.2504 26.0658 33.2504 25.1437C33.2314 24.26 33.969 23.5107 34.8767 23.5107Z" fill="black"/>
</g>
<g opacity="0.9">
<path d="M38.6484 23.6255C38.6484 23.5871 38.6673 23.5679 38.7052 23.5679H38.7997C38.8375 23.5679 38.8565 23.5871 38.8565 23.6255V25.585C38.8565 26.1806 39.2158 26.6032 39.8209 26.6032C40.426 26.6032 40.8043 26.1806 40.8043 25.585V23.6255C40.8043 23.5871 40.8232 23.5679 40.861 23.5679H40.9555C40.9934 23.5679 41.0123 23.5871 41.0123 23.6255V25.6042C41.0123 26.2958 40.5395 26.8145 39.8209 26.8145C39.1023 26.8145 38.6484 26.2958 38.6484 25.6042V23.6255Z" fill="black"/>
</g>
<g opacity="0.9">
<path d="M43.9141 23.6255C43.9141 23.5871 43.933 23.5679 43.9708 23.5679H45.0865C45.6349 23.5679 46.0888 23.9905 46.0888 24.5476C46.0888 25.0087 45.7673 25.3737 45.3513 25.5082L46.0131 26.6993C46.0321 26.7377 46.0321 26.7761 45.9753 26.7761H45.843C45.8051 26.7761 45.7862 26.7569 45.7862 26.7377L45.1243 25.5466C45.0676 25.5466 45.0109 25.5466 44.9541 25.5466H44.1221V26.7185C44.1221 26.7569 44.1032 26.7761 44.0464 26.7761H43.9708C43.933 26.7761 43.9141 26.7569 43.9141 26.7185V23.6255ZM45.0865 25.3353C45.5215 25.3353 45.8808 24.9895 45.8808 24.5284C45.8808 24.0866 45.5215 23.76 45.0865 23.76H44.141V25.3353H45.0865Z" fill="black"/>
</g>
<g opacity="0.9">
<path d="M48.8359 23.6255C48.8359 23.5871 48.8549 23.5679 48.8927 23.5679H48.9872C49.025 23.5679 49.044 23.5871 49.044 23.6255V26.7185C49.044 26.7569 49.0061 26.7761 48.9872 26.7761H48.8927C48.8549 26.7761 48.8359 26.7569 48.8359 26.7185V23.6255Z" fill="black"/>
</g>
<g opacity="0.9">
<path d="M52.4813 23.7587H51.6114C51.5736 23.7587 51.5547 23.7395 51.5547 23.6818V23.605C51.5547 23.5666 51.5736 23.5474 51.6114 23.5474H53.5592C53.597 23.5474 53.6159 23.5666 53.6159 23.605V23.6818C53.6159 23.7203 53.597 23.7395 53.5592 23.7395H52.6893V26.7172C52.6893 26.7556 52.6704 26.7748 52.6137 26.7748H52.538C52.5002 26.7748 52.4813 26.7556 52.4813 26.7172V23.7587Z" fill="black"/>
</g>
<g opacity="0.9">
<path d="M56.9383 25.22L55.7847 23.6447C55.7658 23.6063 55.7658 23.5679 55.8226 23.5679H55.9549C55.9739 23.5679 55.9928 23.5679 56.0117 23.5871L57.0329 25.0087L58.0729 23.5871C58.0919 23.5679 58.1108 23.5679 58.1297 23.5679H58.262C58.2999 23.5679 58.3188 23.6063 58.2999 23.6447L57.1274 25.22V26.7185C57.1274 26.7569 57.1085 26.7761 57.0707 26.7761C57.0139 26.7761 56.9194 26.7953 56.9194 26.7185V25.22H56.9383Z" fill="black"/>
</g>
<path d="M47.9272 18.2124L47.1896 17.0405L38.8879 4.24601C38.5286 3.68889 37.8667 3.3623 37.167 3.3623C36.4673 3.3623 35.8054 3.7081 35.4461 4.24601L31.3047 10.624L31.3803 10.6817C32.4204 11.4693 33.1768 12.6028 33.4983 13.8899C33.5172 13.9283 33.5172 13.9667 33.5172 14.0052L33.574 14.2357L37.1481 8.70295L43.3508 18.2508C44.788 20.5369 45.0717 20.6714 46.263 20.6714H49.5157L47.9272 18.2124Z" fill="#F16C22"/>
<path d="M12.7742 2.49743H13.9278C13.9845 2.49743 14.0223 2.459 14.0223 2.40136V1.24842C14.0223 1.19077 13.9845 1.15234 13.9278 1.15234H12.7742C12.7175 1.15234 12.6797 1.19077 12.6797 1.24842V2.40136C12.6986 2.459 12.7364 2.49743 12.7742 2.49743Z" fill="#F16C22"/>
<path d="M11.7056 0.480389H12.027C12.0649 0.480389 12.1027 0.441958 12.1027 0.403527V0.0768625C12.1027 0.0384314 12.0649 0 12.027 0H11.7056C11.6677 0 11.6299 0.0384314 11.6299 0.0768625V0.403527C11.611 0.441958 11.6488 0.480389 11.7056 0.480389Z" fill="#F16C22"/>
<path d="M9.55673 0.730389H9.91604C9.95386 0.730389 9.97277 0.691958 9.97277 0.672743V0.307647C9.97277 0.269215 9.93495 0.25 9.91604 0.25H9.55673C9.51891 0.25 9.5 0.288431 9.5 0.307647V0.672743C9.5 0.691958 9.51891 0.730389 9.55673 0.730389Z" fill="#F16C22"/>
<path d="M9.32433 2.24776V1.9211C9.32433 1.88267 9.28651 1.84424 9.24869 1.84424H8.9272C8.88938 1.84424 8.85156 1.88267 8.85156 1.9211V2.24776C8.85156 2.2862 8.88938 2.32463 8.9272 2.32463H9.24869C9.28651 2.32463 9.32433 2.2862 9.32433 2.24776Z" fill="#F16C22"/>
<path d="M9.45846 3.95802H9.95013C9.98795 3.95802 10.0258 3.91959 10.0258 3.88115V3.38155C10.0258 3.34312 9.98795 3.30469 9.95013 3.30469H9.45846C9.42063 3.30469 9.38281 3.34312 9.38281 3.38155V3.88115C9.38281 3.91959 9.42063 3.95802 9.45846 3.95802Z" fill="#F16C22"/>
<path d="M11.763 4.53431C11.8008 4.53431 11.8386 4.49587 11.8386 4.45744V3.72725C11.8386 3.68882 11.8008 3.65039 11.763 3.65039H11.0444C11.0066 3.65039 10.9688 3.68882 10.9688 3.72725V4.45744C10.9688 4.49587 11.0066 4.53431 11.0444 4.53431H11.763Z" fill="#F16C22"/>
<path d="M11.7775 6.10989H10.6617L10.1511 5.59119V4.8996C10.1511 4.86118 10.1133 4.82275 10.0755 4.82275H9.35689C9.31907 4.82275 9.28125 4.86118 9.28125 4.8996V5.62961C9.28125 5.66804 9.31907 5.70646 9.35689 5.70646H10.0188L10.5294 6.22515V7.3586C10.5294 7.39702 10.5672 7.43544 10.605 7.43544H11.7775C11.8153 7.43544 11.8531 7.39702 11.8531 7.3586V6.16752C11.8531 6.14831 11.8153 6.10989 11.7775 6.10989Z" fill="#F16C22"/>
<path d="M11.3467 8.58747H10.4768L10.0418 8.14562V7.79982C10.0418 7.7614 10.0229 7.74219 9.98511 7.74219H9.58798C9.55016 7.74219 9.53125 7.7614 9.53125 7.79982V8.20325C9.53125 8.24167 9.55016 8.26088 9.58798 8.26088H9.92837L10.3633 8.70273V9.58644C10.3633 9.62486 10.3822 9.64407 10.4201 9.64407H11.3467C11.3845 9.64407 11.4034 9.62486 11.4034 9.58644V8.6451C11.4034 8.60668 11.3845 8.58747 11.3467 8.58747Z" fill="#F16C22"/>
<path d="M14.5489 3.43945H14.0761H12.5632L11.2962 2.15232V1.13414C11.2962 1.07651 11.2584 1.03809 11.2017 1.03809H10.1805C10.1238 1.03809 10.0859 1.07651 10.0859 1.13414V2.17153C10.0859 2.22916 10.1238 2.26759 10.1805 2.26759H11.1638L12.4309 3.55472V3.61235V4.20789V18.9619C12.4309 19.9224 13.2062 20.6909 14.1328 20.6909H16.2697V18.7506V5.16844C16.2697 4.20789 15.4944 3.43945 14.5489 3.43945Z" fill="#F16C22"/>
<path d="M27.8165 10.0864H22.1054C21.3679 10.0864 20.7628 9.47169 20.7628 8.72246C20.7628 7.97323 21.3679 7.35848 22.1054 7.35848H25.2635H29.3482H31.1069C32.1659 7.35848 33.0358 6.47478 33.0358 5.39897V3.43945H31.2771H29.3482H26.1334H22.1054C19.231 3.43945 16.8861 5.82161 16.8861 8.74167C16.8861 9.22194 16.9428 9.6638 17.0563 10.1056C17.6425 12.3725 19.6849 14.0439 22.0865 14.0439H27.7976C28.5351 14.0439 29.1402 14.6586 29.1402 15.4079C29.1402 15.4463 29.1402 15.4847 29.1402 15.5231C29.1402 15.5423 29.1402 15.5808 29.1213 15.6C29.1213 15.6 29.1213 15.6 29.1213 15.6192C29.0267 16.2724 28.4594 16.7718 27.7976 16.7718H21.4814C21.4625 16.7718 21.4625 16.7718 21.4436 16.7718H16.8672V20.7101C16.8861 20.7101 27.7786 20.7101 27.7786 20.7101C30.6531 20.7101 32.998 18.3279 32.998 15.4079C32.998 14.9276 32.9413 14.4857 32.8278 14.0439C32.2605 11.7578 30.237 10.0864 27.8165 10.0864Z" fill="#F16C22"/>
</svg>
