<svg width="39" height="40" viewBox="0 0 39 40" fill="none" xmlns="http://www.w3.org/2000/svg">
<path d="M32.7891 21.8205V5.83836L16.3945 0L0 5.83836V22.3514C0.0489745 32.0941 10.1862 37.9908 16.3913 39.9999C17.0132 39.7986 19.0402 39.2205 22.6562 37.1297C24.3666 38.896 26.7612 39.9959 29.4081 39.9959C34.5926 39.9959 38.8104 35.778 38.8104 30.5936C38.8104 26.6005 36.3079 23.1813 32.7891 21.8205ZM16.3947 37.5363C14.2167 36.7496 2.44795 32.0412 2.34328 22.3453V7.49131L16.3946 2.48747L30.4458 7.49131V21.2489C30.105 21.2114 29.7589 21.1914 29.4081 21.1914C28.957 21.1914 28.5134 21.224 28.079 21.2857V9.24478L16.3945 4.95885L4.71007 9.24478V22.3423C4.65203 29.0824 12.4632 33.6172 16.3812 35.0344C17.6522 34.5917 19.0405 33.9389 20.3579 33.1451C20.567 33.8858 20.8649 34.5897 21.2392 35.2446C19.0452 36.5229 17.1426 37.266 16.3947 37.5363ZM20.0059 30.5937V30.5948C19.2175 31.1192 18.3833 31.5986 17.5662 31.9997V20.0724H25.7358V21.9386C22.3709 23.3716 20.0059 26.7116 20.0059 30.5937ZM25.7358 17.7291H17.5662V7.88466L25.7358 10.8813V17.7291ZM15.2229 17.7291H7.05327L7.05335 10.8813L15.223 7.88466L15.2229 17.7291ZM7.05327 20.0724H15.223V31.985C11.1573 29.9995 6.96063 26.368 7.05327 22.3579V20.0724ZM29.4081 37.6527C25.5158 37.6527 22.3492 34.486 22.3492 30.5937C22.3492 26.7013 25.5158 23.5347 29.4081 23.5347C33.3005 23.5347 36.4671 26.7013 36.4671 30.5937C36.4671 34.486 33.3005 37.6527 29.4081 37.6527Z" fill="#06214D"/>
<path d="M28.5315 31.4321L26.1179 29.0185L24.4609 30.6754L28.5315 34.746L34.3516 28.926L32.6947 27.269L28.5315 31.4321Z" fill="#06214D"/>
</svg>
