<svg width="35" height="40" viewBox="0 0 35 40" fill="none" xmlns="http://www.w3.org/2000/svg">
<path d="M26.4062 28.5938C27.2692 28.5938 27.9688 27.8942 27.9688 27.0312C27.9688 26.1683 27.2692 25.4688 26.4062 25.4688C25.5433 25.4688 24.8438 26.1683 24.8438 27.0312C24.8438 27.8942 25.5433 28.5938 26.4062 28.5938Z" fill="#06214D"/>
<path d="M33.4375 28.2812C34.3005 28.2812 35 27.5817 35 26.7188V20.9375C35 17.4913 32.1962 14.6875 28.75 14.6875H26.8721V9.17703C26.8721 4.1168 22.6665 0 17.4971 0C12.3277 0 8.12211 4.1168 8.12211 9.17703V14.6875H6.25C2.80375 14.6875 0 17.4913 0 20.9375V33.75C0 37.1962 2.80375 40 6.25 40H28.75C32.1962 40 35 37.1962 35 33.75C35 32.887 34.3005 32.1875 33.4375 32.1875C32.5745 32.1875 31.875 32.887 31.875 33.75C31.875 35.4731 30.4731 36.875 28.75 36.875H6.25C4.52688 36.875 3.125 35.4731 3.125 33.75V20.9375C3.125 19.2144 4.52688 17.8125 6.25 17.8125H28.75C30.4731 17.8125 31.875 19.2144 31.875 20.9375V26.7188C31.875 27.5817 32.5745 28.2812 33.4375 28.2812ZM23.7471 14.6875H11.2471V9.17703C11.2471 5.83992 14.0509 3.125 17.4971 3.125C20.9434 3.125 23.7471 5.83992 23.7471 9.17703V14.6875Z" fill="#06214D"/>
<path d="M14.6094 28.5938C15.4723 28.5938 16.1719 27.8942 16.1719 27.0312C16.1719 26.1683 15.4723 25.4688 14.6094 25.4688C13.7464 25.4688 13.0469 26.1683 13.0469 27.0312C13.0469 27.8942 13.7464 28.5938 14.6094 28.5938Z" fill="#06214D"/>
<path d="M8.75 28.5938C9.61294 28.5938 10.3125 27.8942 10.3125 27.0312C10.3125 26.1683 9.61294 25.4688 8.75 25.4688C7.88706 25.4688 7.1875 26.1683 7.1875 27.0312C7.1875 27.8942 7.88706 28.5938 8.75 28.5938Z" fill="#06214D"/>
<path d="M20.4688 28.5938C21.3317 28.5938 22.0312 27.8942 22.0312 27.0312C22.0312 26.1683 21.3317 25.4688 20.4688 25.4688C19.6058 25.4688 18.9062 26.1683 18.9062 27.0312C18.9062 27.8942 19.6058 28.5938 20.4688 28.5938Z" fill="#06214D"/>
</svg>
