<svg width="40" height="37" viewBox="0 0 40 37" fill="none" xmlns="http://www.w3.org/2000/svg">
<path fill-rule="evenodd" clip-rule="evenodd" d="M31.9625 28.0726C31.4938 27.9555 30.9549 27.8383 30.4159 27.7446C30.2519 28.3773 30.0644 28.9397 29.8535 29.4552C30.6268 29.1037 31.3533 28.635 31.9625 28.0726ZM38.1254 10.662H1.87463V31.611C1.87463 33.1107 3.09315 34.3058 4.56942 34.3058H35.4071C36.9069 34.3058 38.1254 33.1107 38.1254 31.611V10.662ZM1.87463 8.78735H38.1254V4.56942C38.1254 3.09315 36.9069 1.87463 35.4071 1.87463H4.56942C3.09315 1.87463 1.87463 3.09315 1.87463 4.56942V8.78735ZM27.8617 7.9672C26.3855 7.9672 25.2138 6.79555 25.2138 5.34271C25.2138 3.86643 26.3855 2.69479 27.8617 2.69479C29.3146 2.69479 30.4862 3.86643 30.4862 5.34271C30.4862 6.79555 29.3146 7.9672 27.8617 7.9672ZM27.8617 4.56942C26.8541 4.56942 26.8541 6.09256 27.8617 6.09256C28.8694 6.09256 28.8694 4.56942 27.8617 4.56942ZM33.8137 7.9672C32.3609 7.9672 31.1892 6.79555 31.1892 5.34271C31.1892 3.86643 32.3609 2.69479 33.8137 2.69479C35.29 2.69479 36.4616 3.86643 36.4616 5.34271C36.4616 6.79555 35.29 7.9672 33.8137 7.9672ZM33.8137 4.56942C32.8061 4.56942 32.8061 6.09256 33.8137 6.09256C34.8213 6.09256 34.8213 4.56942 33.8137 4.56942ZM21.8864 7.9672C20.4335 7.9672 19.2384 6.79555 19.2384 5.34271C19.2384 3.86643 20.4335 2.69479 21.8864 2.69479C23.3392 2.69479 24.5108 3.86643 24.5108 5.34271C24.5108 6.79555 23.3392 7.9672 21.8864 7.9672ZM21.8864 4.56942C20.8787 4.56942 20.8787 6.09256 21.8864 6.09256C22.894 6.09256 22.894 4.56942 21.8864 4.56942ZM15.2314 6.28002H4.45226C3.23374 6.28002 3.23374 4.40539 4.45226 4.40539H15.2314C16.4499 4.40539 16.4499 6.28002 15.2314 6.28002ZM35.4071 36.1804H4.56942C2.0621 36.1804 0 34.1418 0 31.611V4.56942C0 2.0621 2.0621 0 4.56942 0H35.4071C37.9379 0 40 2.0621 40 4.56942V31.611C40 34.1418 37.9379 36.1804 35.4071 36.1804ZM16.8951 16.239H4.66315C3.44464 16.239 3.44464 14.3644 4.66315 14.3644H16.8951C18.1371 14.3644 18.1371 16.239 16.8951 16.239ZM12.5132 21.0662H4.66315C3.44464 21.0662 3.44464 19.1916 4.66315 19.1916H12.5132C13.7317 19.1916 13.7317 21.0662 12.5132 21.0662ZM15.9813 25.87H4.66315C3.44464 25.87 3.44464 23.9953 4.66315 23.9953H15.9813C17.2232 23.9953 17.2232 25.87 15.9813 25.87ZM17.8793 30.6971H4.66315C3.44464 30.6971 3.44464 28.8225 4.66315 28.8225H17.8793C19.0978 28.8225 19.0978 30.6971 17.8793 30.6971ZM27.9086 31.8922C27.2291 31.9859 26.4558 31.9859 25.7762 31.8922C21.2068 31.3767 17.2466 27.2291 17.4341 22.519C17.4341 17.7153 20.9959 13.7083 25.7762 13.1693C26.4792 13.0756 27.2056 13.099 27.9086 13.1693C32.6889 13.802 36.321 17.7622 36.2742 22.5659C36.2039 27.3228 32.6889 31.3533 27.9086 31.8922ZM23.8313 29.4552C23.6204 28.9397 23.4329 28.3773 23.2923 27.7446C22.7299 27.8383 22.2144 27.9555 21.7223 28.0726C22.355 28.635 23.058 29.1037 23.8313 29.4552ZM20.4335 26.5026C21.1599 26.2683 22.0035 26.0574 22.9174 25.9168C22.8002 25.1435 22.7299 24.3234 22.7065 23.4798H19.3556C19.4962 24.5811 19.8711 25.6122 20.4335 26.5026ZM19.3556 21.6052H22.7065C22.7299 20.7381 22.8002 19.918 22.9174 19.1447C22.0035 19.0041 21.1599 18.8166 20.4335 18.5589C19.8711 19.4728 19.4962 20.5038 19.3556 21.6052ZM21.7223 16.9889C22.2144 17.1295 22.7299 17.2232 23.2923 17.3169C23.4329 16.7077 23.6204 16.1219 23.8313 15.6063C23.058 15.9578 22.355 16.4265 21.7223 16.9889ZM29.8535 15.6298C30.0644 16.1219 30.2519 16.7077 30.4159 17.3169C30.9549 17.2232 31.4938 17.1295 31.9625 16.9889C31.3533 16.4265 30.6268 15.9578 29.8535 15.6298ZM33.2513 18.5589C32.5249 18.8166 31.6813 19.0041 30.7674 19.1447C30.8846 19.918 30.9549 20.7381 30.9783 21.6052H34.3292C34.1886 20.5038 33.8137 19.4728 33.2513 18.5589ZM34.3292 23.4798H30.9783C30.9549 24.3234 30.8846 25.1435 30.7674 25.9168C31.6813 26.0574 32.5249 26.2683 33.2513 26.5026C33.8137 25.6122 34.1886 24.5811 34.3292 23.4798ZM26.3386 14.9971C25.9168 15.4657 25.495 16.3328 25.167 17.5278C26.2449 17.5981 27.44 17.5981 28.5179 17.5278C28.1898 16.3328 27.768 15.4657 27.3462 14.9971C27.0182 14.9736 26.6667 14.9736 26.3386 14.9971ZM26.3386 30.0644C26.5026 30.0644 27.2291 30.1347 27.3462 30.0644C27.768 29.5958 28.1898 28.7288 28.5179 27.5571C27.44 27.4868 26.2449 27.4868 25.167 27.5571C25.495 28.7288 25.9168 29.5958 26.3386 30.0644ZM24.792 25.7059C26.1043 25.5888 27.5806 25.5888 28.8928 25.7059C29.01 25.0029 29.0803 24.2765 29.1037 23.4798H24.5811C24.6046 24.2765 24.6749 25.0029 24.792 25.7059ZM24.792 19.379C24.6749 20.0586 24.6046 20.8084 24.5811 21.6052H29.1037C29.0803 20.8084 29.01 20.0586 28.8928 19.379C27.5806 19.4728 26.1043 19.4728 24.792 19.379Z" fill="#06214D"/>
</svg>
