<svg width="40" height="40" viewBox="0 0 40 40" fill="none" xmlns="http://www.w3.org/2000/svg">
<path d="M38.8281 0H1.17188C0.524687 0 0 0.524687 0 1.17188V38.8281C0 39.4753 0.524687 40 1.17188 40H38.8281C39.4753 40 40 39.4753 40 38.8281V1.17188C40 0.524687 39.4753 0 38.8281 0ZM37.6562 4.70703H35.293V2.34375H37.6562V4.70703ZM2.34375 2.34375H32.9492V4.70703H2.34375V2.34375ZM37.6562 37.6562H2.34375V7.05078H37.6562V37.6562Z" fill="#06214D"/>
<path d="M28.2324 19.0291V17.6465C28.2324 13.1071 24.5394 9.41406 20 9.41406C15.4606 9.41406 11.7676 13.1071 11.7676 17.6465V19.0291C10.3981 19.5134 9.41406 20.8203 9.41406 22.3535V31.7676C9.41406 33.7115 10.9955 35.293 12.9395 35.293H27.0605C29.0045 35.293 30.5859 33.7115 30.5859 31.7676V22.3535C30.5859 20.8204 29.6019 19.5134 28.2324 19.0291ZM21.1816 18.8281H18.8184V17.6477C18.8184 16.9962 19.3484 16.4661 20 16.4661C20.6516 16.4661 21.1816 16.9962 21.1816 17.6477V18.8281ZM14.1113 17.6465C14.1113 14.3995 16.753 11.7578 20 11.7578C23.247 11.7578 25.8887 14.3995 25.8887 17.6465V18.8062H23.5254V17.6477C23.5254 15.7037 21.9439 14.1223 20 14.1223C18.0561 14.1223 16.4746 15.7037 16.4746 17.6477V18.8062H14.1113V17.6465ZM28.2422 31.7676C28.2422 32.4191 27.7121 32.9492 27.0605 32.9492H12.9395C12.2879 32.9492 11.7578 32.4191 11.7578 31.7676V22.3535C11.7578 21.702 12.2879 21.1719 12.9395 21.1719H27.0605C27.7121 21.1719 28.2422 21.702 28.2422 22.3535V31.7676Z" fill="#06214D"/>
<path d="M20 23.5352C19.3528 23.5352 18.8281 24.0598 18.8281 24.707V29.4141C18.8281 30.0613 19.3528 30.5859 20 30.5859C20.6472 30.5859 21.1719 30.0613 21.1719 29.4141V24.707C21.1719 24.0598 20.6472 23.5352 20 23.5352Z" fill="#06214D"/>
</svg>
