<svg width="34" height="34" viewBox="0 0 34 34" fill="none" xmlns="http://www.w3.org/2000/svg">
<path d="M16.6667 8.3335C17.5872 8.3335 18.3333 9.0797 18.3333 10.0002V15.0002C18.3333 15.9207 17.5872 16.6668 16.6667 16.6668C15.7462 16.6668 15 15.9207 15 15.0002V10.0002C15 9.0797 15.7462 8.3335 16.6667 8.3335Z" fill="#06214D"/>
<path d="M16.6667 21.6668C17.5872 21.6668 18.3333 20.9207 18.3333 20.0002C18.3333 19.0797 17.5872 18.3335 16.6667 18.3335C15.7462 18.3335 15 19.0797 15 20.0002C15 20.9207 15.7462 21.6668 16.6667 21.6668Z" fill="#06214D"/>
<path fill-rule="evenodd" clip-rule="evenodd" d="M15.8573 0.209737C16.3607 -0.0699125 16.9727 -0.0699125 17.476 0.209737L19.7087 1.45005C22.9923 3.27435 26.6062 4.42747 30.3397 4.8423L31.8507 5.0102C32.2922 5.05924 32.6957 5.28242 32.9718 5.63022C33.248 5.978 33.374 6.42164 33.3218 6.86267L32.3258 15.2723C31.7107 20.467 28.9058 25.1517 24.6172 28.1468L17.621 33.033C17.0478 33.4335 16.2857 33.4335 15.7123 33.033L8.71612 28.1468C4.42752 25.1517 1.62262 20.467 1.00745 15.2723L0.0115671 6.86267C-0.0406496 6.42164 0.0853008 5.978 0.361484 5.63022C0.637667 5.28242 1.04123 5.05924 1.48262 5.0102L2.99373 4.8423C6.72723 4.42747 10.341 3.27435 13.6247 1.45005L15.8573 0.209737ZM16.6667 3.57327L15.2435 4.3639C11.6196 6.3772 7.63607 7.65909 3.51915 8.13737L4.31765 14.8803C4.82097 19.1305 7.11588 22.9633 10.6248 25.414L16.6667 29.6338L22.7087 25.414C26.2175 22.9633 28.5123 19.1305 29.0157 14.8803L29.8142 8.13737C25.6973 7.65909 21.7138 6.3772 18.0898 4.3639L16.6667 3.57327Z" fill="#06214D"/>
</svg>
