<svg width="40" height="40" viewBox="0 0 40 40" fill="none" xmlns="http://www.w3.org/2000/svg">
<g clip-path="url(#clip0_4636_2401)">
<path d="M0 35.3125H10.0875C12.454 38.1746 16.0189 40 20 40C23.9811 40 27.5461 38.1746 29.9125 35.3125H40V0H0V35.3125ZM9.51758 28.2031H12.9989C13.1451 31.0788 13.8527 34.1194 15.3127 36.5473C12.1729 34.9713 9.9182 31.8647 9.51758 28.2031ZM12.9989 25.8594H9.51758C9.9182 22.1978 12.1729 19.0912 15.3127 17.5152C13.8523 19.9438 13.145 22.9846 12.9989 25.8594ZM18.8281 37.1388C16.6053 35.3945 15.5213 31.3288 15.3459 28.2031H18.8281V37.1388ZM18.8281 25.8594H15.3459C15.5169 22.8137 16.5759 18.6912 18.8281 16.9237V25.8594ZM21.1719 37.1388V28.2031L24.6541 28.2023C24.4831 31.248 23.4241 35.3713 21.1719 37.1388ZM21.1719 25.8594V16.9237C23.3947 18.668 24.4787 22.7337 24.6541 25.8594H21.1719ZM24.6873 36.5473C26.1477 34.1187 26.855 31.077 27.0011 28.2023L30.4824 28.2031C30.0818 31.8647 27.8271 34.9713 24.6873 36.5473ZM27.0011 25.8594C26.8549 22.9837 26.1473 19.9431 24.6873 17.5152C27.827 19.0912 30.0818 22.1979 30.4824 25.8594H27.0011ZM2.34375 2.34375H37.6562V9.375H2.34375V2.34375ZM2.34375 11.7188H37.6562V32.9688H31.458C32.3731 31.1887 32.8906 29.1697 32.8906 27.0312C32.8906 19.8802 27.1079 14.0625 20 14.0625C12.8921 14.0625 7.10938 19.8802 7.10938 27.0312C7.10938 29.1697 7.62687 31.1887 8.54195 32.9688H2.34375V11.7188Z" fill="white"/>
<path d="M4.76562 4.6875H7.10938V7.03125H4.76562V4.6875Z" fill="white"/>
<path d="M9.45312 4.6875H11.7969V7.03125H9.45312V4.6875Z" fill="white"/>
<path d="M14.1406 4.6875H16.4844V7.03125H14.1406V4.6875Z" fill="white"/>
<path d="M25.8594 4.6875H35.3125V7.03125H25.8594V4.6875Z" fill="white"/>
</g>
<defs>
<clipPath id="clip0_4636_2401">
<rect width="40" height="40" fill="white"/>
</clipPath>
</defs>
</svg>
