<svg width="40" height="40" viewBox="0 0 40 40" fill="none" xmlns="http://www.w3.org/2000/svg">
<path d="M28.9062 28.5938C29.7692 28.5938 30.4688 27.8942 30.4688 27.0312C30.4688 26.1683 29.7692 25.4688 28.9062 25.4688C28.0433 25.4688 27.3438 26.1683 27.3438 27.0312C27.3438 27.8942 28.0433 28.5938 28.9062 28.5938Z" fill="white"/>
<path d="M35.9375 28.2812C36.8005 28.2812 37.5 27.5817 37.5 26.7188V20.9375C37.5 17.4912 34.6963 14.6875 31.25 14.6875H29.3721V9.17703C29.3721 4.1168 25.1665 0 19.9971 0C14.8277 0 10.6221 4.1168 10.6221 9.17703V14.6875H8.75C5.30375 14.6875 2.5 17.4912 2.5 20.9375V33.75C2.5 37.1963 5.30375 40 8.75 40H31.25C34.6963 40 37.5 37.1963 37.5 33.75C37.5 32.887 36.8005 32.1875 35.9375 32.1875C35.0745 32.1875 34.375 32.887 34.375 33.75C34.375 35.4731 32.9731 36.875 31.25 36.875H8.75C7.02688 36.875 5.625 35.4731 5.625 33.75V20.9375C5.625 19.2144 7.02688 17.8125 8.75 17.8125H31.25C32.9731 17.8125 34.375 19.2144 34.375 20.9375V26.7188C34.375 27.5817 35.0745 28.2812 35.9375 28.2812ZM26.2471 14.6875H13.7471V9.17703C13.7471 5.83992 16.5509 3.125 19.9971 3.125C23.4434 3.125 26.2471 5.83992 26.2471 9.17703V14.6875Z" fill="white"/>
<path d="M17.1094 28.5938C17.9723 28.5938 18.6719 27.8942 18.6719 27.0312C18.6719 26.1683 17.9723 25.4688 17.1094 25.4688C16.2464 25.4688 15.5469 26.1683 15.5469 27.0312C15.5469 27.8942 16.2464 28.5938 17.1094 28.5938Z" fill="white"/>
<path d="M11.25 28.5938C12.1129 28.5938 12.8125 27.8942 12.8125 27.0312C12.8125 26.1683 12.1129 25.4688 11.25 25.4688C10.3871 25.4688 9.6875 26.1683 9.6875 27.0312C9.6875 27.8942 10.3871 28.5938 11.25 28.5938Z" fill="white"/>
<path d="M22.9688 28.5938C23.8317 28.5938 24.5312 27.8942 24.5312 27.0312C24.5312 26.1683 23.8317 25.4688 22.9688 25.4688C22.1058 25.4688 21.4062 26.1683 21.4062 27.0312C21.4062 27.8942 22.1058 28.5938 22.9688 28.5938Z" fill="white"/>
</svg>
