<svg width="40" height="40" viewBox="0 0 40 40" fill="none" xmlns="http://www.w3.org/2000/svg">
<g clip-path="url(#clip0_4636_2372)">
<path fill-rule="evenodd" clip-rule="evenodd" d="M31.9625 29.9706C31.4938 29.8534 30.9549 29.7363 30.4159 29.6425C30.2519 30.2752 30.0644 30.8376 29.8535 31.3531C30.6268 31.0016 31.3533 30.533 31.9625 29.9706ZM38.1254 12.5599H1.87463V33.509C1.87463 35.0087 3.09315 36.2038 4.56942 36.2038H35.4071C36.9069 36.2038 38.1254 35.0087 38.1254 33.509V12.5599ZM1.87463 10.6853H38.1254V6.46737C38.1254 4.9911 36.9069 3.77258 35.4071 3.77258H4.56942C3.09315 3.77258 1.87463 4.9911 1.87463 6.46737V10.6853ZM27.8617 9.86514C26.3855 9.86514 25.2138 8.6935 25.2138 7.24066C25.2138 5.76438 26.3855 4.59274 27.8617 4.59274C29.3146 4.59274 30.4862 5.76438 30.4862 7.24066C30.4862 8.6935 29.3146 9.86514 27.8617 9.86514ZM27.8617 6.46737C26.8541 6.46737 26.8541 7.99051 27.8617 7.99051C28.8694 7.99051 28.8694 6.46737 27.8617 6.46737ZM33.8137 9.86514C32.3609 9.86514 31.1892 8.6935 31.1892 7.24066C31.1892 5.76438 32.3609 4.59274 33.8137 4.59274C35.29 4.59274 36.4616 5.76438 36.4616 7.24066C36.4616 8.6935 35.29 9.86514 33.8137 9.86514ZM33.8137 6.46737C32.8061 6.46737 32.8061 7.99051 33.8137 7.99051C34.8213 7.99051 34.8213 6.46737 33.8137 6.46737ZM21.8864 9.86514C20.4335 9.86514 19.2384 8.6935 19.2384 7.24066C19.2384 5.76438 20.4335 4.59274 21.8864 4.59274C23.3392 4.59274 24.5108 5.76438 24.5108 7.24066C24.5108 8.6935 23.3392 9.86514 21.8864 9.86514ZM21.8864 6.46737C20.8787 6.46737 20.8787 7.99051 21.8864 7.99051C22.894 7.99051 22.894 6.46737 21.8864 6.46737ZM15.2314 8.17797H4.45226C3.23374 8.17797 3.23374 6.30334 4.45226 6.30334H15.2314C16.4499 6.30334 16.4499 8.17797 15.2314 8.17797ZM35.4071 38.0784H4.56942C2.0621 38.0784 0 36.0397 0 33.509V6.46737C0 3.96005 2.0621 1.89795 4.56942 1.89795H35.4071C37.9379 1.89795 40 3.96005 40 6.46737V33.509C40 36.0397 37.9379 38.0784 35.4071 38.0784ZM16.8951 18.137H4.66315C3.44464 18.137 3.44464 16.2623 4.66315 16.2623H16.8951C18.1371 16.2623 18.1371 18.137 16.8951 18.137ZM12.5132 22.9641H4.66315C3.44464 22.9641 3.44464 21.0895 4.66315 21.0895H12.5132C13.7317 21.0895 13.7317 22.9641 12.5132 22.9641ZM15.9813 27.7679H4.66315C3.44464 27.7679 3.44464 25.8933 4.66315 25.8933H15.9813C17.2232 25.8933 17.2232 27.7679 15.9813 27.7679ZM17.8793 32.5951H4.66315C3.44464 32.5951 3.44464 30.7204 4.66315 30.7204H17.8793C19.0978 30.7204 19.0978 32.5951 17.8793 32.5951ZM27.9086 33.7902C27.2291 33.8839 26.4558 33.8839 25.7762 33.7902C21.2068 33.2746 17.2466 29.127 17.4341 24.417C17.4341 19.6132 20.9959 15.6062 25.7762 15.0673C26.4792 14.9735 27.2056 14.997 27.9086 15.0673C32.6889 15.6999 36.321 19.6601 36.2742 24.4639C36.2039 29.2207 32.6889 33.2512 27.9086 33.7902ZM23.8313 31.3531C23.6204 30.8376 23.4329 30.2752 23.2923 29.6425C22.7299 29.7363 22.2144 29.8534 21.7223 29.9706C22.355 30.533 23.058 31.0016 23.8313 31.3531ZM20.4335 28.4006C21.1599 28.1663 22.0035 27.9554 22.9174 27.8148C22.8002 27.0415 22.7299 26.2213 22.7065 25.3777H19.3556C19.4962 26.4791 19.8711 27.5101 20.4335 28.4006ZM19.3556 23.5031H22.7065C22.7299 22.6361 22.8002 21.8159 22.9174 21.0426C22.0035 20.9021 21.1599 20.7146 20.4335 20.4568C19.8711 21.3707 19.4962 22.4018 19.3556 23.5031ZM21.7223 18.8868C22.2144 19.0274 22.7299 19.1211 23.2923 19.2149C23.4329 18.6056 23.6204 18.0198 23.8313 17.5043C23.058 17.8558 22.355 18.3244 21.7223 18.8868ZM29.8535 17.5277C30.0644 18.0198 30.2519 18.6056 30.4159 19.2149C30.9549 19.1211 31.4938 19.0274 31.9625 18.8868C31.3533 18.3244 30.6268 17.8558 29.8535 17.5277ZM33.2513 20.4568C32.5249 20.7146 31.6813 20.9021 30.7674 21.0426C30.8846 21.8159 30.9549 22.6361 30.9783 23.5031H34.3292C34.1886 22.4018 33.8137 21.3707 33.2513 20.4568ZM34.3292 25.3777H30.9783C30.9549 26.2213 30.8846 27.0415 30.7674 27.8148C31.6813 27.9554 32.5249 28.1663 33.2513 28.4006C33.8137 27.5101 34.1886 26.4791 34.3292 25.3777ZM26.3386 16.895C25.9168 17.3637 25.495 18.2307 25.167 19.4258C26.2449 19.4961 27.44 19.4961 28.5179 19.4258C28.1898 18.2307 27.768 17.3637 27.3462 16.895C27.0182 16.8716 26.6667 16.8716 26.3386 16.895ZM26.3386 31.9624C26.5026 31.9624 27.2291 32.0327 27.3462 31.9624C27.768 31.4937 28.1898 30.6267 28.5179 29.4551C27.44 29.3848 26.2449 29.3848 25.167 29.4551C25.495 30.6267 25.9168 31.4937 26.3386 31.9624ZM24.792 27.6039C26.1043 27.4867 27.5806 27.4867 28.8928 27.6039C29.01 26.9009 29.0803 26.1745 29.1037 25.3777H24.5811C24.6046 26.1745 24.6749 26.9009 24.792 27.6039ZM24.792 21.277C24.6749 21.9565 24.6046 22.7064 24.5811 23.5031H29.1037C29.0803 22.7064 29.01 21.9565 28.8928 21.277C27.5806 21.3707 26.1043 21.3707 24.792 21.277Z" fill="#8AC6E7"/>
</g>
<defs>
<clipPath id="clip0_4636_2372">
<rect width="40" height="40" fill="white"/>
</clipPath>
</defs>
</svg>
