<svg width="40" height="40" viewBox="0 0 40 40" fill="none" xmlns="http://www.w3.org/2000/svg">
<path d="M20.0026 11.667C20.9231 11.667 21.6693 12.4132 21.6693 13.3337V18.3337C21.6693 19.2542 20.9231 20.0003 20.0026 20.0003C19.0821 20.0003 18.3359 19.2542 18.3359 18.3337V13.3337C18.3359 12.4132 19.0821 11.667 20.0026 11.667Z" fill="#FDD304"/>
<path d="M20.0026 25.0003C20.9231 25.0003 21.6693 24.2542 21.6693 23.3337C21.6693 22.4132 20.9231 21.667 20.0026 21.667C19.0821 21.667 18.3359 22.4132 18.3359 23.3337C18.3359 24.2542 19.0821 25.0003 20.0026 25.0003Z" fill="#FDD304"/>
<path fill-rule="evenodd" clip-rule="evenodd" d="M19.1933 3.54323C19.6966 3.26358 20.3086 3.26358 20.8119 3.54323L23.0446 4.78355C26.3283 6.60785 29.9421 7.76097 33.6756 8.1758L35.1866 8.3437C35.6281 8.39273 36.0316 8.61592 36.3078 8.96372C36.5839 9.3115 36.7099 9.75513 36.6578 10.1962L35.6618 18.6058C35.0466 23.8005 32.2418 28.4852 27.9531 31.4803L20.9569 36.3665C20.3838 36.767 19.6216 36.767 19.0483 36.3665L12.0521 31.4803C7.76345 28.4852 4.95855 23.8005 4.34339 18.6058L3.3475 10.1962C3.29529 9.75513 3.42124 9.3115 3.69742 8.96372C3.9736 8.61592 4.37717 8.39273 4.81855 8.3437L6.32967 8.1758C10.0632 7.76097 13.6769 6.60785 16.9606 4.78355L19.1933 3.54323ZM20.0026 6.90677L18.5794 7.6974C14.9555 9.7107 10.972 10.9926 6.85509 11.4709L7.65359 18.2138C8.1569 22.464 10.4518 26.2968 13.9607 28.7475L20.0026 32.9673L26.0446 28.7475C29.5534 26.2968 31.8483 22.464 32.3516 18.2138L33.1501 11.4709C29.0333 10.9926 25.0498 9.7107 21.4258 7.6974L20.0026 6.90677Z" fill="#FDD304"/>
</svg>
