<svg width="40" height="40" viewBox="0 0 40 40" fill="none" xmlns="http://www.w3.org/2000/svg">
<g clip-path="url(#clip0_4636_2392)">
<path d="M33.3829 21.8205V5.83836L16.9883 0L0.59375 5.83836V22.3514C0.642725 32.0941 10.78 37.9908 16.9851 39.9999C17.607 39.7986 19.634 39.2205 23.25 37.1297C24.9603 38.896 27.3549 39.9959 30.0019 39.9959C35.1863 39.9959 39.4041 35.778 39.4041 30.5936C39.4041 26.6005 36.9017 23.1813 33.3829 21.8205ZM16.9885 37.5363C14.8104 36.7496 3.0417 32.0412 2.93703 22.3453V7.49131L16.9883 2.48747L31.0396 7.49131V21.2489C30.6987 21.2114 30.3526 21.1914 30.0019 21.1914C29.5507 21.1914 29.1072 21.224 28.6728 21.2857V9.24478L16.9883 4.95885L5.30382 9.24478V22.3423C5.24578 29.0824 13.0569 33.6172 16.975 35.0344C18.2459 34.5917 19.6343 33.9389 20.9517 33.1451C21.1608 33.8858 21.4587 34.5897 21.8329 35.2446C19.6389 36.5229 17.7363 37.266 16.9885 37.5363ZM20.5996 30.5937V30.5948C19.8112 31.1192 18.977 31.5986 18.1599 31.9997V20.0724H26.3295V21.9386C22.9646 23.3716 20.5996 26.7116 20.5996 30.5937ZM26.3295 17.7291H18.1599V7.88466L26.3295 10.8813V17.7291ZM15.8166 17.7291H7.64702L7.6471 10.8813L15.8167 7.88466L15.8166 17.7291ZM7.64702 20.0724H15.8167V31.9851C11.751 29.9995 7.55438 26.368 7.64702 22.3579V20.0724ZM30.0019 37.6527C26.1096 37.6527 22.9429 34.486 22.9429 30.5937C22.9429 26.7013 26.1096 23.5347 30.0019 23.5347C33.8942 23.5347 37.0609 26.7013 37.0609 30.5937C37.0609 34.486 33.8942 37.6527 30.0019 37.6527Z" fill="#8AC6E7"/>
<path d="M29.1253 31.4321L26.7116 29.0185L25.0547 30.6754L29.1253 34.746L34.9454 28.926L33.2884 27.269L29.1253 31.4321Z" fill="#8AC6E7"/>
</g>
<defs>
<clipPath id="clip0_4636_2392">
<rect width="40" height="40" fill="white"/>
</clipPath>
</defs>
</svg>
