<svg width="40" height="40" viewBox="0 0 40 40" fill="none" xmlns="http://www.w3.org/2000/svg">
<g clip-path="url(#clip0_4636_2375)">
<path d="M33.5771 16.4844H29.9437C29.6479 15.6502 29.2502 14.8638 28.7652 14.1406H32.6059L35.2929 11.4537L33.6356 9.79641L31.635 11.7969H28.2031V8.365L30.2036 6.36453L28.5463 4.70727L25.8594 7.39414V11.2348C25.1362 10.7498 24.3498 10.3521 23.5156 10.0563V6.42289L25.8594 4.07914V0H23.5156V3.10836L21.1719 5.45211V9.51859C20.787 9.47586 20.3961 9.45312 20 9.45312C19.6039 9.45312 19.213 9.47586 18.8281 9.51859V5.45211L16.4844 3.10836V0H14.1406V4.07914L16.4844 6.42289V10.0564C15.6502 10.3522 14.8638 10.7498 14.1406 11.2348V7.39422L11.4536 4.70719L9.79633 6.36445L11.7969 8.365V11.7969H8.365L6.36445 9.79633L4.70719 11.4536L7.39414 14.1398H11.2348C10.7498 14.863 10.3522 15.6501 10.0564 16.4843H6.42289L4.07914 14.1405H0V16.4843H3.10836L5.45211 18.8273H9.51859C9.47586 19.2123 9.45312 19.6039 9.45312 20C9.45312 20.3961 9.47586 20.787 9.51859 21.1719H5.45211L3.10836 23.5156H0V25.8594H4.07914L6.42289 23.5156H10.0563C10.3521 24.3498 10.7498 25.1362 11.2348 25.8594H7.39414L4.70719 28.5463L6.36445 30.2036L8.365 28.2031H11.7969V31.635L9.79641 33.6355L11.4537 35.2927L14.1406 32.6059V28.7652C14.8638 29.2502 15.6502 29.6479 16.4844 29.9437V33.5772L14.1406 35.9209V40H16.4844V36.8916L18.8281 34.5479V30.4814C19.213 30.5241 19.6039 30.5469 20 30.5469C20.3961 30.5469 20.787 30.5241 21.1719 30.4814V34.5479L23.5156 36.8916V40H25.8594V35.9209L23.5156 33.5771V29.9436C24.3498 29.6478 25.1362 29.2502 25.8594 28.7652V32.6058L28.5464 35.2928L30.2037 33.6355L28.2031 31.635V28.2031H31.635L33.6355 30.2037L35.2928 28.5464L32.6059 25.8594H28.7652C29.2502 25.1362 29.6478 24.3498 29.9436 23.5156H33.577L35.9208 25.8594H40V23.5156H36.8916L34.5479 21.1719H30.4814C30.5241 20.787 30.5469 20.3961 30.5469 20C30.5469 19.6039 30.5241 19.213 30.4814 18.8281H34.5479L36.8916 16.4844H40V14.1406H35.9209L33.5771 16.4844ZM28.1191 18.8281H24.6605C24.5622 16.6259 24.189 14.5748 23.5832 12.9594C23.5289 12.8145 23.4734 12.677 23.4173 12.5434C25.8994 13.6855 27.7172 16.0311 28.1191 18.8281ZM20 28.2031C19.8329 28.2031 19.2191 27.8384 18.6113 26.2177C18.0984 24.85 17.7783 23.0894 17.6852 21.1711H22.3147C22.2216 23.0894 21.9015 24.8499 21.3886 26.2177C20.7809 27.8384 20.1671 28.2031 20 28.2031ZM17.6852 18.8281C17.7783 16.9106 18.0984 15.1501 18.6113 13.7823C19.2191 12.1616 19.8329 11.7969 20 11.7969C20.1671 11.7969 20.7809 12.1616 21.3887 13.7823C21.9016 15.15 22.2217 16.9106 22.3148 18.8281H17.6852ZM16.5827 12.5435C16.5266 12.6771 16.4711 12.8146 16.4168 12.9595C15.811 14.5748 15.4378 16.6259 15.3395 18.8282H11.8809C12.2828 16.0311 14.1006 13.6855 16.5827 12.5435ZM11.8809 21.1719H15.3395C15.4378 23.3741 15.811 25.4252 16.4168 27.0406C16.4711 27.1855 16.5266 27.323 16.5827 27.4566C14.1006 26.3145 12.2828 23.9689 11.8809 21.1719ZM23.4173 27.4565C23.4734 27.3229 23.5289 27.1854 23.5832 27.0405C24.189 25.4252 24.5622 23.3741 24.6605 21.171H28.1191C27.7172 23.9689 25.8994 26.3145 23.4173 27.4565Z" fill="#F16C22"/>
</g>
<defs>
<clipPath id="clip0_4636_2375">
<rect width="40" height="40" fill="white"/>
</clipPath>
</defs>
</svg>
