<svg width="154" height="203" viewBox="0 0 154 203" fill="none" xmlns="http://www.w3.org/2000/svg">
<path d="M153.899 125.6C153.901 140.012 149.845 154.133 142.192 166.349C134.54 178.566 123.601 188.384 110.625 194.681C97.6505 200.978 83.1635 203.5 68.8213 201.958C54.4791 200.417 40.8607 194.874 29.5235 185.963C18.1863 177.053 9.58792 165.134 4.71178 151.571C-0.164356 138.008 -1.12155 123.348 1.94987 109.267C5.0213 95.1862 11.9972 82.2532 22.0799 71.9469C32.1626 61.6407 44.9451 54.3774 58.9654 50.9876L61.4046 50.42C65.9491 48.8844 74.7707 43.4094 75.3054 24.1803L75.3054 0.317298L78.6469 0.317298L78.6469 22.8783C78.6469 43.5763 88.2705 49.0179 92.815 50.4534L94.9202 50.9208C111.721 54.9353 126.679 64.4878 137.379 78.0369C148.08 91.5861 153.899 108.342 153.899 125.6ZM77.043 62.7387C64.5984 62.7387 52.4333 66.4254 42.0859 73.3328C31.7386 80.2401 23.6737 90.0578 18.9113 101.544C14.1489 113.031 12.9029 125.67 15.3307 137.864C17.7586 150.058 23.7513 161.259 32.551 170.05C41.3507 178.842 52.5623 184.829 64.7678 187.254C76.9733 189.68 89.6246 188.435 101.122 183.677C112.619 178.919 122.446 170.862 129.36 160.525C136.274 150.187 139.964 138.033 139.964 125.6C139.938 108.937 133.3 92.9628 121.506 81.1797C109.711 69.3966 93.7227 62.7651 77.043 62.7387Z" fill="#F16C22"/>
</svg>
