<svg width="154" height="203" viewBox="0 0 154 203" fill="none" xmlns="http://www.w3.org/2000/svg">
<path d="M153.719 76.7985C153.722 62.3871 149.665 48.2659 142.013 36.0496C134.36 23.8333 123.421 14.0152 110.446 7.71804C97.4708 1.42091 82.9838 -1.10103 68.6416 0.440649C54.2994 1.98232 40.6811 7.52538 29.3438 16.4359C18.0066 25.3464 9.40823 37.2646 4.5321 50.8276C-0.344043 64.3907 -1.30124 79.0509 1.77019 93.1318C4.84161 107.213 11.8175 120.146 21.9002 130.452C31.9829 140.758 44.7654 148.022 58.7857 151.411L61.225 151.979C65.7694 153.515 74.591 158.99 75.1257 178.219L75.1257 202.082L78.4672 202.082L78.4672 179.521C78.4672 158.823 88.0908 153.381 92.6353 151.946L94.7405 151.478C111.542 147.464 126.499 137.911 137.2 124.362C147.9 110.813 153.72 94.0572 153.719 76.7985ZM76.8633 139.66C64.4187 139.66 52.2536 135.974 41.9062 129.066C31.5589 122.159 23.494 112.341 18.7316 100.855C13.9693 89.3682 12.7232 76.7288 15.151 64.5348C17.5789 52.3408 23.5716 41.1399 32.3713 32.3485C41.171 23.5572 52.3826 17.5702 64.5881 15.1446C76.7936 12.7191 89.4449 13.9639 100.942 18.7218C112.44 23.4797 122.267 31.5368 129.18 41.8744C136.094 52.2119 139.785 64.3656 139.785 76.7985C139.758 93.4623 133.12 109.436 121.326 121.219C109.532 133.002 93.543 139.634 76.8633 139.66Z" fill="white"/>
</svg>
