<svg width="154" height="203" viewBox="0 0 154 203" fill="none" xmlns="http://www.w3.org/2000/svg">
<path d="M153.719 125.6C153.722 140.012 149.665 154.133 142.013 166.349C134.36 178.566 123.421 188.384 110.446 194.681C97.4708 200.978 82.9838 203.5 68.6416 201.958C54.2994 200.417 40.6811 194.874 29.3438 185.963C18.0066 177.053 9.40823 165.134 4.5321 151.571C-0.344043 138.008 -1.30124 123.348 1.77019 109.267C4.84161 95.1862 11.8175 82.2532 21.9002 71.9469C31.9829 61.6407 44.7654 54.3774 58.7857 50.9876L61.225 50.42C65.7694 48.8844 74.591 43.4094 75.1257 24.1803L75.1257 0.317298L78.4672 0.317298L78.4672 22.8784C78.4672 43.5763 88.0908 49.0179 92.6353 50.4534L94.7405 50.9208C111.542 54.9353 126.499 64.4878 137.2 78.0369C147.9 91.5861 153.72 108.342 153.719 125.6ZM76.8633 62.7387C64.4187 62.7387 52.2536 66.4254 41.9062 73.3328C31.5589 80.2401 23.494 90.0578 18.7316 101.544C13.9693 113.031 12.7232 125.67 15.151 137.864C17.5789 150.058 23.5716 161.259 32.3713 170.05C41.171 178.842 52.3826 184.829 64.5881 187.254C76.7936 189.68 89.4449 188.435 100.942 183.677C112.44 178.919 122.267 170.862 129.18 160.525C136.094 150.187 139.785 138.033 139.785 125.6C139.758 108.937 133.12 92.9628 121.326 81.1797C109.532 69.3966 93.543 62.7652 76.8633 62.7387Z" fill="#FDD304"/>
</svg>
