<svg width="155" height="203" viewBox="0 0 155 203" fill="none" xmlns="http://www.w3.org/2000/svg">
<path d="M154.078 76.7985C154.081 62.3871 150.024 48.2659 142.372 36.0496C134.72 23.8333 123.78 14.0152 110.805 7.71804C97.8302 1.42091 83.3432 -1.10103 69.001 0.440649C54.6588 1.98232 41.0404 7.52538 29.7032 16.4359C18.366 25.3464 9.76761 37.2646 4.89147 50.8277C0.0153317 64.3907 -0.941865 79.0509 2.12956 93.1318C5.20099 107.213 12.1769 120.146 22.2596 130.452C32.3423 140.758 45.1248 148.022 59.1451 151.411L61.5843 151.979C66.1288 153.515 74.9504 158.99 75.4851 178.219L75.4851 202.082L78.8266 202.082L78.8266 179.521C78.8266 158.823 88.4502 153.381 92.9947 151.946L95.0999 151.478C111.901 147.464 126.859 137.911 137.559 124.362C148.26 110.813 154.079 94.0572 154.078 76.7985ZM77.2227 139.66C64.7781 139.66 52.613 135.974 42.2656 129.066C31.9183 122.159 23.8534 112.341 19.091 100.855C14.3286 89.3682 13.0826 76.7288 15.5104 64.5348C17.9382 52.3408 23.931 41.1399 32.7307 32.3485C41.5304 23.5572 52.7419 17.5702 64.9475 15.1446C77.153 12.7191 89.8043 13.9639 101.302 18.7218C112.799 23.4797 122.626 31.5368 129.54 41.8744C136.454 52.2119 140.144 64.3656 140.144 76.7985C140.118 93.4623 133.48 109.436 121.685 121.219C109.891 133.002 93.9023 139.634 77.2227 139.66Z" fill="#8AC6E7"/>
</svg>
