<svg width="60" height="60" viewBox="0 0 60 60" fill="none" xmlns="http://www.w3.org/2000/svg">
<path fill-rule="evenodd" clip-rule="evenodd" d="M30 10C24.6957 10 19.6086 12.1071 15.8579 15.8579C12.1071 19.6086 10 24.6957 10 30C10 35.3043 12.1071 40.3914 15.8579 44.1421C19.6086 47.8929 24.6957 50 30 50C35.3043 50 40.3914 47.8929 44.1421 44.1421C47.8929 40.3914 50 35.3043 50 30C50 24.6957 47.8929 19.6086 44.1421 15.8579C40.3914 12.1071 35.3043 10 30 10ZM5 30C5 16.1925 16.1925 5 30 5C43.8075 5 55 16.1925 55 30C55 43.8075 43.8075 55 30 55C16.1925 55 5 43.8075 5 30Z" fill="#F16C22"/>
<path fill-rule="evenodd" clip-rule="evenodd" d="M39.267 23.2325C39.7356 23.7013 39.9989 24.337 39.9989 25C39.9989 25.6629 39.7356 26.2986 39.267 26.7675L30.0595 35.975C29.3802 36.6534 28.4595 37.0345 27.4995 37.0345C26.5395 37.0345 25.6187 36.6534 24.9395 35.975L20.732 31.7675C20.4932 31.5368 20.3027 31.261 20.1717 30.956C20.0407 30.651 19.9717 30.3229 19.9688 29.991C19.966 29.659 20.0292 29.3298 20.1549 29.0226C20.2806 28.7153 20.4663 28.4362 20.701 28.2015C20.9357 27.9667 21.2148 27.7811 21.5221 27.6554C21.8293 27.5297 22.1585 27.4664 22.4905 27.4693C22.8224 27.4722 23.1505 27.5412 23.4555 27.6722C23.7605 27.8032 24.0364 27.9937 24.267 28.2325L27.4995 31.465L35.732 23.2325C36.2008 22.7638 36.8366 22.5005 37.4995 22.5005C38.1624 22.5005 38.7982 22.7638 39.267 23.2325Z" fill="#F16C22"/>
</svg>
