<svg width="60" height="60" viewBox="0 0 60 60" fill="none" xmlns="http://www.w3.org/2000/svg">
<g clip-path="url(#clip0_4636_7589)">
<path d="M28.6556 59.4789C29.0235 59.8147 29.5037 60.0009 30.0019 60.0009C30.5 60.0009 30.9802 59.8147 31.3481 59.4789L39.09 52.442C43.09 48.799 46.2863 44.3618 48.4749 39.4139C50.6634 34.466 51.7961 29.1161 51.8006 23.7058V10.2002C51.8006 9.39016 51.3131 8.66266 50.5669 8.35141L30.7669 0.152038C30.277 -0.0506792 29.7267 -0.0506792 29.2369 0.152038L9.43687 8.35328C9.07148 8.50493 8.75925 8.7615 8.53965 9.09057C8.32005 9.41964 8.20294 9.80642 8.20313 10.202V23.7058C8.20313 34.6239 12.8344 45.0976 20.9156 52.442L28.6556 59.4789ZM12.2025 11.537L30.0019 4.16454L47.8012 11.537V23.7058C47.7963 28.559 46.7794 33.3578 44.8156 37.7959C42.8517 42.234 39.984 46.2139 36.3956 49.4814L30.0019 55.2939L23.6062 49.4814C20.018 46.2134 17.1506 42.2332 15.1871 37.7948C13.2236 33.3563 12.2071 28.5573 12.2025 23.7039V11.537Z" fill="#F16C22"/>
<path d="M40.2513 36.3209V23.464C40.2513 22.3596 39.3569 21.4634 38.2506 21.4634H37.465V19.9296C37.465 15.8121 34.1163 12.4634 30.0006 12.4634C25.885 12.4634 22.5381 15.8121 22.5381 19.9296V21.4634H21.7506C20.6444 21.4634 19.75 22.3596 19.75 23.464V36.3209C19.75 37.4271 20.6463 38.3215 21.7506 38.3215H38.2506C39.3569 38.3215 40.2513 37.4253 40.2513 36.3209ZM26.5375 19.9296C26.5375 18.0171 28.09 16.4646 30.0006 16.4646C31.9113 16.4646 33.4656 18.019 33.4656 19.9296V21.4634H26.5375V19.9296ZM36.25 34.3221H23.7513V25.4628H36.25V34.3221Z" fill="#F16C22"/>
<path d="M30.0006 27.0375C28.8944 27.0375 28 27.9319 28 29.0363V30.75C28 31.2806 28.2108 31.7895 28.586 32.1647C28.9612 32.5399 29.47 32.7506 30.0006 32.7506C30.5312 32.7506 31.0401 32.5399 31.4153 32.1647C31.7905 31.7895 32.0013 31.2806 32.0013 30.75V29.0363C32.0013 27.93 31.105 27.0356 30.0006 27.0356V27.0375Z" fill="#F16C22"/>
</g>
<defs>
<clipPath id="clip0_4636_7589">
<rect width="60" height="60" fill="white"/>
</clipPath>
</defs>
</svg>
