<svg width="60" height="60" viewBox="0 0 60 60" fill="none" xmlns="http://www.w3.org/2000/svg">
<g clip-path="url(#clip0_4636_7598)">
<path fill-rule="evenodd" clip-rule="evenodd" d="M22.3746 1.75781C22.3746 0.786999 23.1616 0 24.1324 0H35.8676C36.8384 0 37.6254 0.786999 37.6254 1.75781V5.04888C39.2335 5.52305 40.7932 6.14817 42.2838 6.91591L45.1917 4.03259C45.8795 3.35054 46.9895 3.35354 47.6737 4.03929L55.9717 12.3563C56.3016 12.6871 56.4864 13.1356 56.4851 13.6027C56.4838 14.0699 56.2965 14.5174 55.9647 14.8463L53.2651 17.5222C54.1139 19.0483 54.8121 20.6677 55.3399 22.3611H58.2422C59.213 22.3611 60 23.1481 60 24.1189V35.8811C60 36.8519 59.213 37.6389 58.2422 37.6389H55.3399C54.8121 39.3323 54.1139 40.9517 53.2651 42.4778L55.9647 45.1537C56.2965 45.4826 56.4838 45.9301 56.4851 46.3973C56.4864 46.8644 56.3016 47.3129 55.9717 47.6437L47.6737 55.9607C46.9895 56.6465 45.8795 56.6495 45.1917 55.9674L42.2838 53.0841C40.7932 53.8518 39.2335 54.477 37.6254 54.9511V58.2422C37.6254 59.213 36.8384 60 35.8676 60H24.1323C23.1615 60 22.3745 59.213 22.3745 58.2422V54.9511C20.7664 54.477 19.2066 53.8518 17.7161 53.0841L14.8082 55.9674C14.1204 56.6495 13.0103 56.6465 12.3262 55.9607L4.02823 47.6437C3.69825 47.3129 3.51351 46.8644 3.51481 46.3973C3.51611 45.9301 3.70335 45.4826 4.03516 45.1537L6.73479 42.4778C5.88597 40.9517 5.18774 39.3323 4.66002 37.6389H1.75781C0.786999 37.6389 0 36.8519 0 35.8811V24.1189C0 23.1481 0.786999 22.3611 1.75781 22.3611H4.66014C5.18787 20.6677 5.88611 19.0483 6.73492 17.5222L4.03528 14.8463C3.70347 14.5174 3.51623 14.0699 3.51493 13.6027C3.51363 13.1356 3.69837 12.6871 4.02835 12.3563L12.3263 4.03929C13.0105 3.35354 14.1205 3.35054 14.8083 4.03259L17.7162 6.91591C19.2068 6.14817 20.7665 5.52305 22.3746 5.04888V1.75781ZM25.8902 3.51562V6.39891C25.8902 7.21256 25.3318 7.91988 24.5404 8.10872C22.3472 8.63203 20.2425 9.47374 18.2933 10.607C17.6061 11.0065 16.7365 10.8953 16.1721 10.3356L13.5774 7.76289L7.76272 13.5909L10.1831 15.99C10.7682 16.57 10.872 17.4786 10.4328 18.1756C9.20429 20.1249 8.27165 22.2696 7.69379 24.5506C7.49621 25.3305 6.79436 25.8768 5.9898 25.8768H3.51562V34.1232H5.98969C6.79424 34.1232 7.4961 34.6695 7.69367 35.4494C8.27154 37.7305 9.20419 39.8752 10.4326 41.8244C10.8719 42.5214 10.7681 43.43 10.183 44.01L7.76261 46.4091L13.5772 52.2371L16.1719 49.6644C16.7363 49.1047 17.606 48.9935 18.2931 49.393C20.2424 50.5263 22.3471 51.368 24.5403 51.8913C25.3317 52.0801 25.8901 52.7874 25.8901 53.6011V56.4844H34.1098V53.6011C34.1098 52.7874 34.6682 52.0801 35.4596 51.8913C37.6528 51.368 39.7575 50.5263 41.7067 49.393C42.3939 48.9935 43.2636 49.1047 43.8279 49.6644L46.4226 52.2371L52.2373 46.4091L49.8169 44.01C49.2318 43.43 49.128 42.5214 49.5672 41.8244C50.7957 39.8751 51.7284 37.7304 52.3062 35.4494C52.5038 34.6695 53.2056 34.1232 54.0102 34.1232H56.4844V25.8768H54.0102C53.2056 25.8768 52.5038 25.3305 52.3062 24.5506C51.7284 22.2696 50.7957 20.1249 49.5672 18.1756C49.128 17.4786 49.2318 16.57 49.8169 15.99L52.2373 13.5909L46.4226 7.76289L43.8279 10.3356C43.2636 10.8953 42.3939 11.0065 41.7067 10.607C39.7575 9.47374 37.6528 8.63203 35.4596 8.10872C34.6682 7.91988 34.1098 7.21256 34.1098 6.39891V3.51562H25.8902Z" fill="#F16C22"/>
<path fill-rule="evenodd" clip-rule="evenodd" d="M30 15.3438C21.9107 15.3438 15.3516 21.9047 15.3516 29.9998C15.3516 38.0949 21.9107 44.6559 30 44.6559C38.0893 44.6559 44.6484 38.0949 44.6484 29.9998C44.6484 21.9047 38.0893 15.3438 30 15.3438ZM11.8359 29.9998C11.8359 19.9646 19.9675 11.8281 30 11.8281C40.0325 11.8281 48.1641 19.9646 48.1641 29.9998C48.1641 40.035 40.0325 48.1715 30 48.1715C19.9675 48.1715 11.8359 40.035 11.8359 29.9998Z" fill="#F16C22"/>
</g>
<defs>
<clipPath id="clip0_4636_7598">
<rect width="60" height="60" fill="white"/>
</clipPath>
</defs>
</svg>
