<svg width="60" height="60" viewBox="0 0 60 60" fill="none" xmlns="http://www.w3.org/2000/svg">
<g clip-path="url(#clip0_4636_7594)">
<path d="M30.0028 60C29.8343 59.9999 29.6665 59.9772 29.5041 59.9325C29.2116 59.85 0.257813 51.3919 0.257813 11.6306C0.257808 11.3834 0.306677 11.1387 0.401607 10.9105C0.496537 10.6823 0.635656 10.4751 0.810959 10.3008C0.986262 10.1265 1.19429 9.98867 1.42308 9.89511C1.65186 9.80155 1.89689 9.75414 2.14406 9.75562C2.82057 9.75452 3.48891 9.60776 4.10364 9.3253C4.71837 9.04285 5.26507 8.63134 5.70656 8.11875C6.4397 7.28669 6.99769 6.31545 7.34722 5.263C7.69674 4.21055 7.83065 3.09846 7.74094 1.99312C7.7248 1.73746 7.76122 1.4812 7.84796 1.24015C7.9347 0.999105 8.06991 0.778391 8.24525 0.591627C8.4206 0.404863 8.63235 0.256011 8.86745 0.154257C9.10255 0.0525022 9.35601 3.46528e-06 9.61219 0L50.3934 0C50.6496 3.46528e-06 50.9031 0.0525022 51.1382 0.154257C51.3733 0.256011 51.585 0.404863 51.7604 0.591627C51.9357 0.778391 52.0709 0.999105 52.1577 1.24015C52.2444 1.4812 52.2808 1.73746 52.2647 1.99312C52.1749 3.09847 52.3087 4.21058 52.6583 5.26305C53.0078 6.31551 53.5658 7.28675 54.2991 8.11875C54.7437 8.61982 55.2869 9.0238 55.8947 9.30544C56.5025 9.58709 57.1618 9.74034 57.8316 9.75562C57.8453 9.75655 57.8591 9.75655 57.8728 9.75562C58.3701 9.75562 58.847 9.95317 59.1986 10.3048C59.5503 10.6564 59.7478 11.1333 59.7478 11.6306C59.7478 51.3919 30.7941 59.8519 30.5016 59.9325C30.3391 59.9772 30.1713 59.9999 30.0028 60ZM4.02656 13.29C4.73531 46.0538 26.4516 54.9263 30.0122 56.16C33.7453 54.915 55.2797 46.3162 55.9809 13.29C54.2891 12.8758 52.7566 11.9726 51.5747 10.6931C49.8172 8.78253 48.751 6.3379 48.5466 3.75H11.4572C11.2545 6.33854 10.1888 8.78413 8.43094 10.695C7.24904 11.9741 5.71837 12.8767 4.02656 13.29Z" fill="#F16C22"/>
<path d="M30.0029 51.9844C29.7357 51.984 29.4717 51.9265 29.2285 51.8156C23.4442 49.1944 9.78854 40.545 7.95854 16.965C7.93305 16.6303 7.99789 16.2948 8.14631 15.9937C8.29473 15.6926 8.52128 15.4368 8.80229 15.2531C9.67479 14.678 10.476 14.0014 11.1892 13.2375C12.4304 11.9091 13.4139 10.3615 14.0898 8.67375C14.2296 8.32717 14.4697 8.03026 14.7794 7.82112C15.0891 7.61198 15.4542 7.50016 15.8279 7.5H44.1798C44.5533 7.50001 44.9182 7.61156 45.2279 7.82035C45.5376 8.02913 45.7779 8.32565 45.9179 8.67187C46.5931 10.3601 47.576 11.9083 48.8167 13.2375C49.5314 14.0017 50.3338 14.6789 51.2073 15.255C51.4878 15.439 51.7137 15.6949 51.8614 15.996C52.0092 16.2972 52.0734 16.6325 52.0473 16.9669C50.2173 40.545 36.5635 49.1944 30.7773 51.8175C30.5342 51.9283 30.2701 51.984 30.0029 51.9844ZM11.7892 17.7281C13.6792 37.5225 24.5692 45.3394 30.0029 48.0337C35.4367 45.3394 46.3285 37.5244 48.2167 17.73C47.4524 17.1487 46.7386 16.5039 46.0829 15.8025C44.8173 14.4522 43.7646 12.9171 42.961 11.25H17.0467C16.2431 12.9171 15.1904 14.4522 13.9248 15.8025C13.2685 16.5028 12.5548 17.1469 11.791 17.7281H11.7892Z" fill="#F16C22"/>
</g>
<defs>
<clipPath id="clip0_4636_7594">
<rect width="60" height="60" fill="white"/>
</clipPath>
</defs>
</svg>
