<svg width="46" height="46" viewBox="0 0 46 46" fill="none" xmlns="http://www.w3.org/2000/svg">
<g clip-path="url(#clip0_4636_7799)">
<path fill-rule="evenodd" clip-rule="evenodd" d="M15.8125 23C16.8049 23 17.6094 23.8045 17.6094 24.7969V31.9844C17.6094 32.9768 16.8049 33.7812 15.8125 33.7812C14.8201 33.7812 14.0156 32.9768 14.0156 31.9844V24.7969C14.0156 23.8045 14.8201 23 15.8125 23Z" fill="#F16C22"/>
<path fill-rule="evenodd" clip-rule="evenodd" d="M23 19.4062C23.9924 19.4062 24.7969 20.2107 24.7969 21.2031V31.9844C24.7969 32.9768 23.9924 33.7812 23 33.7812C22.0076 33.7812 21.2031 32.9768 21.2031 31.9844V21.2031C21.2031 20.2107 22.0076 19.4062 23 19.4062Z" fill="#F16C22"/>
<path fill-rule="evenodd" clip-rule="evenodd" d="M30.1875 10.4219C31.1799 10.4219 31.9844 11.2264 31.9844 12.2188V31.9844C31.9844 32.9768 31.1799 33.7812 30.1875 33.7812C29.1951 33.7812 28.3906 32.9768 28.3906 31.9844V12.2188C28.3906 11.2264 29.1951 10.4219 30.1875 10.4219Z" fill="#F16C22"/>
<path fill-rule="evenodd" clip-rule="evenodd" d="M28.9169 10.9482C29.6186 10.2464 30.7564 10.2464 31.4581 10.9482L35.0518 14.5419C35.7536 15.2436 35.7536 16.3814 35.0518 17.0831C34.3501 17.7848 33.2124 17.7848 32.5107 17.0831L30.1875 14.7599L27.8643 17.0831C27.1626 17.7848 26.0249 17.7848 25.3232 17.0831C24.6214 16.3814 24.6214 15.2436 25.3232 14.5419L28.9169 10.9482Z" fill="#F16C22"/>
<path fill-rule="evenodd" clip-rule="evenodd" d="M10.4219 31.9844C10.4219 30.992 11.2264 30.1875 12.2188 30.1875H33.7812C34.7736 30.1875 35.5781 30.992 35.5781 31.9844C35.5781 32.9768 34.7736 33.7812 33.7812 33.7812H12.2188C11.2264 33.7812 10.4219 32.9768 10.4219 31.9844Z" fill="#F16C22"/>
<path fill-rule="evenodd" clip-rule="evenodd" d="M28.1345 2.06575C28.4652 1.13009 29.4918 0.639677 30.4274 0.970388C39.4977 4.17629 46.0005 12.8265 46.0005 23.0001C46.0005 30.555 42.4146 37.2698 36.8543 41.5389H38.813C39.8054 41.5389 40.6099 42.3434 40.6099 43.3357C40.6099 44.3281 39.8054 45.1326 38.813 45.1326H29.8286C28.9534 45.1326 28.2056 44.5021 28.0576 43.6395C27.9096 42.7769 28.4047 41.9332 29.2298 41.6416C36.9091 38.9273 42.4067 31.6035 42.4067 23.0001C42.4067 14.3968 36.9091 7.07298 29.2298 4.35872C28.2941 4.02801 27.8037 3.00141 28.1345 2.06575Z" fill="#F16C22"/>
<path fill-rule="evenodd" clip-rule="evenodd" d="M5.39063 2.66455C5.39063 1.67216 6.19511 0.867676 7.1875 0.867676H16.1719C17.0471 0.867676 17.7949 1.4982 17.9429 2.36078C18.0908 3.22335 17.5958 4.06706 16.7707 4.35871C9.09137 7.07298 3.59375 14.3969 3.59375 23.0001C3.59375 31.6034 9.09137 38.9273 16.7707 41.6416C17.7063 41.9723 18.1968 42.9989 17.866 43.9345C17.5353 44.8702 16.5087 45.3606 15.5731 45.0299C6.50281 41.824 0 33.1737 0 23.0001C0 15.4453 3.58591 8.73055 9.14623 4.46143H7.1875C6.19511 4.46143 5.39063 3.65694 5.39063 2.66455Z" fill="#F16C22"/>
</g>
<defs>
<clipPath id="clip0_4636_7799">
<rect width="46" height="46" fill="white"/>
</clipPath>
</defs>
</svg>
