<svg width="46" height="46" viewBox="0 0 46 46" fill="none" xmlns="http://www.w3.org/2000/svg">
<path d="M46 18.5371C46 16.0005 43.8851 13.9365 41.2853 13.9365H25.2369L27.3893 8.25916C28.152 5.06683 27.0595 3.06296 26.0087 1.94405C24.7246 0.576534 22.9035 -0.0580322 21.885 0.11887C21.6906 0.152514 21.5058 0.22849 21.344 0.341422C21.1821 0.454354 21.047 0.601482 20.9483 0.772394L13.0386 14.4616C12.832 14.3394 12.5963 14.2749 12.3563 14.2749H1.34766C0.603301 14.2749 0 14.8782 0 15.6226V39.4924C0 40.2368 0.603301 40.8401 1.34766 40.8401H12.3559C12.92 40.8401 13.4022 40.4938 13.6032 40.0024L20.0594 42.5594C20.2174 42.622 20.3857 42.6541 20.5556 42.6542H37.7165C40.3159 42.6542 42.4311 40.5906 42.4311 38.0536C42.4311 37.099 42.1314 36.2111 41.6187 35.4748C42.9734 34.6659 43.8795 33.2081 43.8795 31.548C43.8795 30.4782 43.5033 29.4928 42.873 28.7105C44.0098 27.8696 44.745 26.5385 44.745 25.0427C44.745 24.0513 44.4221 23.1325 43.8736 22.3807C45.1535 21.557 46 20.1416 46 18.5373V18.5371ZM41.2853 20.4421H40.0303C39.2862 20.4421 38.6827 21.0454 38.6827 21.7897C38.6827 22.5341 39.2862 23.1374 40.0303 23.1374C41.1439 23.1374 42.0497 23.992 42.0497 25.0427C42.0497 26.0931 41.1439 26.9477 40.0303 26.9477H39.1649C38.4205 26.9477 37.8172 27.551 37.8172 28.2953C37.8172 29.0397 38.4205 29.643 39.1649 29.643C40.2784 29.643 41.1842 30.4976 41.1842 31.548C41.1842 32.5987 40.2784 33.4533 39.1649 33.4533H37.7164C36.972 33.4533 36.3687 34.0565 36.3687 34.801C36.3687 35.5453 36.972 36.1486 37.7164 36.1486C38.8299 36.1486 39.7357 37.0031 39.7357 38.0536C39.7357 39.1043 38.8299 39.9589 37.7164 39.9589H20.8128L14.2237 37.3489V17.7977L22.8091 2.93933C23.2355 3.11597 23.8099 3.45737 24.2557 4.03785C24.9369 4.9247 25.1155 6.10642 24.7871 7.55092L22.0219 14.8044C21.9441 15.0084 21.917 15.2283 21.9431 15.4451C21.9691 15.6619 22.0475 15.8691 22.1714 16.0489C22.2953 16.2287 22.461 16.3757 22.6543 16.4773C22.8477 16.5788 23.0628 16.6318 23.2811 16.6318H41.2853C42.3989 16.6318 43.3047 17.4867 43.3047 18.5371C43.3047 19.5875 42.3989 20.4421 41.2853 20.4421ZM2.69531 16.9701H11.0083V38.1448H2.69531V16.9701Z" fill="#F16C22"/>
</svg>
