<svg width="46" height="46" viewBox="0 0 46 46" fill="none" xmlns="http://www.w3.org/2000/svg">
<path fill-rule="evenodd" clip-rule="evenodd" d="M5.48438 1.34766C5.48438 0.603366 6.08774 0 6.83203 0H39.1723C39.9166 0 40.5199 0.603366 40.5199 1.34766V44.6523C40.5199 45.3966 39.9166 46 39.1723 46H6.83203C6.08774 46 5.48438 45.3966 5.48438 44.6523V1.34766ZM8.17969 2.69531V43.3047H37.8246V2.69531H8.17969Z" fill="#F16C22"/>
<path fill-rule="evenodd" clip-rule="evenodd" d="M10.875 19.0098C10.875 18.2655 11.4784 17.6621 12.2227 17.6621H33.7866C34.5309 17.6621 35.1342 18.2655 35.1342 19.0098C35.1342 19.7541 34.5309 20.3574 33.7866 20.3574H12.2227C11.4784 20.3574 10.875 19.7541 10.875 19.0098Z" fill="#F16C22"/>
<path fill-rule="evenodd" clip-rule="evenodd" d="M10.875 13.6191C10.875 12.8749 11.4784 12.2715 12.2227 12.2715H25.7007C26.4449 12.2715 27.0483 12.8749 27.0483 13.6191C27.0483 14.3634 26.4449 14.9668 25.7007 14.9668H12.2227C11.4784 14.9668 10.875 14.3634 10.875 13.6191Z" fill="#F16C22"/>
<path fill-rule="evenodd" clip-rule="evenodd" d="M10.875 8.22852C10.875 7.48423 11.4784 6.88086 12.2227 6.88086H33.7866C34.5309 6.88086 35.1342 7.48423 35.1342 8.22852C35.1342 8.97281 34.5309 9.57617 33.7866 9.57617H12.2227C11.4784 9.57617 10.875 8.97281 10.875 8.22852Z" fill="#F16C22"/>
<path fill-rule="evenodd" clip-rule="evenodd" d="M23.0037 26.6504C20.305 26.6504 18.1172 28.8382 18.1172 31.5369C18.1172 34.2356 20.305 36.4234 23.0037 36.4234C25.7024 36.4234 27.8902 34.2356 27.8902 31.5369C27.8902 28.8382 25.7024 26.6504 23.0037 26.6504ZM15.4219 31.5369C15.4219 27.3496 18.8164 23.9551 23.0037 23.9551C27.191 23.9551 30.5855 27.3496 30.5855 31.5369C30.5855 35.7242 27.191 39.1187 23.0037 39.1187C18.8164 39.1187 15.4219 35.7242 15.4219 31.5369Z" fill="#F16C22"/>
<path fill-rule="evenodd" clip-rule="evenodd" d="M23.0039 24.3442C23.7482 24.3442 24.3516 24.9476 24.3516 25.6919V30.1893H28.9268C29.6711 30.1893 30.2744 30.7927 30.2744 31.537C30.2744 32.2812 29.6711 32.8846 28.9268 32.8846H23.0039C22.2596 32.8846 21.6562 32.2812 21.6562 31.537V25.6919C21.6562 24.9476 22.2596 24.3442 23.0039 24.3442Z" fill="#F16C22"/>
</svg>
