<svg width="181" height="181" viewBox="0 0 181 181" fill="none" xmlns="http://www.w3.org/2000/svg">
<path d="M37.3312 108.826C33.5981 118.215 27.7156 127.492 19.8534 136.429C17.3647 139.257 17.0253 143.329 19.0616 146.497C20.6453 148.985 23.2472 150.343 26.0753 150.343C26.8672 150.343 27.6591 150.286 28.4509 150.004C45.0803 145.139 83.9388 127.888 85.0134 72.5695C85.4094 51.2454 69.7981 32.9191 49.4922 30.8263C38.2363 29.6951 27.0369 33.3716 18.7222 40.8379C14.6099 44.5673 11.3231 49.1156 9.07291 54.1907C6.82273 59.2658 5.65893 64.7554 5.65625 70.3069C5.65625 88.9726 18.8919 105.319 37.3312 108.826ZM139.766 30.8263C128.567 29.6951 117.367 33.3716 109.053 40.8379C104.94 44.5671 101.653 49.1154 99.4027 54.1905C97.1525 59.2656 95.9889 64.7553 95.9866 70.3069C95.9866 88.9726 109.222 105.319 127.662 108.826C123.928 118.215 118.046 127.492 110.184 136.429C107.695 139.257 107.356 143.329 109.392 146.497C110.976 148.985 113.577 150.343 116.406 150.343C117.198 150.343 117.989 150.286 118.781 150.004C135.411 145.139 174.269 127.888 175.344 72.5695V71.7776C175.344 50.7929 159.902 32.9191 139.766 30.8263Z" fill="white" fill-opacity="0.21"/>
</svg>
