<svg width="48" height="48" viewBox="0 0 48 48" fill="none" xmlns="http://www.w3.org/2000/svg">
<path d="M9.9 28.86C8.91 31.35 7.35 33.81 5.265 36.18C4.605 36.93 4.515 38.01 5.055 38.85C5.475 39.51 6.165 39.87 6.915 39.87C7.125 39.87 7.335 39.855 7.545 39.78C11.955 38.49 22.26 33.915 22.545 19.245C22.65 13.59 18.51 8.72997 13.125 8.17497C10.14 7.87497 7.17 8.84997 4.965 10.83C3.87444 11.819 3.00281 13.0252 2.40607 14.3711C1.80934 15.7169 1.50071 17.1727 1.5 18.645C1.5 23.595 5.01 27.93 9.9 28.86ZM37.065 8.17497C34.095 7.87497 31.125 8.84997 28.92 10.83C27.8294 11.8189 26.9577 13.0251 26.3609 14.371C25.7642 15.7169 25.4556 17.1727 25.455 18.645C25.455 23.595 28.965 27.93 33.855 28.86C32.865 31.35 31.305 33.81 29.22 36.18C28.56 36.93 28.47 38.01 29.01 38.85C29.43 39.51 30.12 39.87 30.87 39.87C31.08 39.87 31.29 39.855 31.5 39.78C35.91 38.49 46.215 33.915 46.5 19.245V19.035C46.5 13.47 42.405 8.72997 37.065 8.17497Z" fill="#06214D"/>
</svg>
