<svg width="170" height="83" viewBox="0 0 170 83" fill="none" xmlns="http://www.w3.org/2000/svg">
<path d="M149.604 83L170 82.9581L146.776 82.9581C138.451 82.6646 128.969 80.4253 128.969 64.5221C128.969 47.6192 131.128 35.0244 128.969 29.4935C125.599 20.8624 117.451 21.194 108.466 21.194L22.6719 21.1939C4.24061 21.1939 0.666944 8.48956 0.096369 1.49304L0.0963691 0.917648C0.0963691 0.627609 0.0368356 0.619621 0.0546242 0.909111C0.0662823 1.09883 0.0801058 1.29362 0.096369 1.49304L0.0963647 50.9581C0.0963632 68.6312 14.4232 82.9581 32.0964 82.9581L146.776 82.9581C147.74 82.9921 148.688 83 149.604 83Z" fill="#06214D"/>
</svg>
