<svg width="170" height="83" viewBox="0 0 170 83" fill="none" xmlns="http://www.w3.org/2000/svg">
<path d="M20.3956 83L-3.66194e-09 82.9581L23.2243 82.9581C31.5488 82.6646 41.0312 80.4253 41.0312 64.5221C41.0312 47.6192 38.8717 35.0244 41.0312 29.4935C44.4013 20.8624 52.5488 21.194 61.5336 21.194L147.328 21.1939C165.759 21.1939 169.333 8.48956 169.904 1.49304L169.904 0.917648C169.904 0.627609 169.963 0.619621 169.945 0.909111C169.934 1.09883 169.92 1.29362 169.904 1.49304L169.904 50.9581C169.904 68.6312 155.577 82.9581 137.904 82.9581L23.2243 82.9581C22.2604 82.9921 21.312 83 20.3956 83Z" fill="#06214D"/>
</svg>
