<svg width="37" height="37" viewBox="0 0 37 37" fill="none" xmlns="http://www.w3.org/2000/svg">
<path d="M31.1074 29.0621C30.8916 25.5247 29.1196 22.3055 26.2465 20.2305L23.796 18.4605L23.4361 14.0743C23.0149 8.93976 20.4805 4.03242 16.487 0.614258L15.7835 0L15.0623 0.612596C11.0716 4.03365 8.54143 8.93723 8.12056 14.0664L7.76234 18.4342L5.34599 20.1796C2.47286 22.2547 0.701193 25.4736 0.484902 29.0113L0 36.9495L2.80824 31.9702C3.68359 30.4179 5.1873 29.3421 6.89659 28.9895L6.70408 31.3347H10.1878V35.3633H21.1555V31.3347H24.8523L24.6635 29.0338C26.386 29.3794 27.9033 30.4589 28.7845 32.021L31.5928 37L31.1074 29.0621ZM15.7743 2.89178C17.9708 4.98243 19.6012 7.59606 20.5094 10.4266C19.249 11.0225 17.5236 11.3677 15.7187 11.3677C13.9691 11.3677 12.2827 11.04 11.0305 10.4735C11.9344 7.6246 13.5688 4.99312 15.7743 2.89178ZM2.68322 28.7389C2.96412 26.0128 4.38204 23.5515 6.61577 21.938L7.52921 21.2785L7.07928 26.7617C5.45053 26.9711 3.92058 27.6592 2.68322 28.7389ZM18.9864 33.1942H12.3566V31.3348H18.9864V33.1942ZM9.05835 29.1657L10.2826 14.2439C10.328 13.6945 10.4003 13.1476 10.4994 12.6053C11.9808 13.2049 13.8072 13.5365 15.7189 13.5365C17.6836 13.5365 19.5487 13.1888 21.0476 12.5607C21.1517 13.1202 21.2274 13.6847 21.2743 14.2519L22.498 29.1657H9.05835ZM24.4808 26.8086L24.0295 21.3048L24.9768 21.9888C27.2108 23.6023 28.6287 26.0636 28.9096 28.7897C27.6735 27.7113 26.1322 27.0133 24.4808 26.8086Z" fill="#F16C22"/>
<path d="M18.5693 18.8743C17.0221 17.3271 14.5045 17.3271 12.9571 18.8743C11.4101 20.4215 11.4101 22.9392 12.9571 24.4864C13.7308 25.2599 14.7471 25.6469 15.7633 25.6469C16.7795 25.6469 17.7957 25.2599 18.5692 24.4863C20.1164 22.9391 20.1164 20.4218 18.5692 18.8742L18.5693 18.8743ZM17.0356 22.9527C16.3338 23.6542 15.1925 23.6542 14.4907 22.9527C13.7893 22.251 13.7893 21.1097 14.4907 20.4079C14.8416 20.0573 15.3023 19.8818 15.763 19.8818C16.224 19.8818 16.6847 20.0573 17.0356 20.4079C17.7371 21.1097 17.7371 22.2512 17.0356 22.9527Z" fill="#F16C22"/>
</svg>
