<svg width="37" height="37" viewBox="0 0 37 37" fill="none" xmlns="http://www.w3.org/2000/svg">
<path fill-rule="evenodd" clip-rule="evenodd" d="M8.09375 16.1876H7.75381C7.71252 16.1876 7.67198 16.1766 7.6364 16.1557C7.60082 16.1347 7.57149 16.1046 7.55147 16.0685L6.34434 13.8948C6.62295 13.5299 6.81064 13.1039 6.89188 12.652C6.97312 12.2002 6.94557 11.7355 6.81151 11.2964C6.67746 10.8574 6.44075 10.4565 6.12098 10.1271C5.80121 9.79771 5.40758 9.5492 4.97268 9.40217C4.53778 9.25513 4.07411 9.2138 3.62005 9.28158C3.166 9.34937 2.73462 9.52433 2.36163 9.79198C1.98863 10.0596 1.68475 10.4123 1.47514 10.8207C1.26553 11.2292 1.15622 11.6816 1.15625 12.1407C1.15618 12.5437 1.24035 12.9422 1.40337 13.3107C1.56639 13.6792 1.80465 14.0095 2.10286 14.2805C2.40107 14.5515 2.75264 14.7572 3.13502 14.8843C3.51739 15.0114 3.92212 15.0572 4.32322 15.0186L5.53034 17.1912C5.7433 17.5751 6.05204 17.8973 6.42649 18.1265C6.80093 18.3557 7.22834 18.484 7.66709 18.499H8.09375V20.8126H6.697C6.43136 20.204 5.96425 19.7053 5.37422 19.4006C4.78418 19.0958 4.1072 19.0035 3.45712 19.1392C2.80703 19.2749 2.22349 19.6303 1.80461 20.1456C1.38574 20.6609 1.15707 21.3048 1.15707 21.9689C1.15707 22.633 1.38574 23.2768 1.80461 23.7921C2.22349 24.3074 2.80703 24.6628 3.45712 24.7985C4.1072 24.9342 4.78418 24.8419 5.37422 24.5371C5.96425 24.2324 6.43136 23.7338 6.697 23.1251H8.09375V25.4388L7.75381 25.4376C6.82997 25.4376 5.97897 25.9383 5.53034 26.7465L4.32322 28.9191C3.93415 28.8825 3.54171 28.9251 3.1696 29.0445C2.79748 29.1638 2.45343 29.3574 2.15824 29.6135C1.86305 29.8695 1.62285 30.1828 1.45215 30.5343C1.28144 30.8858 1.18379 31.2683 1.1651 31.6587C1.1464 32.049 1.20704 32.4391 1.34335 32.8053C1.47967 33.1716 1.68883 33.5064 1.95819 33.7895C2.22755 34.0726 2.55152 34.2981 2.91052 34.4525C3.26952 34.6069 3.65609 34.6869 4.04688 34.6876C4.58578 34.6876 5.11395 34.5369 5.57175 34.2526C6.02955 33.9683 6.39876 33.5616 6.63769 33.0786C6.87663 32.5956 6.97577 32.0554 6.92394 31.5189C6.8721 30.9825 6.67135 30.4713 6.34434 30.043L7.55147 27.8692C7.57149 27.8331 7.60082 27.803 7.6364 27.7821C7.67198 27.7611 7.71252 27.7501 7.75381 27.7501H8.09375V28.6751C8.09375 29.3498 8.36175 29.9968 8.8388 30.4738C9.31584 30.9509 9.96286 31.2189 10.6375 31.2189H26.3625C27.0371 31.2189 27.6842 30.9509 28.1612 30.4738C28.6382 29.9968 28.9062 29.3498 28.9062 28.6751V27.7501H29.2462C29.2875 27.7501 29.328 27.7611 29.3636 27.7821C29.3992 27.803 29.4285 27.8331 29.4485 27.8692L30.6557 30.043C30.3771 30.4078 30.1894 30.8338 30.1081 31.2857C30.0269 31.7375 30.0544 32.2022 30.1885 32.6413C30.3225 33.0804 30.5593 33.4812 30.879 33.8106C31.1988 34.14 31.5924 34.3885 32.0273 34.5356C32.4622 34.6826 32.9259 34.7239 33.3799 34.6561C33.834 34.5883 34.2654 34.4134 34.6384 34.1457C35.0114 33.8781 35.3152 33.5254 35.5249 33.117C35.7345 32.7086 35.8438 32.2561 35.8438 31.797C35.8438 31.394 35.7596 30.9955 35.5966 30.627C35.4336 30.2585 35.1954 29.9282 34.8971 29.6572C34.5989 29.3862 34.2474 29.1805 33.865 29.0534C33.4826 28.9263 33.0779 28.8806 32.6768 28.9191L31.4697 26.7465C31.2495 26.3498 30.9272 26.0192 30.5363 25.7891C30.1453 25.5589 29.6999 25.4376 29.2462 25.4376H28.9062V23.1251H30.303C30.5686 23.7338 31.0357 24.2324 31.6258 24.5371C32.2158 24.8419 32.8928 24.9342 33.5429 24.7985C34.193 24.6628 34.7765 24.3074 35.1954 23.7921C35.6143 23.2768 35.8429 22.633 35.8429 21.9689C35.8429 21.3048 35.6143 20.6609 35.1954 20.1456C34.7765 19.6303 34.193 19.2749 33.5429 19.1392C32.8928 19.0035 32.2158 19.0958 31.6258 19.4006C31.0357 19.7053 30.5686 20.204 30.303 20.8126H28.9062V18.5001H29.2462C30.17 18.5001 31.021 17.9995 31.4697 17.1912L32.6768 15.0186C33.0658 15.0553 33.4583 15.0126 33.8304 14.8932C34.2025 14.7739 34.5466 14.5803 34.8418 14.3243C35.1369 14.0682 35.3772 13.7549 35.5479 13.4034C35.7186 13.0519 35.8162 12.6694 35.8349 12.279C35.8536 11.8887 35.793 11.4986 35.6566 11.1324C35.5203 10.7662 35.3112 10.4314 35.0418 10.1483C34.7724 9.86513 34.4485 9.63957 34.0895 9.4852C33.7305 9.33083 33.3439 9.25085 32.9531 9.25011C32.4142 9.25014 31.8861 9.40081 31.4283 9.68513C30.9704 9.96944 30.6012 10.3761 30.3623 10.8591C30.1234 11.3422 30.0242 11.8824 30.0761 12.4188C30.1279 12.9552 30.3286 13.4664 30.6557 13.8948L29.4485 16.0685C29.4285 16.1046 29.3992 16.1347 29.3636 16.1557C29.328 16.1766 29.2875 16.1876 29.2462 16.1876H28.9062V15.2626C28.9062 14.9286 28.8405 14.5978 28.7126 14.2892C28.5848 13.9805 28.3974 13.7001 28.1612 13.4639C27.925 13.2277 27.6446 13.0403 27.336 12.9125C27.0273 12.7847 26.6965 12.7189 26.3625 12.7189H24.2812V8.09386C24.281 6.56056 23.6722 5.09006 22.5885 4.00535C21.78 3.19661 20.7498 2.64583 19.6282 2.42267C18.5066 2.19951 17.344 2.314 16.2875 2.75166C15.2309 3.18932 14.328 3.93048 13.6927 4.8814C13.0575 5.83232 12.7185 6.95028 12.7188 8.09386V9.25011C12.7188 9.55676 12.8406 9.85086 13.0574 10.0677C13.2742 10.2845 13.5683 10.4064 13.875 10.4064C14.1817 10.4064 14.4758 10.2845 14.6926 10.0677C14.9094 9.85086 15.0312 9.55676 15.0312 9.25011V8.09386C15.0312 7.17389 15.3967 6.2916 16.0472 5.64108C16.6977 4.99056 17.58 4.6251 18.5 4.6251C19.42 4.6251 20.3023 4.99056 20.9528 5.64108C21.6033 6.2916 21.9688 7.17389 21.9688 8.09386V12.7189H10.6375C9.96286 12.7189 9.31584 12.9869 8.8388 13.4639C8.36175 13.941 8.09375 14.588 8.09375 15.2626V16.1876ZM4.625 31.797C4.625 31.9503 4.56409 32.0974 4.45567 32.2058C4.34725 32.3142 4.2002 32.3751 4.04688 32.3751C3.89355 32.3751 3.7465 32.3142 3.63808 32.2058C3.52966 32.0974 3.46875 31.9503 3.46875 31.797C3.46875 31.6437 3.52966 31.4966 3.63808 31.3882C3.7465 31.2798 3.89355 31.2189 4.04688 31.2189C4.2002 31.2189 4.34725 31.2798 4.45567 31.3882C4.56409 31.4966 4.625 31.6437 4.625 31.797ZM32.375 31.797C32.375 31.6437 32.4359 31.4966 32.5443 31.3882C32.6527 31.2798 32.7998 31.2189 32.9531 31.2189C33.1065 31.2189 33.2535 31.2798 33.3619 31.3882C33.4703 31.4966 33.5312 31.6437 33.5312 31.797C33.5312 31.9503 33.4703 32.0974 33.3619 32.2058C33.2535 32.3142 33.1065 32.3751 32.9531 32.3751C32.7998 32.3751 32.6527 32.3142 32.5443 32.2058C32.4359 32.0974 32.375 31.9503 32.375 31.797ZM26.5938 15.2626V28.6751C26.5938 28.7364 26.5694 28.7953 26.526 28.8386C26.4827 28.882 26.4238 28.9064 26.3625 28.9064H10.6375C10.5762 28.9064 10.5173 28.882 10.474 28.8386C10.4306 28.7953 10.4062 28.7364 10.4062 28.6751V15.2626C10.4062 15.1354 10.5103 15.0314 10.6375 15.0314H26.3625C26.4897 15.0314 26.5938 15.1354 26.5938 15.2626ZM4.625 21.9689C4.625 22.1222 4.56409 22.2692 4.45567 22.3777C4.34725 22.4861 4.2002 22.547 4.04688 22.547C3.89355 22.547 3.7465 22.4861 3.63808 22.3777C3.52966 22.2692 3.46875 22.1222 3.46875 21.9689C3.46875 21.8155 3.52966 21.6685 3.63808 21.5601C3.7465 21.4516 3.89355 21.3907 4.04688 21.3907C4.2002 21.3907 4.34725 21.4516 4.45567 21.5601C4.56409 21.6685 4.625 21.8155 4.625 21.9689ZM32.375 21.9689C32.375 21.8155 32.4359 21.6685 32.5443 21.5601C32.6527 21.4516 32.7998 21.3907 32.9531 21.3907C33.1065 21.3907 33.2535 21.4516 33.3619 21.5601C33.4703 21.6685 33.5312 21.8155 33.5312 21.9689C33.5312 22.1222 33.4703 22.2692 33.3619 22.3777C33.2535 22.4861 33.1065 22.547 32.9531 22.547C32.7998 22.547 32.6527 22.4861 32.5443 22.3777C32.4359 22.2692 32.375 22.1222 32.375 21.9689ZM4.625 12.1407C4.625 12.2941 4.56409 12.4411 4.45567 12.5495C4.34725 12.6579 4.2002 12.7189 4.04688 12.7189C3.89355 12.7189 3.7465 12.6579 3.63808 12.5495C3.52966 12.4411 3.46875 12.2941 3.46875 12.1407C3.46875 11.9874 3.52966 11.8404 3.63808 11.7319C3.7465 11.6235 3.89355 11.5626 4.04688 11.5626C4.2002 11.5626 4.34725 11.6235 4.45567 11.7319C4.56409 11.8404 4.625 11.9874 4.625 12.1407ZM32.375 12.1407C32.375 11.9874 32.4359 11.8404 32.5443 11.7319C32.6527 11.6235 32.7998 11.5626 32.9531 11.5626C33.1065 11.5626 33.2535 11.6235 33.3619 11.7319C33.4703 11.8404 33.5312 11.9874 33.5312 12.1407C33.5312 12.2941 33.4703 12.4411 33.3619 12.5495C33.2535 12.6579 33.1065 12.7189 32.9531 12.7189C32.7998 12.7189 32.6527 12.6579 32.5443 12.5495C32.4359 12.4411 32.375 12.2941 32.375 12.1407Z" fill="#F16C22"/>
<path fill-rule="evenodd" clip-rule="evenodd" d="M17.3438 24.0837V25.4377C17.3438 25.7443 17.4656 26.0384 17.6824 26.2553C17.8992 26.4721 18.1933 26.5939 18.5 26.5939C18.8067 26.5939 19.1008 26.4721 19.3176 26.2553C19.5344 26.0384 19.6563 25.7443 19.6563 25.4377V24.0837C20.2562 23.8719 20.7864 23.4992 21.1888 23.0064C21.5913 22.5136 21.8504 21.9196 21.938 21.2894C22.0256 20.6592 21.9382 20.017 21.6855 19.4332C21.4327 18.8493 21.0242 18.3461 20.5048 17.9787C19.9853 17.6113 19.3748 17.3938 18.7401 17.35C18.1053 17.3062 17.4708 17.4378 16.9058 17.7303C16.3407 18.0229 15.867 18.4651 15.5364 19.0087C15.2058 19.5524 15.0311 20.1764 15.0313 20.8127C15.0313 22.3216 15.9967 23.6073 17.3438 24.0837ZM18.5 19.6564C18.8067 19.6564 19.1008 19.7782 19.3176 19.9951C19.5344 20.2119 19.6563 20.506 19.6563 20.8127C19.6563 21.1193 19.5344 21.4134 19.3176 21.6303C19.1008 21.8471 18.8067 21.9689 18.5 21.9689C18.1933 21.9689 17.8992 21.8471 17.6824 21.6303C17.4656 21.4134 17.3438 21.1193 17.3438 20.8127C17.3438 20.506 17.4656 20.2119 17.6824 19.9951C17.8992 19.7782 18.1933 19.6564 18.5 19.6564Z" fill="#F16C22"/>
</svg>
