<svg width="37" height="37" viewBox="0 0 37 37" fill="none" xmlns="http://www.w3.org/2000/svg">
<g clip-path="url(#clip0_4636_2949)">
<path d="M34.8313 30.6578V22.8529H19.5961V18.3128C20.5221 17.9844 21.2569 17.2495 21.5853 16.3235H28.3019V8.70588H36.9372L34.0353 4.35294L36.9372 0H26.1255V14.1471H21.5853C21.1361 12.8804 19.9265 11.9706 18.5078 11.9706C14.8273 12.0403 14.0122 17.0525 17.4196 18.3128V25.0294H32.6549V30.6578C31.7289 30.9862 30.994 31.721 30.6656 32.6471H6.35005C5.08878 29.2389 0.0772419 30.0557 0.0078125 33.7354C0.0775321 37.4156 5.08944 38.2312 6.35005 34.8235H30.6656C31.1148 36.0902 32.3244 37 33.7431 37C37.4237 36.9303 38.2387 31.9181 34.8313 30.6578ZM28.3019 2.17647H32.8706L31.4196 4.35294L32.8706 6.52941H28.3019V2.17647ZM18.5078 14.1471C19.1079 14.1471 19.5961 14.6352 19.5961 15.2353C19.5414 16.677 17.474 16.6766 17.4196 15.2353C17.4196 14.6352 17.9078 14.1471 18.5078 14.1471ZM3.27252 34.8235C2.67247 34.8235 2.18428 34.3354 2.18428 33.7353C2.23891 32.2936 4.30634 32.294 4.36075 33.7353C4.36075 34.3354 3.87264 34.8235 3.27252 34.8235ZM33.7431 34.8235C33.143 34.8235 32.6549 34.3354 32.6549 33.7353C32.7095 32.2936 34.7769 32.294 34.8313 33.7353C34.8313 34.3354 34.3432 34.8235 33.7431 34.8235Z" fill="#F16C22"/>
</g>
<defs>
<clipPath id="clip0_4636_2949">
<rect width="37" height="37" fill="white"/>
</clipPath>
</defs>
</svg>
