<svg width="123" height="123" viewBox="0 0 123 123" fill="none" xmlns="http://www.w3.org/2000/svg">
<path d="M25.3687 73.9536C22.8319 80.3343 18.8344 86.638 13.4916 92.7111C11.8003 94.633 11.5697 97.4005 12.9534 99.553C14.0297 101.244 15.7978 102.167 17.7197 102.167C18.2578 102.167 18.7959 102.128 19.3341 101.936C30.6347 98.6305 57.0412 86.9071 57.7716 49.3152C58.0406 34.8243 47.4319 22.3705 33.6328 20.9483C25.9837 20.1796 18.3731 22.678 12.7228 27.7518C9.92826 30.2861 7.69469 33.377 6.16557 36.8258C4.63644 40.2746 3.84557 44.0051 3.84375 47.7777C3.84375 60.4621 12.8381 71.5705 25.3687 73.9536ZM94.9791 20.9483C87.3684 20.1796 79.7578 22.678 74.1075 27.7518C71.3128 30.286 69.0791 33.3768 67.5499 36.8256C66.0208 40.2745 65.23 44.0051 65.2284 47.7777C65.2284 60.4621 74.2228 71.5705 86.7534 73.9536C84.2166 80.3343 80.2191 86.638 74.8763 92.7111C73.185 94.633 72.9544 97.4005 74.3381 99.553C75.4144 101.244 77.1825 102.167 79.1044 102.167C79.6425 102.167 80.1806 102.128 80.7188 101.936C92.0194 98.6305 118.426 86.9071 119.156 49.3152V48.7771C119.156 34.5168 108.663 22.3705 94.9791 20.9483Z" fill="#06214D" fill-opacity="0.06"/>
</svg>
