<svg width="46" height="46" viewBox="0 0 46 46" fill="none" xmlns="http://www.w3.org/2000/svg">
<circle cx="23" cy="23" r="22" stroke="#F16C22" stroke-width="2"/>
<path d="M33.1425 16.3291C32.3484 15.3851 30.8822 15 28.0821 15H17.9177C15.0535 15 13.5625 15.4099 12.7713 16.415C12 17.3949 12 18.8387 12 20.837V24.6458C12 28.5172 12.9152 30.4827 17.9177 30.4827H28.0821C30.5104 30.4827 31.8559 30.143 32.7264 29.3099C33.6191 28.4556 34 27.0607 34 24.6458V20.837C34 18.7296 33.9403 17.2773 33.1425 16.3291ZM26.1241 23.2672L21.5085 25.6795C21.4003 25.7361 21.2794 25.7638 21.1574 25.76C21.0353 25.7562 20.9164 25.721 20.812 25.6577C20.7076 25.5945 20.6212 25.5054 20.5613 25.399C20.5014 25.2926 20.47 25.1726 20.4701 25.0505V20.2415C20.4701 20.1196 20.5015 19.9997 20.5612 19.8935C20.621 19.7873 20.7071 19.6982 20.8113 19.635C20.9155 19.5717 21.0342 19.5363 21.156 19.5322C21.2779 19.5281 21.3987 19.5555 21.5068 19.6117L26.1224 22.0084C26.2376 22.0682 26.3342 22.1585 26.4017 22.2694C26.4692 22.3803 26.5049 22.5075 26.5051 22.6373C26.5053 22.7671 26.4698 22.8945 26.4026 23.0056C26.3355 23.1166 26.2391 23.2071 26.1241 23.2672Z" fill="#F16C22"/>
</svg>
